<svg width="490" height="449" viewBox="0 0 490 449" fill="none" xmlns="http://www.w3.org/2000/svg">
<g id="contact">
<g id="service">
<path id="XMLID 19" d="M26 167.875L34 174L38.5 161.5L26 167.875Z" fill="url(#paint0_linear)" stroke="url(#paint1_linear)" stroke-width="10" stroke-miterlimit="10"/>
<g id="XMLID 23">
<path id="XMLID 18" d="M69 148C94.9708 148 116 169.823 116 196.774C116 223.725 94.9708 245.547 69 245.547C43.0292 245.547 22 223.725 22 196.774C22 184.979 26.0082 174.21 32.7068 165.778" stroke="url(#paint2_linear)" stroke-width="5" stroke-miterlimit="10"/>
</g>
</g>
<g id="mymessageicon">
<g id="24 Hr">
<path d="M37.5391 206.117L37.3984 206V205.461L41.3242 201.301C42.9414 199.59 43.9883 198.266 44.4648 197.328C44.9414 196.391 45.1797 195.516 45.1797 194.703C45.1797 193.75 44.8906 192.957 44.3125 192.324C43.7344 191.691 42.9531 191.375 41.9688 191.375C41.3359 191.375 40.7852 191.473 40.3164 191.668C39.8477 191.863 39.5312 192.082 39.3672 192.324C39.2109 192.566 38.9805 193.246 38.6758 194.363L38.5703 194.457H38.0898L37.9727 194.352C38.1523 193.297 38.2773 192.254 38.3477 191.223C39.082 190.504 39.7656 190.047 40.3984 189.852C41.0391 189.648 41.707 189.547 42.4023 189.547C43.2305 189.547 44.0234 189.703 44.7812 190.016C45.5391 190.328 46.1484 190.836 46.6094 191.539C47.0703 192.234 47.3008 193.043 47.3008 193.965C47.3008 194.652 47.1641 195.344 46.8906 196.039C46.625 196.727 46.2305 197.395 45.707 198.043C45.1914 198.684 44.4844 199.453 43.5859 200.352L39.9297 204.078H44.5586C45.9805 204.078 47.1641 204.027 48.1094 203.926L48.1914 204.02C48.1445 204.285 48.1211 204.633 48.1211 205.062C48.1211 205.453 48.1445 205.762 48.1914 205.988L48.1094 206.117C47.5469 206.086 46.6836 206.059 45.5195 206.035C44.3555 206.012 43.5859 206 43.2109 206C42.4531 206 41.4336 206.008 40.1523 206.023C38.8711 206.047 38 206.078 37.5391 206.117ZM52.8555 206.094L52.7617 206V205.496L52.8555 205.402C54.0117 205.371 54.6953 205.336 54.9062 205.297C55.125 205.258 55.2852 205.176 55.3867 205.051C55.4883 204.926 55.5625 204.621 55.6094 204.137C55.6641 203.652 55.6914 203.137 55.6914 202.59V201.723H53.125C51.6328 201.723 50.3711 201.746 49.3398 201.793L49.1406 201.16C50.5 198.613 52.7695 194.926 55.9492 190.098L57.6016 189.43L57.8945 189.57C57.8086 190.898 57.7656 192.543 57.7656 194.504L57.7305 197.809V200.234C58.8086 200.227 59.6406 200.203 60.2266 200.164L60.332 200.281C60.3164 200.578 60.3086 200.793 60.3086 200.926C60.3164 201.184 60.3281 201.438 60.3438 201.688L60.2266 201.793C59.4688 201.746 58.8359 201.723 58.3281 201.723H57.7305V202.508C57.7305 203.383 57.7539 204.004 57.8008 204.371C57.8477 204.738 57.9219 204.977 58.0234 205.086C58.125 205.188 58.3281 205.266 58.6328 205.32C58.9453 205.367 59.4805 205.395 60.2383 205.402L60.3438 205.496V206L60.25 206.094C58.875 206.031 57.7227 206 56.793 206C55.2773 206 53.9648 206.031 52.8555 206.094ZM50.6875 200.234H55.6914L55.7969 191.902C55.0469 192.973 54.1016 194.441 52.9609 196.309C51.8203 198.176 51.0625 199.484 50.6875 200.234ZM67.6914 189.441C69.6836 189.504 70.8008 189.535 71.043 189.535C71.3008 189.535 72.4219 189.504 74.4062 189.441L74.5 189.523V190.109L74.4062 190.191C73.8672 190.207 73.4492 190.23 73.1523 190.262C72.8633 190.293 72.6523 190.352 72.5195 190.438C72.3867 190.523 72.2969 190.727 72.25 191.047C72.2109 191.359 72.1914 191.797 72.1914 192.359L72.168 195.055V196.695C73.8789 196.742 75.5 196.766 77.0312 196.766C79.125 196.766 80.7188 196.742 81.8125 196.695V195.055L81.7891 192.77C81.7812 191.879 81.7578 191.305 81.7188 191.047C81.6797 190.789 81.625 190.617 81.5547 190.531C81.4844 190.445 81.3438 190.375 81.1328 190.32C80.9219 190.266 80.3984 190.223 79.5625 190.191L79.4805 190.109V189.523L79.5625 189.441C81.5625 189.504 82.6836 189.535 82.9258 189.535C83.1914 189.535 84.3125 189.504 86.2891 189.441L86.3828 189.523V190.109L86.2891 190.191C85.7422 190.207 85.3203 190.23 85.0234 190.262C84.7344 190.293 84.5234 190.352 84.3906 190.438C84.2578 190.523 84.1719 190.727 84.1328 191.047C84.0938 191.359 84.0703 191.797 84.0625 192.359L84.0391 195.055V200.48L84.0625 202.766C84.0703 203.648 84.0938 204.219 84.1328 204.477C84.1719 204.734 84.2266 204.906 84.2969 204.992C84.375 205.078 84.5156 205.152 84.7188 205.215C84.9297 205.27 85.4531 205.312 86.2891 205.344L86.3828 205.414V206L86.2891 206.094C84.2891 206.031 83.168 206 82.9258 206C82.6758 206 81.5547 206.031 79.5625 206.094L79.4805 206V205.414L79.5625 205.344C80.2969 205.312 80.7852 205.273 81.0273 205.227C81.2695 205.18 81.4297 205.121 81.5078 205.051C81.5859 204.973 81.6523 204.812 81.707 204.57C81.7617 204.328 81.7891 203.789 81.7891 202.953L81.8125 200.48V197.809C79.5 197.762 77.8789 197.738 76.9492 197.738C75.9961 197.738 74.4023 197.762 72.168 197.809V200.48L72.1797 202.766C72.1875 203.648 72.2109 204.219 72.25 204.477C72.2891 204.734 72.3438 204.906 72.4141 204.992C72.4922 205.078 72.6367 205.152 72.8477 205.215C73.0586 205.27 73.5781 205.312 74.4062 205.344L74.5 205.414V206L74.4062 206.094C72.4141 206.031 71.293 206 71.043 206C70.8008 206 69.6836 206.031 67.6914 206.094L67.5977 206V205.414L67.6914 205.344C68.418 205.312 68.9023 205.273 69.1445 205.227C69.3867 205.18 69.5469 205.121 69.625 205.051C69.7109 204.973 69.7773 204.812 69.8242 204.57C69.8789 204.328 69.9102 203.789 69.918 202.953L69.9297 200.48V195.055L69.9062 192.77C69.8984 191.879 69.875 191.305 69.8359 191.047C69.8047 190.789 69.75 190.617 69.6719 190.531C69.6016 190.445 69.4609 190.375 69.25 190.32C69.0391 190.266 68.5195 190.223 67.6914 190.191L67.5977 190.109V189.523L67.6914 189.441ZM91.4688 194.832L91.6914 194.984C91.6445 195.438 91.6094 196.242 91.5859 197.398L92.4648 196.285C92.7539 195.918 93.0078 195.637 93.2266 195.441C93.4531 195.238 93.7148 195.082 94.0117 194.973C94.3086 194.863 94.6133 194.809 94.9258 194.809C95.2695 194.809 95.5938 194.879 95.8984 195.02L95.9805 195.184C95.8555 196.223 95.7852 197.137 95.7695 197.926H95.2422C94.9297 197.207 94.4258 196.848 93.7305 196.848C93.2461 196.848 92.8242 197.004 92.4648 197.316C92.1055 197.621 91.8633 198.008 91.7383 198.477C91.6211 198.938 91.5625 199.523 91.5625 200.234V201.535C91.5625 201.77 91.5781 202.344 91.6094 203.258C91.6406 204.172 91.6719 204.699 91.7031 204.84C91.7422 204.98 91.7969 205.086 91.8672 205.156C91.9453 205.219 92.043 205.262 92.1602 205.285C92.2852 205.309 92.8438 205.348 93.8359 205.402L93.9414 205.496V205.988L93.8359 206.094C92.7969 206.031 91.7109 206 90.5781 206C89.6797 206 88.7422 206.031 87.7656 206.094L87.6602 205.988V205.496L87.7656 205.402C88.5234 205.355 88.9492 205.32 89.043 205.297C89.1445 205.273 89.2305 205.227 89.3008 205.156C89.3789 205.078 89.4297 204.965 89.4531 204.816C89.4844 204.66 89.5156 204.156 89.5469 203.305C89.5859 202.445 89.6055 201.797 89.6055 201.359V199.051C89.6055 198.738 89.5898 198.312 89.5586 197.773C89.5273 197.234 89.5 196.902 89.4766 196.777C89.4609 196.652 89.4023 196.562 89.3008 196.508C89.1992 196.445 88.9961 196.414 88.6914 196.414L87.707 196.402L87.6016 196.309V195.805L87.6953 195.711C89.1875 195.531 90.4453 195.238 91.4688 194.832Z" fill="url(#paint3_linear)"/>
<path d="M37.5391 206.117L36.8989 206.885L37.2143 207.148L37.6235 207.114L37.5391 206.117ZM37.3984 206H36.3984V206.468L36.7583 206.768L37.3984 206ZM37.3984 205.461L36.6711 204.775L36.3984 205.064V205.461H37.3984ZM41.3242 201.301L40.5975 200.614L40.5969 200.614L41.3242 201.301ZM39.3672 192.324L38.5393 191.763L38.533 191.773L38.5269 191.782L39.3672 192.324ZM38.6758 194.363L39.3401 195.111L39.5623 194.913L39.6405 194.626L38.6758 194.363ZM38.5703 194.457V195.457H38.9505L39.2347 195.204L38.5703 194.457ZM38.0898 194.457L37.4209 195.2L37.7061 195.457H38.0898V194.457ZM37.9727 194.352L36.9869 194.184L36.8944 194.726L37.3037 195.095L37.9727 194.352ZM38.3477 191.223L37.6482 190.508L37.3759 190.774L37.35 191.155L38.3477 191.223ZM40.3984 189.852L40.6934 190.807L40.7007 190.805L40.3984 189.852ZM46.6094 191.539L45.773 192.087L45.7759 192.092L46.6094 191.539ZM46.8906 196.039L45.96 195.673L45.9578 195.679L46.8906 196.039ZM45.707 198.043L44.9289 197.415L44.928 197.416L45.707 198.043ZM43.5859 200.352L42.8788 199.644L42.8721 199.651L43.5859 200.352ZM39.9297 204.078L39.2159 203.378L37.5476 205.078H39.9297V204.078ZM48.1094 203.926L48.862 203.267L48.5195 202.876L48.0026 202.932L48.1094 203.926ZM48.1914 204.02L49.1762 204.193L49.2594 203.722L48.944 203.361L48.1914 204.02ZM48.1914 205.988L49.0351 206.525L49.2529 206.183L49.1707 205.786L48.1914 205.988ZM48.1094 206.117L48.0539 207.116L48.6386 207.148L48.953 206.654L48.1094 206.117ZM40.1523 206.023L40.1401 205.023L40.1341 205.024L40.1523 206.023ZM38.1792 205.349L38.0386 205.232L36.7583 206.768L36.8989 206.885L38.1792 205.349ZM38.3984 206V205.461H36.3984V206H38.3984ZM38.1257 206.147L42.0515 201.987L40.5969 200.614L36.6711 204.775L38.1257 206.147ZM42.051 201.988C43.6732 200.271 44.8091 198.858 45.3563 197.781L43.5734 196.875C43.1675 197.673 42.2097 198.908 40.5975 200.614L42.051 201.988ZM45.3563 197.781C45.8839 196.743 46.1797 195.713 46.1797 194.703H44.1797C44.1797 195.319 43.9989 196.038 43.5734 196.875L45.3563 197.781ZM46.1797 194.703C46.1797 193.531 45.8166 192.488 45.0508 191.65L43.5742 192.999C43.9647 193.426 44.1797 193.969 44.1797 194.703H46.1797ZM45.0508 191.65C44.2543 190.778 43.1881 190.375 41.9688 190.375V192.375C42.7181 192.375 43.2144 192.605 43.5742 192.999L45.0508 191.65ZM41.9688 190.375C41.2353 190.375 40.5484 190.488 39.9318 190.745L40.701 192.591C41.0219 192.457 41.4365 192.375 41.9688 192.375V190.375ZM39.9318 190.745C39.3998 190.967 38.8668 191.28 38.5393 191.763L40.1951 192.885C40.1896 192.893 40.2095 192.861 40.2962 192.801C40.3818 192.742 40.5121 192.67 40.701 192.591L39.9318 190.745ZM38.5269 191.782C38.374 192.019 38.2441 192.358 38.1301 192.695C38.0057 193.061 37.8659 193.532 37.711 194.1L39.6405 194.626C39.7904 194.077 39.9181 193.649 40.0242 193.337C40.0772 193.18 40.1219 193.061 40.1582 192.975C40.1978 192.88 40.2151 192.855 40.2075 192.866L38.5269 191.782ZM38.0114 193.616L37.9059 193.71L39.2347 195.204L39.3401 195.111L38.0114 193.616ZM38.5703 193.457H38.0898V195.457H38.5703V193.457ZM38.7588 193.714L38.6416 193.608L37.3037 195.095L37.4209 195.2L38.7588 193.714ZM38.9585 194.52C39.1436 193.433 39.2727 192.357 39.3453 191.291L37.35 191.155C37.282 192.151 37.1611 193.161 36.9869 194.184L38.9585 194.52ZM39.0471 191.937C39.7245 191.274 40.2738 190.937 40.6934 190.807L40.1035 188.896C39.2575 189.157 38.4395 189.733 37.6482 190.508L39.0471 191.937ZM40.7007 190.805C41.2402 190.634 41.806 190.547 42.4023 190.547V188.547C41.6081 188.547 40.8379 188.663 40.0962 188.898L40.7007 190.805ZM42.4023 190.547C43.1011 190.547 43.7644 190.678 44.4 190.94L45.1625 189.091C44.2825 188.728 43.3599 188.547 42.4023 188.547V190.547ZM44.4 190.94C44.9667 191.174 45.4195 191.548 45.7731 192.087L47.4457 190.991C46.8774 190.124 46.1114 189.482 45.1625 189.091L44.4 190.94ZM45.7759 192.092C46.1169 192.606 46.3008 193.218 46.3008 193.965H48.3008C48.3008 192.868 48.0237 191.863 47.4429 190.987L45.7759 192.092ZM46.3008 193.965C46.3008 194.517 46.1916 195.084 45.96 195.673L47.8212 196.405C48.1365 195.603 48.3008 194.788 48.3008 193.965H46.3008ZM45.9578 195.679C45.7341 196.258 45.3956 196.837 44.9289 197.415L46.4851 198.671C47.0653 197.952 47.5159 197.195 47.8234 196.399L45.9578 195.679ZM44.928 197.416C44.4435 198.018 43.7639 198.759 42.8788 199.644L44.293 201.059C45.2048 200.147 45.9393 199.349 46.486 198.67L44.928 197.416ZM42.8721 199.651L39.2159 203.378L40.6435 204.778L44.2997 201.052L42.8721 199.651ZM39.9297 205.078H44.5586V203.078H39.9297V205.078ZM44.5586 205.078C46.0005 205.078 47.2227 205.027 48.2162 204.92L48.0026 202.932C47.1054 203.028 45.9604 203.078 44.5586 203.078V205.078ZM47.3568 204.584L47.4388 204.678L48.944 203.361L48.862 203.267L47.3568 204.584ZM47.2066 203.846C47.1455 204.192 47.1211 204.604 47.1211 205.062H49.1211C49.1211 204.661 49.1436 204.378 49.1762 204.193L47.2066 203.846ZM47.1211 205.062C47.1211 205.482 47.1453 205.868 47.2121 206.191L49.1707 205.786C49.1438 205.656 49.1211 205.425 49.1211 205.062H47.1211ZM47.3477 205.451L47.2657 205.58L48.953 206.654L49.0351 206.525L47.3477 205.451ZM48.1648 205.119C47.5838 205.086 46.7059 205.059 45.5397 205.035L45.4994 207.035C46.6613 207.058 47.5099 207.085 48.0539 207.116L48.1648 205.119ZM45.5397 205.035C44.3775 205.012 43.5978 205 43.2109 205V207C43.5741 207 44.3334 207.011 45.4994 207.035L45.5397 205.035ZM43.2109 205C42.4472 205 41.4231 205.008 40.1401 205.024L40.1645 207.023C41.4441 207.008 42.459 207 43.2109 207V205ZM40.1341 205.024C38.8563 205.047 37.9534 205.078 37.4546 205.121L37.6235 207.114C38.0466 207.078 38.8858 207.047 40.1706 207.023L40.1341 205.024ZM52.8555 206.094L52.1484 206.801L52.4648 207.117L52.9117 207.092L52.8555 206.094ZM52.7617 206H51.7617V206.414L52.0546 206.707L52.7617 206ZM52.7617 205.496L52.0546 204.789L51.7617 205.082V205.496H52.7617ZM52.8555 205.402L52.8285 204.403L52.4301 204.413L52.1484 204.695L52.8555 205.402ZM54.9062 205.297L54.7305 204.312L54.7242 204.314L54.9062 205.297ZM55.6094 204.137L54.6157 204.025L54.6148 204.032L54.614 204.04L55.6094 204.137ZM55.6914 201.723H56.6914V200.723H55.6914V201.723ZM49.3398 201.793L48.386 202.093L48.6169 202.827L49.3853 202.792L49.3398 201.793ZM49.1406 201.16L48.2584 200.689L48.0607 201.06L48.1868 201.46L49.1406 201.16ZM55.9492 190.098L55.5744 189.171L55.2855 189.287L55.1141 189.548L55.9492 190.098ZM57.6016 189.43L58.0343 188.528L57.6362 188.337L57.2268 188.503L57.6016 189.43ZM57.8945 189.57L58.8924 189.635L58.936 188.961L58.3273 188.669L57.8945 189.57ZM57.7656 194.504L58.7656 194.515V194.504H57.7656ZM57.7305 197.809L56.7305 197.798V197.809H57.7305ZM57.7305 200.234H56.7305V201.242L57.7377 201.234L57.7305 200.234ZM60.2266 200.164L60.9699 199.495L60.6448 199.134L60.16 199.166L60.2266 200.164ZM60.332 200.281L61.3306 200.334L61.3524 199.92L61.0753 199.612L60.332 200.281ZM60.3086 200.926H59.3086V200.941L59.3091 200.956L60.3086 200.926ZM60.3438 201.688L61.0127 202.431L61.372 202.107L61.3418 201.625L60.3438 201.688ZM60.2266 201.793L60.1648 202.791L60.5836 202.817L60.8955 202.536L60.2266 201.793ZM57.7305 201.723V200.723H56.7305V201.723H57.7305ZM58.0234 205.086L57.2906 205.766L57.3032 205.78L57.3163 205.793L58.0234 205.086ZM58.6328 205.32L58.4561 206.305L58.4703 206.307L58.4845 206.309L58.6328 205.32ZM60.2383 205.402L60.9026 204.655L60.6229 204.406L60.2486 204.402L60.2383 205.402ZM60.3438 205.496H61.3438V205.047L61.0081 204.749L60.3438 205.496ZM60.3438 206L61.0509 206.707L61.3438 206.414V206H60.3438ZM60.25 206.094L60.2046 207.093L60.6452 207.113L60.9571 206.801L60.25 206.094ZM50.6875 200.234L49.7931 199.787L49.0695 201.234H50.6875V200.234ZM55.6914 200.234V201.234H56.6788L56.6913 200.247L55.6914 200.234ZM55.7969 191.902L56.7968 191.915L56.8378 188.674L54.9779 191.328L55.7969 191.902ZM53.5626 205.387L53.4688 205.293L52.0546 206.707L52.1484 206.801L53.5626 205.387ZM53.7617 206V205.496H51.7617V206H53.7617ZM53.4688 206.203L53.5626 206.109L52.1484 204.695L52.0546 204.789L53.4688 206.203ZM52.8825 206.402C53.464 206.386 53.9332 206.369 54.2867 206.351C54.6144 206.334 54.9062 206.314 55.0883 206.28L54.7242 204.314C54.7286 204.313 54.7193 204.315 54.69 204.318C54.6626 204.321 54.6254 204.325 54.5767 204.329C54.4792 204.337 54.3492 204.345 54.184 204.354C53.8539 204.371 53.4032 204.387 52.8285 204.403L52.8825 206.402ZM55.082 206.281C55.4473 206.216 55.8612 206.053 56.1628 205.681L54.6106 204.42C54.6571 204.363 54.7056 204.331 54.7346 204.316C54.7605 204.303 54.7642 204.306 54.7305 204.312L55.082 206.281ZM56.1628 205.681C56.3595 205.439 56.445 205.15 56.4901 204.965C56.5429 204.749 56.5789 204.5 56.6047 204.233L54.614 204.04C54.593 204.258 54.5685 204.404 54.547 204.492C54.5364 204.535 54.5301 204.55 54.5322 204.545C54.5325 204.544 54.5534 204.491 54.6106 204.42L56.1628 205.681ZM56.6031 204.249C56.6624 203.723 56.6914 203.17 56.6914 202.59H54.6914C54.6914 203.104 54.6657 203.582 54.6157 204.025L56.6031 204.249ZM56.6914 202.59V201.723H54.6914V202.59H56.6914ZM55.6914 200.723H53.125V202.723H55.6914V200.723ZM53.125 200.723C51.6237 200.723 50.3458 200.746 49.2944 200.794L49.3853 202.792C50.3964 202.746 51.6419 202.723 53.125 202.723V200.723ZM50.2937 201.493L50.0945 200.86L48.1868 201.46L48.386 202.093L50.2937 201.493ZM50.0228 201.631C51.3597 199.126 53.6084 195.47 56.7844 190.648L55.1141 189.548C51.9307 194.381 49.6403 198.1 48.2584 200.689L50.0228 201.631ZM56.324 191.025L57.9764 190.357L57.2268 188.503L55.5744 189.171L56.324 191.025ZM57.1688 190.331L57.4618 190.472L58.3273 188.669L58.0343 188.528L57.1688 190.331ZM56.8966 189.506C56.8088 190.863 56.7656 192.53 56.7656 194.504H58.7656C58.7656 192.555 58.8084 190.934 58.8924 189.635L56.8966 189.506ZM56.7657 194.493L56.7305 197.798L58.7304 197.819L58.7656 194.515L56.7657 194.493ZM56.7305 197.809V200.234H58.7305V197.809H56.7305ZM57.7377 201.234C58.8222 201.226 59.6775 201.203 60.2931 201.162L60.16 199.166C59.6038 199.203 58.795 199.227 57.7232 199.234L57.7377 201.234ZM59.4833 200.833L59.5887 200.95L61.0753 199.612L60.9699 199.495L59.4833 200.833ZM59.3334 200.229C59.3177 200.527 59.3086 200.765 59.3086 200.926H61.3086C61.3086 200.821 61.3151 200.629 61.3306 200.334L59.3334 200.229ZM59.3091 200.956C59.3172 201.224 59.3294 201.489 59.3457 201.75L61.3418 201.625C61.3269 201.386 61.3156 201.143 61.3081 200.895L59.3091 200.956ZM59.6748 200.944L59.5576 201.05L60.8955 202.536L61.0127 202.431L59.6748 200.944ZM60.2883 200.795C59.5189 200.747 58.8639 200.723 58.3281 200.723V202.723C58.808 202.723 59.4186 202.745 60.1648 202.791L60.2883 200.795ZM58.3281 200.723H57.7305V202.723H58.3281V200.723ZM56.7305 201.723V202.508H58.7305V201.723H56.7305ZM56.7305 202.508C56.7305 203.384 56.7531 204.061 56.8088 204.498L58.7927 204.244C58.7547 203.946 58.7305 203.382 58.7305 202.508H56.7305ZM56.8088 204.498C56.8365 204.714 56.8762 204.928 56.9368 205.123C56.9923 205.301 57.0918 205.552 57.2906 205.766L58.7562 204.405C58.8105 204.464 58.8366 204.512 58.8448 204.529C58.8537 204.546 58.8528 204.548 58.8464 204.528C58.8327 204.484 58.812 204.395 58.7927 204.244L56.8088 204.498ZM57.3163 205.793C57.6544 206.131 58.136 206.247 58.4561 206.305L58.8095 204.336C58.7546 204.326 58.7106 204.316 58.6764 204.307C58.6418 204.298 58.6209 204.291 58.6109 204.287C58.6005 204.283 58.6078 204.285 58.6266 204.296C58.6451 204.307 58.6845 204.333 58.7305 204.379L57.3163 205.793ZM58.4845 206.309C58.8726 206.367 59.4699 206.394 60.228 206.402L60.2486 204.402C59.491 204.395 59.018 204.367 58.7812 204.331L58.4845 206.309ZM59.5739 206.15L59.6794 206.244L61.0081 204.749L60.9026 204.655L59.5739 206.15ZM59.3438 205.496V206H61.3438V205.496H59.3438ZM59.6366 205.293L59.5429 205.387L60.9571 206.801L61.0509 206.707L59.6366 205.293ZM60.2954 205.095C58.9117 205.032 57.7431 205 56.793 205V207C57.7022 207 58.8383 207.031 60.2046 207.093L60.2954 205.095ZM56.793 205C55.2648 205 53.9327 205.031 52.7992 205.095L52.9117 207.092C53.997 207.031 55.2899 207 56.793 207V205ZM50.6875 201.234H55.6914V199.234H50.6875V201.234ZM56.6913 200.247L56.7968 191.915L54.797 191.89L54.6915 200.222L56.6913 200.247ZM54.9779 191.328C54.2106 192.424 53.2529 193.912 52.1076 195.787L53.8143 196.83C54.9502 194.97 55.8831 193.522 56.6158 192.476L54.9779 191.328ZM52.1076 195.787C50.9683 197.652 50.1895 198.994 49.7931 199.787L51.5819 200.682C51.9355 199.974 52.6723 198.699 53.8143 196.83L52.1076 195.787ZM67.6914 189.441L67.7228 188.442L67.3292 188.43L67.0329 188.689L67.6914 189.441ZM74.4062 189.441L75.0648 188.689L74.7684 188.43L74.3748 188.442L74.4062 189.441ZM74.5 189.523H75.5V189.07L75.1585 188.771L74.5 189.523ZM74.5 190.109L75.1585 190.862L75.5 190.563V190.109H74.5ZM74.4062 190.191L74.4352 191.191L74.7944 191.181L75.0648 190.944L74.4062 190.191ZM73.1523 190.262L73.0477 189.267L73.0449 189.268L73.1523 190.262ZM72.25 191.047L71.2605 190.902L71.259 190.912L71.2577 190.923L72.25 191.047ZM72.1914 192.359L73.1914 192.368V192.359H72.1914ZM72.168 195.055L71.168 195.046V195.055H72.168ZM72.168 196.695H71.168V197.668L72.1406 197.695L72.168 196.695ZM81.8125 196.695L81.8553 197.694L82.8125 197.653V196.695H81.8125ZM81.8125 195.055H82.8126L82.8124 195.044L81.8125 195.055ZM81.7891 192.77L80.7891 192.778L80.7891 192.78L81.7891 192.77ZM79.5625 190.191L78.8554 190.899L79.1329 191.176L79.5251 191.191L79.5625 190.191ZM79.4805 190.109H78.4805V190.524L78.7734 190.816L79.4805 190.109ZM79.4805 189.523L78.7734 188.816L78.4805 189.109V189.523H79.4805ZM79.5625 189.441L79.5937 188.442L79.1613 188.428L78.8554 188.734L79.5625 189.441ZM86.2891 189.441L86.9476 188.689L86.6511 188.429L86.2575 188.442L86.2891 189.441ZM86.3828 189.523H87.3828V189.07L87.0413 188.771L86.3828 189.523ZM86.3828 190.109L87.0413 190.862L87.3828 190.563V190.109H86.3828ZM86.2891 190.191L86.3176 191.191L86.677 191.181L86.9476 190.944L86.2891 190.191ZM85.0234 190.262L84.9188 189.267L84.916 189.268L85.0234 190.262ZM84.1328 191.047L85.1251 191.171L85.1255 191.168L84.1328 191.047ZM84.0625 192.359L83.0626 192.345L83.0625 192.351L84.0625 192.359ZM84.0391 195.055L83.0391 195.046V195.055H84.0391ZM84.0391 200.48H83.039L83.0391 200.491L84.0391 200.48ZM84.0625 202.766L85.0625 202.757L85.0624 202.755L84.0625 202.766ZM84.2969 204.992L83.5229 205.625L83.5394 205.646L83.5569 205.665L84.2969 204.992ZM84.7188 205.215L84.4247 206.171L84.4461 206.177L84.4678 206.183L84.7188 205.215ZM86.2891 205.344L86.8891 204.544L86.6389 204.356L86.3264 204.344L86.2891 205.344ZM86.3828 205.414H87.3828V204.914L86.9828 204.614L86.3828 205.414ZM86.3828 206L87.0899 206.707L87.3828 206.414V206H86.3828ZM86.2891 206.094L86.2578 207.093L86.6903 207.107L86.9962 206.801L86.2891 206.094ZM79.5625 206.094L78.8099 206.752L79.1213 207.108L79.5939 207.093L79.5625 206.094ZM79.4805 206H78.4805V206.376L78.7279 206.659L79.4805 206ZM79.4805 205.414L78.8297 204.655L78.4805 204.954V205.414H79.4805ZM79.5625 205.344L79.52 204.345L79.1744 204.359L78.9117 204.584L79.5625 205.344ZM81.5078 205.051L82.1768 205.794L82.1963 205.776L82.2149 205.758L81.5078 205.051ZM81.7891 202.953L80.7891 202.944V202.953H81.7891ZM81.8125 200.48L82.8125 200.49V200.48H81.8125ZM81.8125 197.809H82.8125V196.829L81.8328 196.809L81.8125 197.809ZM72.168 197.809L72.147 196.809L71.168 196.829V197.809H72.168ZM72.168 200.48H71.168L71.168 200.486L72.168 200.48ZM72.1797 202.766L71.1797 202.771L71.1797 202.774L72.1797 202.766ZM72.4141 204.992L71.6401 205.625L71.6566 205.646L71.6741 205.665L72.4141 204.992ZM72.8477 205.215L72.5636 206.174L72.5801 206.179L72.5967 206.183L72.8477 205.215ZM74.4062 205.344L75.0062 204.544L74.7562 204.356L74.444 204.344L74.4062 205.344ZM74.5 205.414H75.5V204.914L75.1 204.614L74.5 205.414ZM74.5 206L75.2071 206.707L75.5 206.414V206H74.5ZM74.4062 206.094L74.3749 207.093L74.8074 207.107L75.1134 206.801L74.4062 206.094ZM67.6914 206.094L66.9843 206.801L67.2903 207.107L67.7228 207.093L67.6914 206.094ZM67.5977 206H66.5977V206.414L66.8905 206.707L67.5977 206ZM67.5977 205.414L66.9977 204.614L66.5977 204.914V205.414H67.5977ZM67.6914 205.344L67.6484 204.345L67.3391 204.358L67.0914 204.544L67.6914 205.344ZM69.625 205.051L70.294 205.794L70.2977 205.791L69.625 205.051ZM69.8242 204.57L68.8488 204.35L68.8454 204.365L68.8424 204.38L69.8242 204.57ZM69.918 202.953L70.9179 202.962L70.918 202.958L69.918 202.953ZM69.9297 200.48L70.9297 200.485V200.48H69.9297ZM69.9297 195.055H70.9297L70.9296 195.044L69.9297 195.055ZM69.9062 192.77L68.9063 192.778L68.9063 192.78L69.9062 192.77ZM69.8359 191.047L68.8432 191.167L68.845 191.182L68.8472 191.197L69.8359 191.047ZM69.6719 190.531L68.8979 191.164L68.9144 191.185L68.9319 191.204L69.6719 190.531ZM67.6914 190.191L67.0329 190.944L67.2996 191.177L67.6537 191.191L67.6914 190.191ZM67.5977 190.109H66.5977V190.563L66.9392 190.862L67.5977 190.109ZM67.5977 189.523L66.9392 188.771L66.5977 189.07V189.523H67.5977ZM67.66 190.441C69.6399 190.503 70.7804 190.535 71.043 190.535V188.535C70.8212 188.535 69.7273 188.505 67.7228 188.442L67.66 190.441ZM71.043 190.535C71.3212 190.535 72.4652 190.503 74.4377 190.441L74.3748 188.442C72.3785 188.505 71.2803 188.535 71.043 188.535V190.535ZM73.7477 190.194L73.8415 190.276L75.1585 188.771L75.0648 188.689L73.7477 190.194ZM73.5 189.523V190.109H75.5V189.523H73.5ZM73.8415 189.357L73.7477 189.439L75.0648 190.944L75.1585 190.862L73.8415 189.357ZM74.3773 189.192C73.8296 189.208 73.3821 189.232 73.0477 189.267L73.257 191.256C73.5163 191.229 73.9048 191.206 74.4352 191.191L74.3773 189.192ZM73.0449 189.268C72.7099 189.304 72.3089 189.383 71.9763 189.598L73.0628 191.277C73.0185 191.306 73.0026 191.304 73.045 191.293C73.0842 191.282 73.153 191.267 73.2598 191.256L73.0449 189.268ZM71.9763 189.598C71.6928 189.781 71.5311 190.039 71.438 190.25C71.3439 190.462 71.2917 190.689 71.2605 190.902L73.2395 191.192C73.2469 191.141 73.2545 191.105 73.2608 191.081C73.2671 191.057 73.2704 191.051 73.2671 191.059C73.2638 191.066 73.2135 191.18 73.0628 191.277L71.9763 189.598ZM71.2577 190.923C71.211 191.296 71.1914 191.782 71.1914 192.359H73.1914C73.1914 191.812 73.2109 191.422 73.2423 191.171L71.2577 190.923ZM71.1914 192.351L71.168 195.046L73.1679 195.063L73.1914 192.368L71.1914 192.351ZM71.168 195.055V196.695H73.168V195.055H71.168ZM72.1406 197.695C73.8596 197.742 75.4899 197.766 77.0312 197.766V195.766C75.5101 195.766 73.8982 195.742 72.1954 195.696L72.1406 197.695ZM77.0312 197.766C79.1289 197.766 80.7398 197.742 81.8553 197.694L81.7697 195.696C80.6977 195.742 79.1211 195.766 77.0312 195.766V197.766ZM82.8125 196.695V195.055H80.8125V196.695H82.8125ZM82.8124 195.044L82.789 192.759L80.7891 192.78L80.8126 195.065L82.8124 195.044ZM82.789 192.761C82.7814 191.889 82.7592 191.239 82.7075 190.897L80.73 191.197C80.7564 191.371 80.7811 191.869 80.7891 192.778L82.789 192.761ZM82.7075 190.897C82.6832 190.737 82.65 190.574 82.6014 190.421C82.5567 190.281 82.4782 190.081 82.3286 189.898L80.7807 191.164C80.7582 191.137 80.7415 191.112 80.7297 191.093C80.7179 191.074 80.7098 191.059 80.7047 191.048C80.6949 191.028 80.6928 191.019 80.6955 191.028C80.698 191.036 80.703 191.053 80.7095 191.083C80.7159 191.112 80.7229 191.15 80.73 191.197L82.7075 190.897ZM82.3286 189.898C82.0454 189.552 81.6337 189.417 81.3838 189.352L80.8819 191.288C80.9434 191.304 80.9604 191.314 80.9493 191.308C80.9424 191.305 80.9218 191.294 80.8935 191.273C80.8652 191.252 80.8239 191.217 80.7807 191.164L82.3286 189.898ZM81.3838 189.352C81.1863 189.301 80.9254 189.272 80.6638 189.25C80.3813 189.227 80.0251 189.208 79.5999 189.192L79.5251 191.191C79.9358 191.206 80.2593 191.224 80.5002 191.244C80.6206 191.254 80.7143 191.263 80.7842 191.273C80.8594 191.283 80.8861 191.289 80.8819 191.288L81.3838 189.352ZM80.2696 189.484L80.1876 189.402L78.7734 190.816L78.8554 190.899L80.2696 189.484ZM80.4805 190.109V189.523H78.4805V190.109H80.4805ZM80.1876 190.231L80.2696 190.149L78.8554 188.734L78.7734 188.816L80.1876 190.231ZM79.5313 190.441C81.519 190.503 82.6632 190.535 82.9258 190.535V188.535C82.7039 188.535 81.606 188.505 79.5937 188.442L79.5313 190.441ZM82.9258 190.535C83.2119 190.535 84.3558 190.503 86.3207 190.441L86.2575 188.442C84.2692 188.505 83.1709 188.535 82.9258 188.535V190.535ZM85.6306 190.194L85.7243 190.276L87.0413 188.771L86.9476 188.689L85.6306 190.194ZM85.3828 189.523V190.109H87.3828V189.523H85.3828ZM85.7243 189.357L85.6306 189.439L86.9476 190.944L87.0413 190.862L85.7243 189.357ZM86.2605 189.192C85.7054 189.208 85.2536 189.232 84.9188 189.267L85.1281 191.256C85.387 191.229 85.779 191.206 86.3176 191.191L86.2605 189.192ZM84.916 189.268C84.581 189.304 84.18 189.383 83.8474 189.598L84.9339 191.277C84.8896 191.306 84.8737 191.304 84.9161 191.293C84.9553 191.282 85.0241 191.267 85.1309 191.256L84.916 189.268ZM83.8474 189.598C83.5585 189.785 83.3969 190.049 83.3056 190.265C83.2138 190.482 83.1663 190.712 83.1402 190.926L85.1255 191.168C85.1315 191.118 85.1382 191.083 85.1435 191.061C85.149 191.038 85.1517 191.034 85.1475 191.044C85.1422 191.057 85.0899 191.176 84.9339 191.277L83.8474 189.598ZM83.1405 190.923C83.0947 191.29 83.0706 191.77 83.0626 192.345L85.0624 192.373C85.07 191.824 85.0928 191.429 85.1251 191.171L83.1405 190.923ZM83.0625 192.351L83.0391 195.046L85.039 195.063L85.0625 192.368L83.0625 192.351ZM83.0391 195.055V200.48H85.0391V195.055H83.0391ZM83.0391 200.491L83.0626 202.776L85.0624 202.755L85.039 200.47L83.0391 200.491ZM83.0625 202.774C83.0702 203.639 83.0923 204.285 83.1441 204.626L85.1215 204.327C85.0952 204.153 85.0704 203.658 85.0625 202.757L83.0625 202.774ZM83.1441 204.626C83.1684 204.786 83.2016 204.949 83.2502 205.102C83.2949 205.243 83.3734 205.443 83.5229 205.625L85.0708 204.359C85.0934 204.387 85.1101 204.411 85.1218 204.43C85.1336 204.449 85.1418 204.465 85.1469 204.475C85.1567 204.495 85.1588 204.504 85.1561 204.496C85.1536 204.488 85.1485 204.47 85.1421 204.441C85.1357 204.411 85.1286 204.374 85.1215 204.327L83.1441 204.626ZM83.5569 205.665C83.8191 205.953 84.1715 206.093 84.4247 206.171L85.0128 204.259C84.9839 204.25 84.9625 204.242 84.9477 204.237C84.9327 204.231 84.9267 204.227 84.9277 204.228C84.9285 204.228 84.9398 204.234 84.9579 204.248C84.976 204.261 85.0045 204.284 85.0368 204.32L83.5569 205.665ZM84.4678 206.183C84.6653 206.234 84.9262 206.263 85.1877 206.285C85.4702 206.308 85.8265 206.327 86.2517 206.343L86.3264 204.344C85.9157 204.329 85.5923 204.311 85.3513 204.291C85.2309 204.282 85.1373 204.272 85.0674 204.262C84.9921 204.252 84.9655 204.246 84.9697 204.247L84.4678 206.183ZM85.6891 206.144L85.7828 206.214L86.9828 204.614L86.8891 204.544L85.6891 206.144ZM85.3828 205.414V206H87.3828V205.414H85.3828ZM85.6757 205.293L85.582 205.387L86.9962 206.801L87.0899 206.707L85.6757 205.293ZM86.3203 205.094C84.3326 205.032 83.1883 205 82.9258 205V207C83.1476 207 84.2455 207.03 86.2578 207.093L86.3203 205.094ZM82.9258 205C82.6554 205 81.5112 205.032 79.5311 205.094L79.5939 207.093C81.5981 207.03 82.6962 207 82.9258 207V205ZM80.3151 205.435L80.233 205.341L78.7279 206.659L78.8099 206.752L80.3151 205.435ZM80.4805 206V205.414H78.4805V206H80.4805ZM80.1313 206.173L80.2133 206.103L78.9117 204.584L78.8297 204.655L80.1313 206.173ZM79.605 206.343C80.3272 206.312 80.89 206.272 81.2174 206.208L80.8373 204.245C80.6803 204.275 80.2666 204.313 79.52 204.345L79.605 206.343ZM81.2174 206.208C81.3698 206.179 81.526 206.14 81.6727 206.087C81.8073 206.037 82.002 205.951 82.1768 205.794L80.8388 204.307C80.8663 204.283 80.891 204.264 80.9106 204.251C80.9302 204.237 80.9465 204.228 80.958 204.222C80.9801 204.21 80.9912 204.206 80.9855 204.208C80.9806 204.21 80.9662 204.215 80.94 204.222C80.9142 204.229 80.8803 204.236 80.8373 204.245L81.2174 206.208ZM82.2149 205.758C82.3844 205.588 82.4819 205.395 82.54 205.255C82.6021 205.105 82.6475 204.946 82.6825 204.791L80.7316 204.35C80.7222 204.392 80.7136 204.424 80.7062 204.448C80.6988 204.473 80.6939 204.486 80.6925 204.489C80.6908 204.493 80.6955 204.481 80.7092 204.458C80.7224 204.436 80.7511 204.393 80.8007 204.344L82.2149 205.758ZM82.6825 204.791C82.7665 204.419 82.7891 203.76 82.7891 202.953H80.7891C80.7891 203.818 80.757 204.238 80.7316 204.35L82.6825 204.791ZM82.789 202.963L82.8125 200.49L80.8125 200.471L80.7891 202.944L82.789 202.963ZM82.8125 200.48V197.809H80.8125V200.48H82.8125ZM81.8328 196.809C79.5205 196.762 77.8902 196.738 76.9492 196.738V198.738C77.8676 198.738 79.4795 198.762 81.7922 198.808L81.8328 196.809ZM76.9492 196.738C75.9846 196.738 74.3816 196.762 72.147 196.809L72.1889 198.808C74.4231 198.762 76.0076 198.738 76.9492 198.738V196.738ZM71.168 197.809V200.48H73.168V197.809H71.168ZM71.168 200.486L71.1797 202.771L73.1797 202.76L73.168 200.475L71.168 200.486ZM71.1797 202.774C71.1874 203.639 71.2095 204.285 71.2613 204.626L73.2387 204.327C73.2123 204.153 73.1876 203.658 73.1796 202.757L71.1797 202.774ZM71.2613 204.626C71.2855 204.786 71.3188 204.949 71.3674 205.102C71.4121 205.243 71.4906 205.443 71.6401 205.625L73.188 204.359C73.2106 204.387 73.2273 204.411 73.239 204.43C73.2508 204.449 73.2589 204.465 73.2641 204.475C73.2738 204.495 73.2759 204.504 73.2732 204.496C73.2708 204.488 73.2657 204.47 73.2592 204.441C73.2528 204.411 73.2458 204.374 73.2387 204.327L71.2613 204.626ZM71.6741 205.665C71.9429 205.961 72.3092 206.098 72.5636 206.174L73.1317 204.256C73.1005 204.247 73.0773 204.239 73.0609 204.232C73.0443 204.226 73.0373 204.222 73.0379 204.223C73.0381 204.223 73.0499 204.229 73.069 204.243C73.0881 204.256 73.119 204.281 73.154 204.32L71.6741 205.665ZM72.5967 206.183C72.7937 206.234 73.053 206.263 73.3131 206.285C73.5937 206.308 73.9471 206.327 74.3685 206.343L74.444 204.344C74.0372 204.329 73.7168 204.311 73.4779 204.291C73.3585 204.282 73.2657 204.272 73.1962 204.262C73.1216 204.253 73.0949 204.246 73.0986 204.247L72.5967 206.183ZM73.8063 206.144L73.9 206.214L75.1 204.614L75.0062 204.544L73.8063 206.144ZM73.5 205.414V206H75.5V205.414H73.5ZM73.7929 205.293L73.6991 205.387L75.1134 206.801L75.2071 206.707L73.7929 205.293ZM74.4376 205.094C72.4575 205.032 71.3134 205 71.043 205V207C71.2726 207 72.3706 207.03 74.3749 207.093L74.4376 205.094ZM71.043 205C70.7804 205 69.6399 205.032 67.66 205.094L67.7228 207.093C69.7273 207.03 70.8212 207 71.043 207V205ZM68.3985 205.387L68.3048 205.293L66.8905 206.707L66.9843 206.801L68.3985 205.387ZM68.5977 206V205.414H66.5977V206H68.5977ZM68.1977 206.214L68.2914 206.144L67.0914 204.544L66.9977 204.614L68.1977 206.214ZM67.7344 206.343C68.4494 206.312 69.0076 206.272 69.3346 206.208L68.9545 204.245C68.797 204.275 68.3866 204.313 67.6484 204.345L67.7344 206.343ZM69.3346 206.208C69.487 206.179 69.6432 206.14 69.7899 206.087C69.9245 206.037 70.1191 205.951 70.294 205.794L68.956 204.307C68.9835 204.283 69.0082 204.264 69.0278 204.251C69.0474 204.237 69.0637 204.228 69.0752 204.222C69.0972 204.21 69.1083 204.206 69.1027 204.208C69.0978 204.21 69.0834 204.215 69.0572 204.222C69.0314 204.229 68.9975 204.236 68.9545 204.245L69.3346 206.208ZM70.2977 205.791C70.6446 205.475 70.7555 205.021 70.806 204.76L68.8424 204.38C68.8351 204.418 68.8283 204.446 68.8228 204.466C68.8173 204.485 68.8143 204.492 68.8155 204.489C68.8166 204.487 68.8246 204.467 68.8433 204.438C68.8618 204.409 68.8962 204.362 68.9523 204.311L70.2977 205.791ZM70.7997 204.791C70.8824 204.424 70.9104 203.771 70.9179 202.962L68.918 202.944C68.9099 203.807 68.8754 204.232 68.8488 204.35L70.7997 204.791ZM70.918 202.958L70.9297 200.485L68.9297 200.476L68.918 202.948L70.918 202.958ZM70.9297 200.48V195.055H68.9297V200.48H70.9297ZM70.9296 195.044L70.9062 192.759L68.9063 192.78L68.9297 195.065L70.9296 195.044ZM70.9062 192.761C70.8986 191.889 70.8764 191.239 70.8247 190.897L68.8472 191.197C68.8736 191.371 68.8983 191.869 68.9063 192.778L70.9062 192.761ZM70.8287 190.927C70.8085 190.76 70.777 190.587 70.7244 190.421C70.6751 190.266 70.5863 190.05 70.4118 189.859L68.9319 191.204C68.8802 191.147 68.8511 191.097 68.8371 191.07C68.8228 191.042 68.8179 191.026 68.8186 191.028C68.819 191.029 68.8225 191.041 68.8275 191.066C68.8324 191.09 68.8379 191.124 68.8432 191.167L70.8287 190.927ZM70.4458 189.898C70.1626 189.552 69.7508 189.417 69.501 189.352L68.999 191.288C69.0606 191.304 69.0776 191.314 69.0665 191.308C69.0596 191.305 69.039 191.294 69.0107 191.273C68.9824 191.252 68.9411 191.217 68.8979 191.164L70.4458 189.898ZM69.501 189.352C69.304 189.301 69.0447 189.272 68.7846 189.25C68.5039 189.227 68.1505 189.208 67.7291 189.192L67.6537 191.191C68.0604 191.206 68.3808 191.224 68.6197 191.244C68.7391 191.254 68.832 191.263 68.9014 191.273C68.976 191.283 69.0028 191.289 68.999 191.288L69.501 189.352ZM68.3499 189.439L68.2562 189.357L66.9392 190.862L67.0329 190.944L68.3499 189.439ZM68.5977 190.109V189.523H66.5977V190.109H68.5977ZM68.2562 190.276L68.3499 190.194L67.0329 188.689L66.9392 188.771L68.2562 190.276ZM91.4688 194.832L92.0334 194.007L91.5943 193.706L91.0998 193.903L91.4688 194.832ZM91.6914 194.984L92.6861 195.087L92.7473 194.495L92.2561 194.159L91.6914 194.984ZM91.5859 197.398L90.5861 197.378L90.5258 200.355L92.3708 198.018L91.5859 197.398ZM92.4648 196.285L93.2497 196.905L93.2506 196.904L92.4648 196.285ZM93.2266 195.441L93.8926 196.187L93.8941 196.186L93.2266 195.441ZM95.8984 195.02L96.7929 194.572L96.636 194.259L96.3175 194.112L95.8984 195.02ZM95.9805 195.184L96.9733 195.303L97.0092 195.005L96.8749 194.736L95.9805 195.184ZM95.7695 197.926V198.926H96.7499L96.7693 197.946L95.7695 197.926ZM95.2422 197.926L94.3251 198.325L94.5865 198.926H95.2422V197.926ZM92.4648 197.316L93.1116 198.079L93.121 198.071L92.4648 197.316ZM91.7383 198.477L90.772 198.219L90.7691 198.23L91.7383 198.477ZM91.7031 204.84L90.7269 205.057L90.7326 205.082L90.7396 205.107L91.7031 204.84ZM91.8672 205.156L91.1601 205.863L91.1992 205.903L91.2425 205.937L91.8672 205.156ZM92.1602 205.285L91.964 206.266L91.9759 206.268L92.1602 205.285ZM93.8359 205.402L94.5003 204.655L94.2394 204.423L93.891 204.404L93.8359 205.402ZM93.9414 205.496H94.9414V205.047L94.6058 204.749L93.9414 205.496ZM93.9414 205.988L94.6485 206.695L94.9414 206.402V205.988H93.9414ZM93.8359 206.094L93.7759 207.092L94.2249 207.119L94.543 206.801L93.8359 206.094ZM87.7656 206.094L87.0585 206.801L87.3783 207.121L87.8295 207.092L87.7656 206.094ZM87.6602 205.988H86.6602V206.402L86.953 206.695L87.6602 205.988ZM87.6602 205.496L86.9958 204.749L86.6602 205.047V205.496H87.6602ZM87.7656 205.402L87.7039 204.404L87.3593 204.426L87.1013 204.655L87.7656 205.402ZM89.043 205.297L88.8181 204.322L88.8093 204.325L88.8004 204.327L89.043 205.297ZM89.4531 204.816L88.4725 204.62L88.4685 204.64L88.4654 204.66L89.4531 204.816ZM89.5469 203.305L88.5479 203.259L88.5475 203.268L89.5469 203.305ZM89.4766 196.777L88.4843 196.901L88.4881 196.932L88.4937 196.962L89.4766 196.777ZM89.3008 196.508L88.7767 197.359L88.8013 197.375L88.8267 197.388L89.3008 196.508ZM88.6914 196.414L88.6795 197.414H88.6914V196.414ZM87.707 196.402L87.0427 197.15L87.3218 197.398L87.6951 197.402L87.707 196.402ZM87.6016 196.309H86.6016V196.758L86.9372 197.056L87.6016 196.309ZM87.6016 195.805L86.8945 195.098L86.6016 195.39V195.805H87.6016ZM87.6953 195.711L87.5758 194.718L87.2326 194.759L86.9882 195.004L87.6953 195.711ZM90.9041 195.657L91.1267 195.81L92.2561 194.159L92.0334 194.007L90.9041 195.657ZM90.6967 194.881C90.6451 195.381 90.6095 196.224 90.5861 197.378L92.5857 197.419C92.6092 196.261 92.644 195.494 92.6861 195.087L90.6967 194.881ZM92.3708 198.018L93.2497 196.905L91.68 195.666L90.8011 196.779L92.3708 198.018ZM93.2506 196.904C93.5221 196.559 93.7351 196.328 93.8926 196.187L92.5605 194.695C92.2805 194.946 91.9858 195.277 91.6791 195.667L93.2506 196.904ZM93.8941 196.186C94.0229 196.071 94.1743 195.978 94.3574 195.911L93.666 194.034C93.2554 194.186 92.8834 194.406 92.559 194.697L93.8941 196.186ZM94.3574 195.911C94.545 195.842 94.7327 195.809 94.9258 195.809V193.809C94.4938 193.809 94.0722 193.885 93.666 194.034L94.3574 195.911ZM94.9258 195.809C95.1285 195.809 95.3093 195.849 95.4794 195.927L96.3175 194.112C95.8782 193.909 95.4106 193.809 94.9258 193.809V195.809ZM95.004 195.467L95.086 195.631L96.8749 194.736L96.7929 194.572L95.004 195.467ZM94.9876 195.064C94.8598 196.126 94.7862 197.075 94.7697 197.906L96.7693 197.946C96.7841 197.199 96.8511 196.319 96.9733 195.303L94.9876 195.064ZM95.7695 196.926H95.2422V198.926H95.7695V196.926ZM96.1593 197.527C95.9497 197.045 95.6448 196.613 95.2105 196.303C94.7685 195.988 94.2595 195.848 93.7305 195.848V197.848C93.8967 197.848 93.9874 197.887 94.0492 197.931C94.1189 197.981 94.2222 198.088 94.3251 198.325L96.1593 197.527ZM93.7305 195.848C93.0095 195.848 92.3534 196.088 91.8087 196.562L93.121 198.071C93.295 197.92 93.4827 197.848 93.7305 197.848V195.848ZM91.8182 196.554C91.2984 196.994 90.9479 197.559 90.772 198.219L92.7045 198.734C92.7786 198.456 92.9125 198.248 93.1115 198.079L91.8182 196.554ZM90.7691 198.23C90.6241 198.801 90.5625 199.477 90.5625 200.234H92.5625C92.5625 199.57 92.6181 199.074 92.7075 198.723L90.7691 198.23ZM90.5625 200.234V201.535H92.5625V200.234H90.5625ZM90.5625 201.535C90.5625 201.79 90.5789 202.384 90.61 203.292L92.6088 203.224C92.5773 202.303 92.5625 201.749 92.5625 201.535H90.5625ZM90.61 203.292C90.6257 203.752 90.6417 204.122 90.658 204.398C90.6721 204.636 90.6903 204.892 90.7269 205.057L92.6793 204.623C92.6864 204.655 92.683 204.651 92.6753 204.569C92.669 204.501 92.662 204.406 92.6545 204.28C92.6396 204.028 92.6243 203.677 92.6088 203.224L90.61 203.292ZM90.7396 205.107C90.8047 205.342 90.9239 205.627 91.1601 205.863L92.5743 204.449C92.6242 204.499 92.6502 204.543 92.6612 204.564C92.6719 204.585 92.6717 204.59 92.6666 204.572L90.7396 205.107ZM91.2425 205.937C91.4675 206.117 91.7204 206.217 91.964 206.266L92.3563 204.305C92.3656 204.306 92.4231 204.32 92.4919 204.375L91.2425 205.937ZM91.9759 206.268C92.109 206.293 92.3491 206.312 92.6031 206.33C92.8897 206.35 93.283 206.373 93.7809 206.401L93.891 204.404C93.3967 204.377 93.0146 204.353 92.7426 204.334C92.438 204.313 92.3363 204.301 92.3444 204.302L91.9759 206.268ZM93.1716 206.15L93.277 206.244L94.6058 204.749L94.5003 204.655L93.1716 206.15ZM92.9414 205.496V205.988H94.9414V205.496H92.9414ZM93.2343 205.281L93.1288 205.387L94.543 206.801L94.6485 206.695L93.2343 205.281ZM93.896 205.096C92.8353 205.032 91.7292 205 90.5781 205V207C91.6926 207 92.7585 207.031 93.7759 207.092L93.896 205.096ZM90.5781 205C89.6566 205 88.6977 205.032 87.7018 205.096L87.8295 207.092C88.7866 207.03 89.7028 207 90.5781 207V205ZM88.4727 205.387L88.3673 205.281L86.953 206.695L87.0585 206.801L88.4727 205.387ZM88.6602 205.988V205.496H86.6602V205.988H88.6602ZM88.3245 206.244L88.43 206.15L87.1013 204.655L86.9958 204.749L88.3245 206.244ZM87.8274 206.4C88.2088 206.377 88.5126 206.356 88.7356 206.337C88.9125 206.323 89.1404 206.303 89.2855 206.267L88.8004 204.327C88.8504 204.314 88.8692 204.315 88.7983 204.323C88.7475 204.329 88.6729 204.336 88.571 204.344C88.3683 204.361 88.0803 204.381 87.7039 204.404L87.8274 206.4ZM89.2678 206.271C89.5428 206.208 89.7985 206.073 90.0079 205.863L88.5937 204.449C88.625 204.418 88.6625 204.389 88.7047 204.366C88.7467 204.343 88.786 204.33 88.8181 204.322L89.2678 206.271ZM90.0079 205.863C90.2808 205.59 90.3962 205.256 90.4409 204.972L88.4654 204.66C88.4632 204.674 88.477 204.566 88.5937 204.449L90.0079 205.863ZM90.4337 205.013C90.465 204.856 90.4833 204.621 90.4981 204.383C90.5145 204.119 90.5304 203.771 90.5462 203.341L88.5475 203.268C88.5321 203.69 88.5168 204.02 88.5019 204.259C88.4854 204.526 88.4725 204.621 88.4725 204.62L90.4337 205.013ZM90.5458 203.35C90.5851 202.487 90.6055 201.82 90.6055 201.359H88.6055C88.6055 201.773 88.5868 202.404 88.5479 203.259L90.5458 203.35ZM90.6055 201.359V199.051H88.6055V201.359H90.6055ZM90.6055 199.051C90.6055 198.71 90.5886 198.262 90.5569 197.716L88.5603 197.831C88.5911 198.363 88.6055 198.767 88.6055 199.051H90.6055ZM90.5569 197.716C90.5272 197.203 90.4974 196.796 90.4594 196.593L88.4937 196.962C88.4927 196.956 88.4956 196.972 88.501 197.02C88.5059 197.065 88.5117 197.125 88.518 197.202C88.5308 197.357 88.5449 197.566 88.5603 197.831L90.5569 197.716ZM90.4688 196.653C90.4174 196.242 90.1907 195.851 89.7749 195.627L88.8267 197.388C88.7417 197.343 88.6521 197.268 88.5833 197.162C88.5164 197.06 88.492 196.963 88.4843 196.901L90.4688 196.653ZM89.8249 195.656C89.6066 195.522 89.3761 195.472 89.2243 195.449C89.0547 195.423 88.8729 195.414 88.6914 195.414V197.414C88.7509 197.414 88.7999 197.416 88.8395 197.418C88.8794 197.42 88.9055 197.424 88.9202 197.426C88.9359 197.428 88.9309 197.429 88.9115 197.423C88.9011 197.419 88.8841 197.414 88.8623 197.404C88.8406 197.395 88.811 197.381 88.7767 197.359L89.8249 195.656ZM88.7033 195.414L87.7189 195.402L87.6951 197.402L88.6795 197.414L88.7033 195.414ZM88.3714 195.655L88.2659 195.561L86.9372 197.056L87.0427 197.15L88.3714 195.655ZM88.6016 196.309V195.805H86.6016V196.309H88.6016ZM88.3087 196.512L88.4024 196.418L86.9882 195.004L86.8945 195.098L88.3087 196.512ZM87.8149 196.704C89.3638 196.517 90.7111 196.209 91.8377 195.761L91.0998 193.903C90.1795 194.268 89.0112 194.545 87.5758 194.718L87.8149 196.704Z" fill="url(#paint4_linear)"/>
</g>
<g id="message2">
<path id="XMLID_14_" d="M122.619 93.8085H63.6796C39.7041 129.883 38.3721 131.326 43.256 93.8085H30.3803C23.0544 93.8085 17.0605 87.8146 17.0605 80.4888V42.5275C17.0605 35.2016 23.0544 29.2078 30.3803 29.2078H122.619C129.945 29.2078 135.939 35.2016 135.939 42.5275V80.4888C135.939 87.8146 129.945 93.8085 122.619 93.8085Z" fill="#AFAFAF"/>
</g>
<g id="message1">
<path id="XMLID_10_" d="M171.681 79.6007H161.247C164.244 109.348 164.244 109.348 141.268 79.6007H79.4418C72.116 79.6007 66.1221 73.6068 66.1221 66.281V28.3197C66.1221 20.9939 72.116 15 79.4418 15H171.681C179.007 15 185.001 20.9939 185.001 28.3197V66.281C185.001 73.6068 179.007 79.6007 171.681 79.6007Z" fill="#FF9900"/>
<path id="XMLID_13_" d="M102.751 52.8503C107.655 52.8503 111.631 48.8747 111.631 43.9705C111.631 39.0663 107.655 35.0907 102.751 35.0907C97.8467 35.0907 93.8711 39.0663 93.8711 43.9705C93.8711 48.8747 97.8467 52.8503 102.751 52.8503Z" fill="white"/>
<path id="XMLID_16_" d="M127.06 52.8503C131.964 52.8503 135.94 48.8747 135.94 43.9705C135.94 39.0663 131.964 35.0907 127.06 35.0907C122.156 35.0907 118.18 39.0663 118.18 43.9705C118.18 48.8747 122.156 52.8503 127.06 52.8503Z" fill="white"/>
<path id="XMLID_17_" d="M149.148 52.8503C154.052 52.8503 158.028 48.8747 158.028 43.9705C158.028 39.0663 154.052 35.0907 149.148 35.0907C144.244 35.0907 140.268 39.0663 140.268 43.9705C140.268 48.8747 144.244 52.8503 149.148 52.8503Z" fill="white"/>
</g>
</g>
<g id="phone">
<path id="XMLID_20_" d="M244.381 412.296C345.243 412.842 427.076 400.44 427.162 384.596C427.248 368.752 345.553 355.464 244.692 354.918C143.831 354.373 61.9974 366.774 61.9116 382.619C61.8258 398.463 143.52 411.75 244.381 412.296Z" fill="#C4C4C4"/>
<g id="wire">
<path id="XMLID_9_" d="M412.562 181.627C417.316 194.25 423.054 203.758 430.267 208.676C432.398 222.611 431.906 239.988 430.267 258.677C430.267 266.054 448.628 259.825 451.251 265.398C453.874 270.972 442.398 276.71 441.906 281.3C441.415 285.89 450.595 277.858 451.251 281.3C451.907 284.743 439.611 295.235 440.923 300.153C442.07 305.071 462.399 300.481 463.546 308.678C464.694 316.874 448.792 323.924 449.448 332.121C450.103 340.317 479.284 335.727 480.596 339.662C481.907 343.596 455.021 361.301 454.202 366.055C453.382 370.809 465.513 374.252 465.513 378.187C465.513 382.121 445.185 390.154 441.087 395.072C436.824 399.99 452.071 428.351 446.661 430.81C441.251 433.269 418.3 409.171 408.136 408.187C397.972 407.203 392.07 436.712 382.561 437.532C373.053 438.351 378.627 412.449 367.643 410.974C356.66 409.498 329.938 434.745 322.397 434.581C314.856 434.417 319.282 415.728 309.282 414.744C299.118 413.925 275.019 440.482 270.757 440.155C266.494 439.827 241.74 415.892 232.232 416.548C222.56 417.204 199.281 440.974 191.248 440.155C183.215 439.335 198.789 409.826 186.985 409.99C175.182 410.154 148.788 437.04 138.952 435.4C129.116 433.761 132.395 395.236 122.067 392.121C111.739 389.006 77.9676 416.22 71.2462 409.99C64.5248 403.761 72.0659 372.285 67.4757 365.727C62.8854 359.17 11.9012 361.957 11.9012 356.219C12.0652 350.481 65.0166 333.432 69.279 333.596C73.5413 333.76 98.7875 365.727 110.755 365.727C122.722 365.727 134.034 349.826 134.034 349.826V345.235C134.034 345.235 117.804 362.449 110.591 360.973C103.378 359.498 77.6397 328.842 69.7708 328.514C61.9018 328.022 -2.85307 346.383 0.0977863 357.531C3.04864 368.842 56.0001 363.268 61.2461 368.514C66.3281 373.76 57.8034 413.105 65.6724 416.712C73.5413 420.318 113.706 393.925 119.444 397.859C125.181 401.793 126.493 443.597 136.821 443.925C147.149 444.253 174.854 416.548 182.395 418.187C190.1 419.827 178.625 448.843 187.313 448.843C196.002 448.843 222.232 422.777 232.724 422.449C243.052 422.122 263.052 445.728 270.429 445.237C277.97 444.745 301.085 421.138 308.134 421.63C315.184 422.122 315.02 441.63 322.069 441.63C329.118 441.63 358.135 417.531 366.168 418.351C374.201 419.171 372.07 447.204 381.414 447.696C390.758 448.188 399.283 416.384 408.627 415.236C417.972 414.089 445.677 443.433 452.398 439.663C459.12 435.892 442.89 395.728 448.136 395.564C453.382 395.4 477.317 384.416 477.809 377.203C478.136 369.99 460.431 370.646 462.071 364.416C463.71 358.022 491.743 348.678 489.612 336.875C487.481 325.071 458.628 339.826 456.989 330.481C455.349 321.137 476.333 310.317 472.563 303.104C468.792 295.891 451.251 300.153 450.103 295.891C448.956 291.628 464.038 279.661 463.546 274.579C463.054 269.497 455.677 279.005 453.382 274.579C451.087 270.153 461.907 264.579 460.923 258.841C460.103 253.103 438.628 261.3 438.628 254.906L436.824 208.349C436.005 196.381 430.759 183.266 423.054 169.66L412.562 181.627Z" fill="url(#paint5_linear)"/>
</g>
<g id="tower">
<path id="XMLID_11_" d="M168.385 222.505L164.706 217.187C170.592 182.666 186.871 171.471 220.256 177.535L223.935 182.853C190.458 175.389 174.087 185.279 168.385 222.505Z" fill="url(#paint6_linear)"/>
<path id="XMLID_12_" d="M150.555 210.871L146.726 205.887C157.302 162.753 176.267 152.875 211.644 156.591L215.473 161.575C181.099 156.953 161.587 168.28 150.555 210.871Z" fill="url(#paint7_linear)"/>
</g>
<g id="phonecase">
<path id="XMLID_2_" d="M388.299 294.579L381.742 369.662C380.758 380.482 371.25 388.515 360.43 387.531L153.378 369.334C142.559 368.35 134.526 358.842 135.509 348.022L142.067 272.939C146.493 223.103 212.395 238.677 215.838 199.004C255.839 220.972 283.544 223.431 327.151 208.84C323.872 247.365 392.562 246.218 388.299 294.579Z" fill="url(#paint8_linear)"/>
<path id="XMLID_4_" d="M262.724 360.809C294.865 360.809 320.921 334.754 320.921 302.612C320.921 270.47 294.865 244.415 262.724 244.415C230.582 244.415 204.526 270.47 204.526 302.612C204.526 334.754 230.582 360.809 262.724 360.809Z" fill="white"/>
<path id="XMLID_6_" d="M262.724 345.071C286.173 345.071 305.183 326.062 305.183 302.612C305.183 279.162 286.173 260.152 262.724 260.152C239.274 260.152 220.264 279.162 220.264 302.612C220.264 326.062 239.274 345.071 262.724 345.071Z" fill="url(#paint9_linear)"/>
<path id="XMLID_8_" d="M371.049 388.604L153.374 369.396L152.538 378.868L370.213 398.075L371.049 388.604Z" fill="#420E97"/>
</g>
<g id="phonehandle">
<path id="XMLID_3_" d="M253.216 74.7403C253.216 74.7403 267.15 58.6745 270.593 56.3794C308.954 21.6249 406.332 109.823 370.594 151.299C364.201 161.135 353.217 169.659 353.217 169.659C353.217 169.659 383.217 199.332 384.693 198.84C405.677 190.643 421.579 177.037 430.267 155.069C448.136 96.3799 352.397 -11.3264 267.806 0.968869C243.708 8.18207 227.97 22.6085 224.035 47.035L253.216 74.7403Z" fill="url(#paint10_linear)"/>
<path id="XMLID_21_" d="M348.79 171.955L380.102 200.48L371.906 204.742L341.085 176.053L348.79 171.955Z" fill="url(#paint11_linear)"/>
<path id="XMLID_22_" d="M222.068 50.8057L251.576 77.1994L246.33 85.7241L218.133 60.314L222.068 50.8057Z" fill="url(#paint12_linear)"/>
</g>
</g>
</g>
<defs>
<linearGradient id="paint0_linear" x1="26" y1="167.75" x2="36.2497" y2="172.553" gradientUnits="userSpaceOnUse">
<stop offset="0.0395832" stop-color="#8251D1"/>
<stop offset="1" stop-color="#CF4DEF" stop-opacity="0.94"/>
</linearGradient>
<linearGradient id="paint1_linear" x1="110.513" y1="223.476" x2="68.4021" y2="142.967" gradientUnits="userSpaceOnUse">
<stop offset="0.0395832" stop-color="#8251D1"/>
<stop offset="1" stop-color="#CF4DEF" stop-opacity="0.94"/>
</linearGradient>
<linearGradient id="paint2_linear" x1="268.326" y1="316.909" x2="120.809" y2="101.801" gradientUnits="userSpaceOnUse">
<stop offset="0.0395832" stop-color="#8251D1"/>
<stop offset="1" stop-color="#CF4DEF" stop-opacity="0.94"/>
</linearGradient>
<linearGradient id="paint3_linear" x1="37" y1="196.5" x2="60.7986" y2="227.044" gradientUnits="userSpaceOnUse">
<stop offset="0.0395832" stop-color="#8251D1"/>
<stop offset="1" stop-color="#CF4DEF" stop-opacity="0.94"/>
</linearGradient>
<linearGradient id="paint4_linear" x1="37" y1="196.5" x2="60.7986" y2="227.044" gradientUnits="userSpaceOnUse">
<stop offset="0.0395832" stop-color="#8251D1"/>
<stop offset="1" stop-color="#CF4DEF" stop-opacity="0.94"/>
</linearGradient>
<linearGradient id="paint5_linear" x1="489.406" y1="342.02" x2="241.046" y2="72.8444" gradientUnits="userSpaceOnUse">
<stop offset="0.0395832" stop-color="#8251D1"/>
<stop offset="1" stop-color="#CF4DEF" stop-opacity="0.94"/>
</linearGradient>
<linearGradient id="paint6_linear" x1="164.706" y1="199.237" x2="208.397" y2="225.292" gradientUnits="userSpaceOnUse">
<stop offset="0.0395832" stop-color="#8251D1"/>
<stop offset="1" stop-color="#CF4DEF" stop-opacity="0.94"/>
</linearGradient>
<linearGradient id="paint7_linear" x1="146.726" y1="183.372" x2="197.914" y2="213.353" gradientUnits="userSpaceOnUse">
<stop offset="0.0395832" stop-color="#8251D1"/>
<stop offset="1" stop-color="#CF4DEF" stop-opacity="0.94"/>
</linearGradient>
<linearGradient id="paint8_linear" x1="366.189" y1="395.432" x2="247.21" y2="192.002" gradientUnits="userSpaceOnUse">
<stop stop-color="#420E97"/>
<stop offset="1" stop-color="#7C0E97" stop-opacity="0.94"/>
</linearGradient>
<linearGradient id="paint9_linear" x1="220.264" y1="302.612" x2="289.896" y2="335.238" gradientUnits="userSpaceOnUse">
<stop offset="0.0395832" stop-color="#8251D1"/>
<stop offset="1" stop-color="#CF4DEF" stop-opacity="0.94"/>
</linearGradient>
<linearGradient id="paint10_linear" x1="416.957" y1="178.613" x2="333.577" y2="-22.0396" gradientUnits="userSpaceOnUse">
<stop offset="0.0395832" stop-color="#8251D1"/>
<stop offset="1" stop-color="#CF4DEF" stop-opacity="0.94"/>
</linearGradient>
<linearGradient id="paint11_linear" x1="380.102" y1="196.908" x2="324.867" y2="158.961" gradientUnits="userSpaceOnUse">
<stop stop-color="#420E97"/>
<stop offset="1" stop-color="#7C0E97" stop-opacity="0.94"/>
</linearGradient>
<linearGradient id="paint12_linear" x1="251.576" y1="77.3814" x2="198.203" y2="47.87" gradientUnits="userSpaceOnUse">
<stop stop-color="#420E97"/>
<stop offset="1" stop-color="#7C0E97" stop-opacity="0.94"/>
</linearGradient>
</defs>
</svg>
