<svg width="80" height="53" viewBox="0 0 80 53" fill="none" xmlns="http://www.w3.org/2000/svg">
<rect width="80" height="53" rx="5" fill="white"/>
<path d="M1.51943 0.645485C1.04749 0.358613 0.432356 0.508638 0.145485 0.980573C-0.141387 1.45251 0.00863773 2.06764 0.480573 2.35452L1.51943 0.645485ZM39.6601 25L39.1407 25.8545L39.6589 26.1695L40.1778 25.8556L39.6601 25ZM79.0177 2.35558C79.4902 2.06968 79.6415 1.45486 79.3556 0.982332C79.0697 0.509807 78.4549 0.358518 77.9823 0.644419L79.0177 2.35558ZM0.480573 2.35452L39.1407 25.8545L40.1796 24.1455L1.51943 0.645485L0.480573 2.35452ZM40.1778 25.8556L79.0177 2.35558L77.9823 0.644419L39.1425 24.1444L40.1778 25.8556Z" fill="url(#paint0_linear)"/>
<defs>
<linearGradient id="paint0_linear" x1="-59.5" y1="30.5" x2="-38.3125" y2="-41.5264" gradientUnits="userSpaceOnUse">
<stop offset="3.94624e-07" stop-color="#F15A29"/>
<stop offset="1" stop-color="#FBB040"/>
</linearGradient>
</defs>
</svg>
