<svg width="445" height="329" viewBox="0 0 445 329" fill="none" xmlns="http://www.w3.org/2000/svg">
<g id="man">
<path id="XMLID-18" d="M116.133 264.276C115.265 264.379 115.851 259.182 113.138 258.707C109.158 257.96 94.479 258.765 92.2239 259.015C90.5736 259.227 76.0113 260.73 71.2866 264.995C66.5619 269.26 40.6572 279.314 40.6572 279.314C37.1312 280.408 35.758 282.534 37.7059 283.979C41.1096 286.572 50.8313 290.786 52.5398 290.922C58.0786 291.536 58.7788 290.303 67.358 287.291C67.358 287.291 78.5989 284.32 83.0003 287.336C87.3096 290.431 116.133 264.276 116.133 264.276Z" fill="black"/>
<path id="XMLID-17" d="M63.9102 268.463C63.9102 268.463 37.6371 289.596 20.494 290.044C20.494 290.044 8.25025 290.501 5.71587 288.865C3.09607 287.222 -2.1632 293.876 5.08661 296.749C12.3288 299.717 38.3124 301.599 47.0291 300.096C47.0291 300.096 66.7637 302.723 68.5894 299.236C70.4151 295.749 85.7784 270.208 85.7784 270.208L63.9102 268.463Z" fill="black"/>
<path id="XMLID-12" d="M246.485 212.647C246.485 212.647 188.293 125.303 172.882 120.204C157.471 115.106 74.8948 257.67 56.8033 261.384C56.8033 261.384 67.7878 275.837 83.4282 283.447C83.4282 283.447 169.592 176.508 171.019 169.4C172.36 162.286 220.707 242.655 230.547 256.163L246.485 212.647Z" fill="#420E97"/>
<path id="XMLID-16" d="M239.128 249.97C239.128 249.97 115.232 262.779 93.0449 262.38C77.0979 262.093 73.2489 301.704 98.149 300.796C115.796 300.165 216.022 306.422 231.926 303.467C247.83 300.512 289.339 305.555 285.5 288C276.316 246 239.128 249.97 239.128 249.97Z" fill="#420E97"/>
<path id="XMLID-14" d="M235.503 232.832C235.503 232.832 232.206 234.288 231.975 237.193C231.743 240.097 235.431 285.438 288.594 283.921L288.676 266.734L235.503 232.832Z" fill="white"/>
<g id="face">
<path id="XMLID-7" d="M269.071 73.9798L273.431 89.3719C273.431 89.3719 300.675 79.7688 302.3 74.4827L292.077 57.1612L269.071 73.9798Z" fill="#EDA97A"/>
<path id="XMLID-5" d="M259.088 27.7926C259.088 27.7926 253.672 25.641 254.962 18.093C254.962 18.093 257.273 21.4581 259.62 21.1297C259.62 21.1297 255.837 17.9049 257.865 11.8772C257.865 11.8772 258.495 14.7643 261.765 15.799C261.765 15.799 261.152 11.6237 262.099 11.6133C262.099 11.6133 263.138 13.6734 264.768 13.7176C264.768 13.7176 266.862 12.2513 266.944 11.2263C266.944 11.2263 268.143 12.3536 270.105 11.4785C270.105 11.4785 277.864 7.97136 281.79 9.40229C281.79 9.40229 285.299 9.59639 285.268 6.75699C285.268 6.75699 286.539 5.91279 288.842 9.36338C288.842 9.36338 291.005 7.04293 289.853 5.31763C289.853 5.31763 293.56 7.33288 293.141 9.36257C293.141 9.36257 294.845 6.31784 294.069 4.1927C294.004 3.92962 293.768 3.65289 293.618 3.38299C291.882 1.43913 300.845 6.5388 301.864 13.1536C301.864 13.1536 306.142 11.2599 305.499 8.54362C305.499 8.54362 308.766 10.6956 309.03 17.0782C309.03 17.0782 313.028 16.5376 313.014 14.5593C313.014 14.5593 315.014 18.5874 314.047 21.0033C314.047 21.0033 319.49 22.8132 319.16 25.8816C319.16 25.8816 315.045 23.576 316.221 26.0769C316.221 26.0769 322.773 35.5403 317.346 48.604C317.346 48.604 314.795 53.6443 315.543 56.1111C315.543 56.1111 313.914 56.067 313.558 54.0614C313.558 54.0614 312.78 59.5012 313.361 60.8371C313.361 60.8371 311.573 58.4593 309.995 58.8491C309.995 58.8491 309.244 63.9472 310.611 66.2054C310.611 66.2054 310.109 64.9618 307.266 63.9612C307.266 63.9612 308.859 67.6989 308.272 70.7469C308.272 70.7469 307.516 68.3655 305.039 68.1678C305.039 68.1678 302.648 74.4245 304.286 78.6816L302.167 77.223L301.996 79.3585C301.996 79.3585 297.499 75.389 295.247 72.3723C295.247 72.3723 292.736 76.9001 293.711 78.6972C293.711 78.6972 289.428 73.1115 289.604 64.4429C289.604 64.4429 286.958 54.5174 288.757 45.9784C288.757 45.9784 289.662 42.1821 281.706 34.154C273.75 26.1259 277.633 19.4725 277.633 19.4725C277.633 19.4725 273.685 25.8628 271.047 26.5979C268.502 27.2544 259.649 29.3848 259.088 27.7926Z" fill="#3C2415"/>
<path id="XMLID-4" d="M293.497 45.841C293.497 45.841 302.855 41.6877 297.752 56.0668C297.752 56.0668 290.476 65.3723 287.489 59.7179L287.107 64.5016C287.107 64.5016 280.04 76.5747 262.856 75.3752C262.856 75.3752 258.319 76.2165 259.684 67.7288C259.684 67.7288 258.977 66.8987 258.553 65.7473C257.404 62.9047 262.031 63.102 263.004 62.7499C263.004 62.7499 255.094 61.6887 259.026 58.7358C259.026 58.7358 260.752 57.584 259.692 55.7801C259.692 55.7801 255.858 54.2706 255.011 54.117C253.999 53.8643 251.467 52.2008 253.582 50.4783C256.619 47.9698 259.137 45.5057 259.04 42.4033C258.944 39.3008 257.129 32.9663 259.981 28.4657C259.981 28.4657 274.793 29.2181 277.713 19.5649C277.713 19.5649 274.372 24.8002 281.805 33.9901C281.805 33.9901 288.869 41.3453 288.857 45.8145C288.863 45.7291 291.01 48.9952 293.497 45.841Z" fill="#EDA97A"/>
</g>
<path id="XMLID-8" d="M303.127 74.8926C303.127 74.8926 309.183 83.0269 310.752 85.9891C310.981 86.3512 311.046 86.6143 311.118 86.7919C311.422 88.3636 281.268 102.119 281.268 102.119L253.258 149.314C253.258 149.314 254.534 135.489 256.604 133.247C258.667 131.091 276.436 100.186 274.172 91.9242C271.902 83.7481 278.141 83.1285 278.141 83.1285L303.127 74.8926Z" fill="white"/>
<path id="XMLID-9" d="M257.615 94.7291C257.615 94.7291 177.436 101.913 178.931 107.964C178.931 107.964 172.239 117.488 180.62 133.115C189.001 148.742 199.951 162.339 199.951 162.339C199.951 162.339 202.241 165.96 200.232 167.433C198.223 168.906 196.061 171.227 201.138 186.246C201.138 186.246 202.53 191.43 200.508 197.372C200.508 197.372 202.413 190.733 201.009 190.019C199.604 189.305 198.743 187.173 198.078 194.427C197.413 201.681 200.349 204.752 201.554 201.496C201.554 201.496 202.69 208.808 206.633 206.801C206.633 206.801 208.51 212.367 212.021 207.145C212.021 207.145 214.692 201.685 214.692 199.535C214.691 197.386 214.816 206.595 215.008 208.501C215.199 210.408 220.66 210.93 220.683 207.407C220.621 203.877 224.47 197.651 220.419 187.012C216.368 176.372 216.497 172.6 216.497 172.6C216.497 172.6 216.302 167.512 213.599 165.835C213.599 165.835 206.527 154.267 204.187 138.348C204.187 138.348 200.707 128.099 201.208 125.044C201.208 125.044 209.132 125.934 223.654 124.944C223.654 124.944 260.507 119.89 262.373 120.211C264.252 120.361 257.615 94.7291 257.615 94.7291Z" fill="#EDA97A"/>
<path id="XMLID-6" d="M273.115 84.7046L269.347 87.7566L269.136 90.4047L255.937 93.1338C255.937 93.1338 263.296 123.724 261.363 128.555C259.344 133.38 281.902 94.1745 281.902 94.1745L273.115 84.7046Z" fill="white"/>
<path id="XMLID-13" d="M308.576 86.3312C308.576 86.3312 320.615 95.9747 321.738 107.756C322.861 119.537 324.109 142.676 322.36 165.661C322.36 165.661 301.305 196.82 300.588 219.802C299.878 242.698 297.15 270.42 289.534 272.133C289.534 272.133 248.821 284.615 232.383 232.067C232.383 232.067 243.823 212.606 245.161 206.609C246.499 200.613 251.653 152.195 253.252 149.4C254.936 146.611 259.741 132.724 259.741 132.724L285.851 92.0826L308.576 86.3312Z" fill="#F15A29"/>
<path id="XMLID-15" d="M115.604 270.131L118.514 261.856C118.514 261.856 99.9769 263.822 97.5542 265.998C95.1315 268.174 92.6322 272.282 92.6322 272.282L115.604 270.131Z" fill="#420E97"/>
<path id="XMLID-11" d="M299.911 142.12C299.911 142.12 319.231 182.261 320.995 190.31C322.767 198.275 333.936 233.897 341.801 248.451C349.666 263.005 359.973 290.048 361.057 294.777C362.141 299.505 363.221 301.053 366.758 303.055C370.295 305.056 379.35 307.928 383.44 307.309C383.44 307.309 391.831 307.721 394.685 309.668C397.774 311.892 403.046 311.539 403.265 310.954C403.49 310.285 403.955 308.774 398.539 306.623C391.711 303.843 391.548 305.893 388.034 302.518C384.436 299.136 404.405 303.136 404.405 303.136C404.405 303.136 418.254 307.337 422.894 309.512C430.764 313.235 432.062 309.9 430.507 308.916C425.836 306.05 418.598 304.097 414.706 302.239C411.234 300.501 425.029 305.384 425.029 305.384C422.322 300.526 390.178 292.889 374.474 291.463C374.474 291.463 367.494 291.68 366.401 276.29C365.188 259.172 355.841 213.638 348.964 202.859C342.173 192.087 341.936 164.902 340.329 161.335C338.722 157.768 336.556 136.448 331.085 132.83L299.911 142.12Z" fill="#EDA97A"/>
<path id="XMLID-10" d="M298.165 145.677C298.165 145.677 299.126 145.496 300.619 145.099C307.722 143.345 327.986 138.257 333.254 134.723C333.254 134.723 326.743 106.436 321.911 102.354C317.079 98.2714 294.165 94.5514 290.844 111.394C287.522 128.236 298.165 145.677 298.165 145.677Z" fill="white"/>
</g>
</svg>
