<svg width="52" height="33" viewBox="0 0 52 33" fill="none" xmlns="http://www.w3.org/2000/svg">
<path id="behance" d="M20.6651 14.4137C23.5041 13.0624 24.9783 11.015 24.9783 7.82106C24.9783 1.52872 20.2965 0 14.8778 0H0V31.5709H15.3009C21.0336 31.5709 26.4251 28.8137 26.4251 22.3985C26.4387 18.4402 24.5551 15.5056 20.6651 14.4137ZM6.9475 5.37783H13.4582C15.9561 5.37783 18.2218 6.0876 18.2218 8.98125C18.2218 11.6565 16.4611 12.7348 13.9906 12.7348H6.9475C6.9475 12.7485 6.9475 5.37783 6.9475 5.37783ZM14.3591 26.2067H6.93386V17.5121H14.4956C17.553 17.5121 19.4912 18.7815 19.4912 22.0164C19.4912 25.2103 17.1845 26.2067 14.3591 26.2067ZM46.2985 4.76361H33.4954V1.65156H46.2985V4.76361ZM51.3214 20.4603C51.3214 13.7039 47.3631 8.0531 40.1973 8.0531C33.2361 8.0531 28.4998 13.2944 28.4998 20.1464C28.4998 27.2713 32.9768 32.1442 40.1973 32.1442C45.657 32.1442 49.1922 29.6873 50.8983 24.4596H45.3567C44.7561 26.4114 42.2992 27.4488 40.3883 27.4488C36.703 27.4488 34.7785 25.2922 34.7785 21.6342H51.2669C51.2942 21.2656 51.3214 20.8698 51.3214 20.4603ZM34.7785 17.6895C34.9832 14.6867 36.976 12.8031 39.9925 12.8031C43.1455 12.8031 44.7288 14.6594 45.0018 17.6895H34.7785Z" fill="white"/>
</svg>
