<svg width="8" height="8" viewBox="0 0 8 8" fill="none" xmlns="http://www.w3.org/2000/svg">
<path d="M4 1C2.34242 1 1 2.34317 1 4C1 5.65683 2.34242 7 4 7C5.65758 7 7 5.65683 7 4C7 2.34317 5.65758 1 4 1ZM5.29091 5.17547C5.01818 5.50776 4.65758 5.67391 4.20606 5.67391C3.74394 5.67391 3.3697 5.51242 3.08333 5.18944C2.80303 4.87733 2.66364 4.48292 2.66364 4.00621C2.66364 3.54503 2.8 3.15373 3.07424 2.8323C3.35909 2.49534 3.72273 2.32764 4.16364 2.32764C4.64242 2.32764 5.01818 2.47826 5.29091 2.78106C5.32121 2.81366 5.33485 2.84472 5.33485 2.86957C5.33485 2.89907 5.28333 3.00466 5.1803 3.19099C5.07727 3.37578 5.01212 3.47981 4.98636 3.50311C4.97424 3.51553 4.95909 3.52174 4.94242 3.52174C4.93485 3.52174 4.89848 3.49068 4.83182 3.43012C4.75152 3.35714 4.67273 3.30124 4.59697 3.25932C4.4803 3.19876 4.35909 3.1677 4.23333 3.1677C4.01515 3.1677 3.84242 3.25155 3.71212 3.4177C3.59242 3.57298 3.53182 3.76397 3.53182 3.99068C3.53182 4.2205 3.59242 4.4146 3.71212 4.57143C3.84242 4.74068 4.01667 4.82609 4.23333 4.82609C4.36212 4.82609 4.48485 4.79658 4.6 4.73913C4.67576 4.70186 4.75303 4.64752 4.8303 4.57919C4.89545 4.52174 4.93182 4.49224 4.93939 4.49224C4.95455 4.49224 4.9697 4.5 4.98333 4.51708C5.00758 4.54503 5.07121 4.63975 5.17576 4.80124C5.28333 4.96894 5.33788 5.06211 5.33788 5.07919C5.33788 5.10404 5.32121 5.13509 5.29091 5.17547Z" fill="white" stroke="white" stroke-width="0.1" stroke-miterlimit="10"/>
</svg>
