<svg width="33" height="33" viewBox="0 0 33 33" fill="none" xmlns="http://www.w3.org/2000/svg">
<path id="instagram" d="M16.0757 7.83072C11.5149 7.83072 7.83615 11.5103 7.83615 16.0721C7.83615 20.6339 11.5149 24.3134 16.0757 24.3134C20.6364 24.3134 24.3152 20.6339 24.3152 16.0721C24.3152 11.5103 20.6364 7.83072 16.0757 7.83072ZM16.0757 21.43C13.1284 21.43 10.7189 19.0272 10.7189 16.0721C10.7189 13.117 13.1212 10.7141 16.0757 10.7141C19.0301 10.7141 21.4324 13.117 21.4324 16.0721C21.4324 19.0272 19.023 21.43 16.0757 21.43ZM26.5741 7.49361C26.5741 8.56233 25.7135 9.41587 24.6522 9.41587C23.5837 9.41587 22.7304 8.55516 22.7304 7.49361C22.7304 6.43206 23.5909 5.57134 24.6522 5.57134C25.7135 5.57134 26.5741 6.43206 26.5741 7.49361ZM32.0312 9.44456C31.9093 6.86959 31.3213 4.58869 29.4353 2.70946C27.5565 0.830232 25.2761 0.242076 22.7017 0.112969C20.0484 -0.0376563 12.0957 -0.0376563 9.44246 0.112969C6.87523 0.234904 4.59484 0.823059 2.70886 2.70229C0.822876 4.58152 0.242022 6.86242 0.112944 9.43739C-0.0376479 12.0913 -0.0376479 20.0457 0.112944 22.6996C0.234851 25.2746 0.822876 27.5555 2.70886 29.4347C4.59484 31.3139 6.86806 31.9021 9.44246 32.0312C12.0957 32.1818 20.0484 32.1818 22.7017 32.0312C25.2761 31.9093 27.5565 31.3211 29.4353 29.4347C31.3141 27.5555 31.9021 25.2746 32.0312 22.6996C32.1818 20.0457 32.1818 12.0984 32.0312 9.44456ZM28.6035 25.5471C28.0441 26.953 26.9613 28.036 25.5486 28.6027C23.4331 29.4419 18.4134 29.2482 16.0757 29.2482C13.7379 29.2482 8.71101 29.4347 6.60273 28.6027C5.19721 28.0432 4.11438 26.9601 3.54787 25.5471C2.70886 23.4312 2.90248 18.4104 2.90248 16.0721C2.90248 13.7338 2.71603 8.70578 3.54787 6.59703C4.10721 5.19119 5.19003 4.10812 6.60273 3.54149C8.71818 2.70229 13.7379 2.89595 16.0757 2.89595C18.4134 2.89595 23.4403 2.70946 25.5486 3.54149C26.9541 4.10095 28.0369 5.18402 28.6035 6.59703C29.4425 8.71296 29.2489 13.7338 29.2489 16.0721C29.2489 18.4104 29.4425 23.4384 28.6035 25.5471Z" fill="white"/>
</svg>
