<svg width="32" height="32" viewBox="0 0 32 32" fill="none" xmlns="http://www.w3.org/2000/svg">
<path id="messenger" d="M16.0323 0C7 0 0 6.60115 0 15.5253C0 20.1906 1.91613 24.2236 5.03871 27.0047C5.57419 27.4887 5.46452 27.7726 5.55484 30.7602C5.58065 31.47 6.17419 32.0249 6.88387 31.9991C7.04516 31.9927 7.20645 31.9604 7.35484 31.8894C10.7677 30.386 10.8129 30.2698 11.3935 30.4247C21.2839 33.1477 32 26.8176 32 15.5188C32 6.60115 25.071 0 16.0323 0ZM25.6645 11.944L20.9548 19.4034C20.2387 20.5262 18.7548 20.8617 17.6258 20.1455C17.5742 20.1132 17.5226 20.0809 17.4774 20.0422L13.729 17.2353C13.3871 16.9772 12.9097 16.9772 12.5677 17.2353L7.50968 21.0682C6.83226 21.578 5.94839 20.7714 6.40645 20.0551L11.1161 12.5957C11.8258 11.473 13.3161 11.1374 14.4452 11.8472C14.4968 11.8795 14.5484 11.9182 14.6 11.9505L18.3484 14.7574C18.6903 15.0155 19.1677 15.0155 19.5097 14.7574L24.5677 10.9245C25.2323 10.4212 26.1161 11.2278 25.6645 11.944Z" fill="white"/>
</svg>
