<svg width="64" height="64" viewBox="0 0 64 64" fill="none" xmlns="http://www.w3.org/2000/svg">
<g clip-path="url(#clip0_32_135)">
<path d="M11.3333 0.800049H52.6666C58.9258 0.800049 64 5.8742 64 12.1333V51.8667C64 58.1259 58.9258 63.2001 52.6666 63.2001H11.3333C5.07416 63.1999 0 58.1259 0 51.8667V12.1333C0 5.87408 5.07416 0.800049 11.3333 0.800049V0.800049Z" fill="#00005B"/>
<path d="M25.7106 38.1333H15.7928L13.7751 44.4136C13.7185 44.6494 13.5021 44.8116 13.2598 44.8H8.23665C7.95022 44.8 7.84999 44.6425 7.93609 44.3277L16.5228 19.7003C16.6086 19.4427 16.6945 19.1909 16.7803 18.8615C16.8928 18.2887 16.9503 17.7065 16.9521 17.1228C16.9314 16.9774 17.0324 16.8428 17.1777 16.8222C17.2026 16.8187 17.2277 16.8187 17.2526 16.8222H24.0791C24.2789 16.8222 24.3935 16.8938 24.4226 17.0369L34.1684 44.3706C34.2543 44.657 34.1684 44.8002 33.9109 44.8H28.3294C28.1311 44.822 27.9473 44.6934 27.9002 44.4994L25.7106 38.1333ZM20.7301 21.7182H20.6872L17.3385 32.8379H24.122L20.7301 21.7182Z" fill="#9999FF"/>
<path d="M49.9683 35.6889H41.5105C41.6141 36.5257 41.892 37.3316 42.3263 38.0543C42.8064 38.77 43.4854 39.3297 44.2797 39.6643C45.3562 40.1301 46.5204 40.3583 47.693 40.3333C48.6233 40.3154 49.5502 40.2137 50.4622 40.0292C51.2779 39.9191 52.0773 39.7107 52.8431 39.4086C52.986 39.2947 53.0578 39.3658 53.0578 39.6233V43.702C53.065 43.8131 53.0427 43.9242 52.9934 44.024C52.9442 44.1021 52.8781 44.1681 52.8002 44.2172C51.9509 44.5934 51.0569 44.8597 50.1403 45.0097C48.895 45.2436 47.6291 45.3515 46.3622 45.3317C44.3296 45.3317 42.6265 45.0169 41.253 44.3872C39.9547 43.8152 38.808 42.9478 37.9044 41.8542C37.0602 40.8237 36.4323 39.6336 36.0582 38.3551C35.6876 37.0932 35.4997 35.7848 35.5001 34.4697C35.4961 33.0337 35.7208 31.6061 36.1655 30.2408C36.5939 28.9089 37.2714 27.6706 38.1619 26.5915C40.1244 24.2135 42.8254 23.2225 45.8469 23.2225C48.4507 23.2225 51.1216 24.0848 52.8021 26.1621C53.5055 27.0697 54.0432 28.0944 54.3906 29.1889C54.7289 30.2436 54.9026 31.3441 54.9059 32.4518C54.9059 33.0817 54.8844 33.6542 54.8414 34.1692C54.7985 34.6843 54.7628 35.0564 54.7342 35.2854C54.7111 35.4813 54.545 35.6289 54.3478 35.6289C54.1761 35.6289 53.8826 35.6504 53.4677 35.6933C53.0525 35.7362 52.5373 35.7648 51.9222 35.7791C51.3059 35.7936 50.6553 35.6889 49.9683 35.6889V35.6889ZM41.5105 31.7777H47.1348C47.8217 31.7777 48.3297 31.7706 48.6589 31.7562C48.8791 31.7342 49.0918 31.6638 49.2816 31.5499V31.2922C49.273 30.9564 49.2151 30.6238 49.1099 30.3048C48.6338 28.7993 47.2102 27.7976 45.6324 27.8577C44.156 27.7684 42.7664 28.56 42.0903 29.8754C41.7959 30.4743 41.6002 31.1166 41.5105 31.7777Z" fill="#9999FF"/>
</g>
<defs>
<clipPath id="clip0_32_135">
<rect width="64" height="64" fill="white"/>
</clipPath>
</defs>
</svg>
