<svg width="64" height="64" viewBox="0 0 64 64" fill="none" xmlns="http://www.w3.org/2000/svg">
<g clip-path="url(#clip0_32_127)">
<path d="M11.3334 0.800049H52.6668C58.9334 0.800049 64 5.86667 64 12.1334V51.8668C64 58.1334 58.9334 63.2002 52.6666 63.2002H11.3334C5.06663 63.2001 0 58.1334 0 51.8667V12.1334C0 5.86667 5.06663 0.800049 11.3334 0.800049V0.800049Z" fill="#390000"/>
<path d="M31.0133 38.2401H21.0933L19.0667 44.5067C19.0133 44.7467 18.8001 44.9067 18.5601 44.8801H13.5467C13.2533 44.8801 13.1733 44.7201 13.2533 44.4001L21.84 19.6801C21.92 19.4134 22 19.1201 22.1066 18.8001C22.2132 18.2401 22.2666 17.6534 22.2666 17.0667C22.24 16.9333 22.3466 16.8001 22.48 16.7733H22.56H29.3866C29.6 16.7733 29.7066 16.8533 29.7332 16.9867L39.4666 44.4533C39.5466 44.7467 39.4666 44.8799 39.2 44.8799H33.6266C33.44 44.9066 33.2532 44.7733 33.2 44.5866L31.0133 38.2401ZM22.64 32.8267H29.4133L26 21.7067L22.64 32.8267Z" fill="#FF9A00"/>
<path d="M45.2801 21.3334C44.4001 21.36 43.5467 21.0134 42.9067 20.4C42.2933 19.7334 41.9733 18.8534 42.0001 17.9466C41.9735 17.04 42.3201 16.1866 42.9601 15.5733C43.6001 14.9599 44.4535 14.6399 45.3335 14.6399C46.3735 14.6399 47.1735 14.9599 47.7601 15.5733C48.3467 16.2133 48.6667 17.0666 48.6401 17.9466C48.6667 18.8533 48.3467 19.7333 47.7067 20.4C47.0935 21.04 46.1867 21.3866 45.2801 21.3334V21.3334Z" fill="#FF9A00"/>
<path d="M42.2935 44.48V23.9466C42.2935 23.68 42.4001 23.5732 42.6401 23.5732H47.9201C48.1601 23.5732 48.2667 23.7066 48.2667 23.9466V44.48C48.2667 44.7734 48.1601 44.9066 47.9201 44.9066H42.6935C42.4267 44.9066 42.2935 44.7466 42.2935 44.48V44.48Z" fill="#FF9A00"/>
</g>
<defs>
<clipPath id="clip0_32_127">
<rect width="64" height="64" fill="white"/>
</clipPath>
</defs>
</svg>
