<svg width="32" height="32" viewBox="0 0 32 32" fill="none" xmlns="http://www.w3.org/2000/svg">
<path fill-rule="evenodd" clip-rule="evenodd" d="M23.65 16.1333C23.65 16.6856 23.2022 17.1333 22.65 17.1333H9.31665C8.76437 17.1333 8.31665 16.6856 8.31665 16.1333C8.31665 15.581 8.76437 15.1333 9.31665 15.1333H22.65C23.2022 15.1333 23.65 15.581 23.65 16.1333Z" fill="white"/>
<path fill-rule="evenodd" clip-rule="evenodd" d="M21.6777 15.909L16.6289 11.1259C16.228 10.746 16.2109 10.1131 16.5906 9.71216C16.9705 9.31123 17.6034 9.29412 18.0044 9.67395L23.0809 14.4832L23.0904 14.4928C23.8809 15.2834 23.8809 16.5831 23.0904 17.3736L23.081 17.3831L18.0142 22.3164C17.6186 22.7016 16.9854 22.6932 16.6002 22.2975C16.2149 21.9018 16.2233 21.2687 16.619 20.8834L21.6769 15.9587C21.6788 15.9563 21.6833 15.949 21.6833 15.9332C21.6833 15.9195 21.6798 15.9122 21.6777 15.909Z" fill="white"/>
</svg>
