<svg width="40" height="40" viewBox="0 0 40 40" fill="none" xmlns="http://www.w3.org/2000/svg">
<path d="M13.005 9.55176C13.9867 9.55176 14.87 9.63676 15.68 9.81009C16.485 9.98176 17.1717 10.2651 17.7517 10.6568C18.3234 11.0484 18.77 11.5684 19.0917 12.2218C19.4034 12.8668 19.5584 13.6734 19.5584 14.6268C19.5584 15.6601 19.325 16.5234 18.8567 17.2118C18.385 17.9018 17.69 18.4668 16.7634 18.9034C18.025 19.2684 18.96 19.9068 19.58 20.8134C20.2034 21.7284 20.5084 22.8234 20.5084 24.1068C20.5084 25.1484 20.31 26.0434 19.9117 26.7951C19.5279 27.5356 18.971 28.1725 18.2884 28.6518C17.5813 29.1441 16.7916 29.5054 15.9567 29.7184C15.0814 29.9482 14.18 30.0636 13.275 30.0618H3.33337V9.55176H13.005ZM12.42 17.8384C13.22 17.8384 13.8834 17.6484 14.4067 17.2634C14.9267 16.8834 15.1784 16.2568 15.1784 15.3984C15.1784 14.9218 15.0934 14.5284 14.9267 14.2201C14.7643 13.9235 14.524 13.6768 14.2317 13.5068C13.9258 13.3253 13.5881 13.2037 13.2367 13.1484C12.8537 13.077 12.4646 13.0429 12.075 13.0468H7.85004V17.8384H12.42V17.8384ZM12.6717 26.5701C13.1167 26.5701 13.54 26.5318 13.9384 26.4418C14.34 26.3551 14.6967 26.2151 15 26.0068C15.3034 25.8068 15.5534 25.5351 15.7334 25.1884C15.915 24.8451 16.0034 24.3968 16.0034 23.8584C16.0034 22.8018 15.705 22.0501 15.115 21.5951C14.5234 21.1451 13.73 20.9218 12.7584 20.9218H7.85004V26.5718H12.6717V26.5701ZM26.9467 26.5018C27.5584 27.0984 28.44 27.3984 29.5867 27.3984C30.4084 27.3984 31.1184 27.1901 31.7167 26.7768C32.3067 26.3618 32.6667 25.9184 32.805 25.4601H36.3967C35.82 27.2468 34.945 28.5234 33.7484 29.2918C32.5667 30.0634 31.1284 30.4468 29.4484 30.4468C28.2784 30.4468 27.225 30.2584 26.2817 29.8851C25.3763 29.5325 24.558 28.9877 23.8834 28.2884C23.2199 27.5728 22.7069 26.7311 22.375 25.8134C22.0102 24.7986 21.8296 23.7268 21.8417 22.6484C21.8417 21.5384 22.0267 20.5001 22.39 19.5418C22.7349 18.6154 23.2646 17.7688 23.9467 17.0534C24.6217 16.3534 25.4217 15.8018 26.3534 15.3968C27.3331 14.9847 28.3873 14.7793 29.45 14.7934C30.7067 14.7934 31.805 15.0368 32.7484 15.5268C33.6632 15.9945 34.4564 16.669 35.065 17.4968C35.67 18.3184 36.1017 19.2601 36.37 20.3151C36.6384 21.3684 36.7317 22.4684 36.655 23.6201H25.9367C25.9384 24.7934 26.3334 25.9051 26.9467 26.5018V26.5018ZM31.6334 18.7001C31.1484 18.1634 30.3284 17.8734 29.325 17.8734C28.6734 17.8734 28.135 17.9818 27.7017 18.2051C27.3055 18.4052 26.954 18.6836 26.6684 19.0234C26.4176 19.332 26.2316 19.688 26.1217 20.0701C26.0256 20.3887 25.9636 20.7167 25.9367 21.0484H32.5734C32.4767 20.0084 32.12 19.2401 31.6334 18.7001V18.7001ZM25.1034 10.9284H33.4184V12.9534H25.1034V10.9284Z" fill="white"/>
</svg>
