<svg width="32" height="32" viewBox="0 0 32 32" fill="none" xmlns="http://www.w3.org/2000/svg">
<g clip-path="url(#clip0_24_13508)">
<path d="M27.6364 0H4.36364C1.95367 0 0 1.95367 0 4.36364V27.6364C0 30.0463 1.95367 32 4.36364 32H27.6364C30.0463 32 32 30.0463 32 27.6364V4.36364C32 1.95367 30.0463 0 27.6364 0Z" fill="#1D70FA"/>
<path d="M18.9927 10.5386H24.0054V11.7858H18.9927V10.5386Z" fill="white"/>
<path d="M26 17.5476C26 14.9439 23.9836 12.833 21.4982 12.833C19.0127 12.833 16.9963 14.9439 16.9963 17.5476C16.9963 20.1512 18.8672 22.2603 21.4982 22.2603C23.4982 22.2603 25.2072 21.3803 25.7872 19.2676H23.6763C23.4825 19.6292 23.1941 19.9314 22.8418 20.1419C22.4895 20.3523 22.0867 20.463 21.6763 20.4621C20.4963 20.4621 19.4582 19.6166 19.52 18.1948H25.9654C26 17.9876 26 17.773 26 17.5476ZM19.5272 16.6221C19.6836 15.4512 20.5109 14.7039 21.5091 14.7039C22.5072 14.7039 23.3272 15.4512 23.4909 16.6221H19.5272Z" fill="white"/>
<path d="M16.2255 17.7457C16.0618 15.9384 14.0182 15.3293 14.0182 15.3293C14.7945 14.9657 15.72 14.2221 15.7109 12.5839C15.6964 10.2202 13.2309 9.74023 12.4382 9.74023H6V22.0348H11.8491C12.6618 22.0348 13.5273 21.9275 14.2127 21.5857C16.0618 20.6766 16.3855 19.5548 16.2255 17.7457ZM8.70545 11.8621H11.4727C11.4727 11.8621 13.1091 11.8239 13.1091 13.2711C13.1091 14.7184 11.4727 14.6784 11.4727 14.6784H8.70545V11.8621ZM11.6364 19.9475H8.70545V16.5857H11.6364C11.6364 16.5857 13.5855 16.5402 13.5855 18.2657C13.5855 19.9911 11.6364 19.9475 11.6364 19.9475Z" fill="white"/>
</g>
<defs>
<clipPath id="clip0_24_13508">
<rect width="32" height="32" fill="white"/>
</clipPath>
</defs>
</svg>
