<svg width="32" height="32" viewBox="0 0 32 32" fill="none" xmlns="http://www.w3.org/2000/svg">
<path d="M19.8511 17.1578C21.1064 20.3342 22.0389 23.6042 22.6447 26.945C23.509 26.418 24.3167 25.785 25.0511 25.0509C26.958 23.1437 28.1887 20.7406 28.6236 18.1326C26.7503 17.3575 24.6984 16.9287 22.548 16.9287C21.6287 16.9287 20.7279 17.0078 19.8511 17.1578Z" fill="#EA4C89"/>
<path d="M25.0618 6.9602C25.0579 6.95668 25.0544 6.95284 25.0509 6.94932C22.6333 4.53172 19.4189 3.2002 16 3.2002C14.663 3.2002 13.3574 3.40468 12.1184 3.79732C14.104 6.28532 15.8509 8.94036 17.3482 11.7464C20.1686 10.5487 22.7664 8.92628 25.0618 6.9602Z" fill="#EA4C89"/>
<path d="M26.0675 8.09326C23.6598 10.1614 20.9689 11.8373 18.0413 13.0901C18.4729 13.9589 18.8806 14.8417 19.2653 15.7377C20.3398 15.5333 21.4358 15.4289 22.5481 15.4289C24.7027 15.4289 26.7981 15.8165 28.7865 16.579C28.7952 16.3867 28.8 16.1937 28.8 16.0005C28.8 13.0955 27.8387 10.3393 26.0675 8.09326Z" fill="#EA4C89"/>
<path d="M8.12134 26.0899C10.3623 27.847 13.1079 28.8 16.0001 28.8C17.8385 28.8 19.6173 28.4144 21.2452 27.6829C20.6349 24.1472 19.658 20.736 18.3546 17.4893C13.8247 18.7254 10.0925 21.9136 8.12134 26.0899Z" fill="#EA4C89"/>
<path d="M15.758 16.7997C16.4163 16.5213 17.0876 16.2852 17.7692 16.0913C17.4096 15.2676 17.0278 14.4554 16.6262 13.6548C13.1683 14.9386 9.53211 15.5895 5.79675 15.5895C4.92891 15.5895 4.06683 15.5537 3.21115 15.4839C3.20411 15.6551 3.19995 15.8273 3.19995 16.0004C3.19995 19.4193 4.53147 22.6337 6.94907 25.0513C6.94971 25.0519 6.95067 25.0529 6.95163 25.0535C7.78779 23.386 8.88123 21.8701 10.2137 20.5377C11.8153 18.9361 13.6806 17.6785 15.758 16.7997Z" fill="#EA4C89"/>
<path d="M15.9245 12.3073C14.4055 9.49422 12.6285 6.84014 10.6257 4.37646C9.2759 5.00174 8.03238 5.86606 6.94918 6.94926C5.01254 8.8859 3.7735 11.3342 3.35718 13.9893C4.16198 14.0552 4.97542 14.0894 5.79718 14.0894C9.35206 14.0891 12.7633 13.46 15.9245 12.3073Z" fill="#EA4C89"/>
</svg>
