<svg width="32" height="32" viewBox="0 0 32 32" fill="none" xmlns="http://www.w3.org/2000/svg">
<g clip-path="url(#clip0_24_13552)">
<path d="M27.6364 0H4.36364C1.95367 0 0 1.95367 0 4.36364V27.6364C0 30.0463 1.95367 32 4.36364 32H27.6364C30.0463 32 32 30.0463 32 27.6364V4.36364C32 1.95367 30.0463 0 27.6364 0Z" fill="#0077B5"/>
<path d="M11.5273 8.72727C11.5273 9.26668 11.3673 9.79397 11.0677 10.2425C10.768 10.691 10.3421 11.0405 9.84371 11.2469C9.34537 11.4534 8.797 11.5074 8.26796 11.4021C7.73892 11.2969 7.25297 11.0372 6.87156 10.6557C6.49014 10.2743 6.23039 9.78838 6.12516 9.25934C6.01993 8.7303 6.07394 8.18194 6.28036 7.68359C6.48678 7.18525 6.83634 6.7593 7.28484 6.45963C7.73333 6.15995 8.26062 6 8.80003 6C9.52335 6 10.217 6.28734 10.7285 6.7988C11.24 7.31026 11.5273 8.00396 11.5273 8.72727Z" fill="white"/>
<path d="M10.9091 13.2726V25.3216C10.9095 25.4105 10.8924 25.4986 10.8588 25.5809C10.8251 25.6632 10.7755 25.738 10.7128 25.801C10.6501 25.864 10.5756 25.914 10.4935 25.9481C10.4114 25.9823 10.3234 25.9998 10.2345 25.9998H7.35996C7.27107 26.0001 7.18301 25.9827 7.10084 25.9488C7.01868 25.9149 6.94402 25.8651 6.88116 25.8023C6.81831 25.7394 6.7685 25.6647 6.73459 25.5826C6.70069 25.5004 6.68336 25.4124 6.6836 25.3235V13.2726C6.6836 13.0932 6.75486 12.9211 6.8817 12.7943C7.00854 12.6675 7.18058 12.5962 7.35996 12.5962H10.2345C10.4136 12.5967 10.5851 12.6681 10.7116 12.7949C10.838 12.9217 10.9091 13.0935 10.9091 13.2726Z" fill="white"/>
<path d="M25.9346 19.5456V25.3783C25.9348 25.46 25.9189 25.541 25.8877 25.6165C25.8566 25.6921 25.8108 25.7607 25.753 25.8185C25.6952 25.8763 25.6265 25.9221 25.551 25.9533C25.4754 25.9844 25.3945 26.0004 25.3127 26.0001H22.2218C22.1401 26.0004 22.0591 25.9844 21.9836 25.9533C21.908 25.9221 21.8394 25.8763 21.7816 25.8185C21.7238 25.7607 21.678 25.6921 21.6469 25.6165C21.6157 25.541 21.5998 25.46 21.6 25.3783V19.7256C21.6 18.8819 21.8473 16.031 19.3946 16.031C17.4946 16.031 17.1073 17.9819 17.0309 18.8583V25.3783C17.0309 25.5417 16.9667 25.6985 16.852 25.8148C16.7374 25.9312 16.5815 25.9977 16.4182 26.0001H13.4327C13.3512 26.0001 13.2704 25.984 13.1951 25.9528C13.1197 25.9215 13.0513 25.8756 12.9937 25.8179C12.9361 25.7601 12.8905 25.6916 12.8594 25.6161C12.8284 25.5407 12.8125 25.4599 12.8127 25.3783V13.2201C12.8125 13.1385 12.8284 13.0577 12.8594 12.9823C12.8905 12.9069 12.9361 12.8383 12.9937 12.7805C13.0513 12.7228 13.1197 12.6769 13.1951 12.6457C13.2704 12.6144 13.3512 12.5983 13.4327 12.5983H16.4182C16.5831 12.5983 16.7413 12.6638 16.8579 12.7804C16.9745 12.897 17.04 13.0552 17.04 13.2201V14.271C17.7455 13.2128 18.7909 12.3965 21.0218 12.3965C25.9637 12.3965 25.9346 17.011 25.9346 19.5456Z" fill="white"/>
</g>
<defs>
<clipPath id="clip0_24_13552">
<rect width="32" height="32" fill="white"/>
</clipPath>
</defs>
</svg>
