<svg width="32" height="32" viewBox="0 0 32 32" fill="none" xmlns="http://www.w3.org/2000/svg">
<g clip-path="url(#clip0_24_13521)">
<path d="M2.0001 2.17723C-0.514564 4.78923 0.000102922 7.5639 0.000102922 15.9932C0.000102922 22.9932 -1.22123 30.0106 5.17077 31.6626C7.16677 32.1759 24.8521 32.1759 26.8454 31.6599C29.5068 30.9732 31.6721 28.8146 31.9681 25.0506C32.0094 24.5252 32.0094 7.47057 31.9668 6.93457C31.6521 2.92523 29.1841 0.614566 25.9321 0.146566C25.1868 0.0385658 25.0374 0.00656577 21.2134 -0.000100899C7.64944 0.00656577 4.6761 -0.597434 2.0001 2.17723Z" fill="url(#paint0_linear_24_13521)"/>
<path d="M15.9975 4.18523C11.1562 4.18523 6.55883 3.75456 4.80283 8.26123C4.07749 10.1226 4.18283 12.5399 4.18283 16.0012C4.18283 19.0386 4.08549 21.8932 4.80283 23.7399C6.55483 28.2492 11.1895 27.8172 15.9948 27.8172C20.6308 27.8172 25.4108 28.2999 27.1882 23.7399C27.9148 21.8599 27.8082 19.4786 27.8082 16.0012C27.8082 11.3852 28.0628 8.40523 25.8242 6.1679C23.5575 3.90123 20.4922 4.18523 15.9922 4.18523H15.9975ZM14.9388 6.31456C25.0375 6.29856 26.3228 5.1759 25.6135 20.7719C25.3615 26.2879 21.1615 25.6826 15.9988 25.6826C6.58549 25.6826 6.31483 25.4132 6.31483 15.9959C6.31483 6.46923 7.06149 6.3199 14.9388 6.3119V6.31456ZM22.3042 8.2759C21.5215 8.2759 20.8868 8.91056 20.8868 9.69323C20.8868 10.4759 21.5215 11.1106 22.3042 11.1106C23.0868 11.1106 23.7215 10.4759 23.7215 9.69323C23.7215 8.91056 23.0868 8.2759 22.3042 8.2759ZM15.9975 9.93323C12.6468 9.93323 9.93083 12.6506 9.93083 16.0012C9.93083 19.3519 12.6468 22.0679 15.9975 22.0679C19.3482 22.0679 22.0628 19.3519 22.0628 16.0012C22.0628 12.6506 19.3482 9.93323 15.9975 9.93323ZM15.9975 12.0626C21.2042 12.0626 21.2108 19.9399 15.9975 19.9399C10.7922 19.9399 10.7842 12.0626 15.9975 12.0626Z" fill="white"/>
</g>
<defs>
<linearGradient id="paint0_linear_24_13521" x1="2.06146" y1="29.956" x2="31.8021" y2="4.21587" gradientUnits="userSpaceOnUse">
<stop stop-color="#FFDD55"/>
<stop offset="0.5" stop-color="#FF543E"/>
<stop offset="1" stop-color="#C837AB"/>
</linearGradient>
<clipPath id="clip0_24_13521">
<rect width="32" height="32" fill="white"/>
</clipPath>
</defs>
</svg>
