<svg width="552" height="437" viewBox="0 0 552 437" fill="none" xmlns="http://www.w3.org/2000/svg">
<g opacity="0.4">
<path d="M354.197 384.84C376.357 316.2 400.797 299.27 412.047 296.65C416.677 295.56 421.297 299.22 421.987 305.49C425.317 336.01 376.607 385.1 376.607 385.1L354.197 384.84Z" fill="#2A2A37"/>
<path d="M405.858 317.51C405.858 317.51 404.958 318.51 403.428 320.27C401.898 322.03 399.768 324.6 397.298 327.75C396.068 329.33 394.738 331.04 393.378 332.88C392.018 334.72 390.568 336.67 389.148 338.72C387.728 340.77 386.218 342.89 384.788 345.09C383.358 347.29 381.898 349.54 380.478 351.8C379.058 354.06 377.728 356.39 376.418 358.67C375.108 360.95 373.898 363.26 372.758 365.49C371.618 367.72 370.578 369.93 369.658 372.05C369.198 373.11 368.748 374.13 368.358 375.15C367.968 376.17 367.598 377.15 367.268 378.15C366.938 379.15 366.628 380.01 366.378 380.9C366.128 381.79 365.878 382.63 365.698 383.43C365.518 384.23 365.328 384.97 365.228 385.68C365.128 386.39 364.978 387.02 364.948 387.62C364.918 388.22 364.858 388.73 364.818 389.18C364.778 389.63 364.818 390.03 364.818 390.35C364.818 390.97 364.818 391.3 364.818 391.3L364.958 390.35C365.008 390.05 365.048 389.67 365.138 389.22C365.228 388.77 365.358 388.29 365.498 387.72C365.638 387.15 365.838 386.55 366.028 385.89C366.218 385.23 366.468 384.51 366.758 383.76C367.048 383.01 367.338 382.21 367.698 381.39C368.058 380.57 368.408 379.68 368.828 378.79C369.248 377.9 369.678 376.95 370.158 376C370.638 375.05 371.108 374.06 371.638 373C372.638 371 373.848 368.89 375.048 366.73C376.248 364.57 377.578 362.37 378.878 360.11C380.178 357.85 381.578 355.61 382.988 353.36C384.398 351.11 385.768 348.85 387.178 346.65L391.288 340.18C393.988 336 396.498 332.09 398.658 328.73C403.028 322.05 405.858 317.51 405.858 317.51Z" fill="#000011"/>
<path d="M376.697 383.93C398.857 340.26 423.297 329.5 434.547 327.83C439.177 327.14 443.797 329.46 444.487 333.45C447.817 352.87 399.107 384.1 399.107 384.1L376.697 383.93Z" fill="#5A5A74"/>
<path d="M420.777 348.18C420.777 348.18 419.717 349.01 417.927 350.51C416.137 352.01 413.617 354.19 410.677 356.91C409.207 358.27 407.617 359.74 405.977 361.35C404.337 362.96 402.597 364.63 400.867 366.43C399.137 368.23 397.307 370.07 395.537 372.01C393.767 373.95 391.967 375.94 390.207 377.94C388.447 379.94 386.747 382.02 385.087 384.07C383.427 386.12 381.867 388.19 380.377 390.21C378.887 392.23 377.517 394.21 376.267 396.21C375.647 397.21 375.037 398.12 374.487 399.06C373.937 400 373.417 400.91 372.937 401.8C372.457 402.69 372.007 403.54 371.617 404.38C371.227 405.22 370.847 406 370.537 406.76C370.227 407.52 369.917 408.23 369.707 408.91C369.497 409.59 369.247 410.19 369.127 410.77C369.007 411.35 368.857 411.86 368.747 412.3C368.637 412.74 368.627 413.14 368.577 413.45L368.447 414.4L368.737 413.48C368.837 413.19 368.927 412.82 369.087 412.4C369.247 411.98 369.467 411.51 369.687 410.97C369.907 410.43 370.207 409.87 370.507 409.25C370.807 408.63 371.167 407.96 371.577 407.25C371.987 406.54 372.387 405.81 372.887 405.05C373.387 404.29 373.887 403.48 374.417 402.67C374.947 401.86 375.547 401 376.177 400.14C376.807 399.28 377.427 398.37 378.107 397.46C379.457 395.64 380.947 393.76 382.477 391.82C384.007 389.88 385.677 387.92 387.327 385.91C388.977 383.9 390.717 381.91 392.467 379.91C394.217 377.91 395.937 375.91 397.677 373.97L402.787 368.24L411.897 358.13C417.257 352.2 420.777 348.18 420.777 348.18Z" fill="#000011"/>
<path d="M390.737 388.67C425.227 353.9 451.787 351.15 463.007 353.01C467.627 353.78 471.317 357.41 470.747 361.42C467.957 380.92 412.017 395.7 412.017 395.7L390.737 388.67Z" fill="#2A2A37"/>
<path d="M443.657 368.16C443.657 368.16 442.397 368.62 440.237 369.5C438.077 370.38 434.997 371.68 431.367 373.36C429.557 374.2 427.587 375.12 425.537 376.15C423.487 377.18 421.307 378.23 419.107 379.41C416.907 380.59 414.607 381.79 412.327 383.09C410.047 384.39 407.727 385.73 405.427 387.09C403.127 388.45 400.887 389.92 398.687 391.35C396.487 392.78 394.357 394.29 392.317 395.76C390.277 397.23 388.317 398.71 386.567 400.18C385.677 400.91 384.807 401.62 383.997 402.35C383.187 403.08 382.407 403.78 381.687 404.48C380.967 405.18 380.257 405.85 379.627 406.53C378.997 407.21 378.407 407.84 377.877 408.47C377.362 409.04 376.878 409.638 376.427 410.26C376.017 410.84 375.597 411.34 375.297 411.85C374.997 412.36 374.717 412.8 374.467 413.19C374.217 413.58 374.097 413.95 373.957 414.19C373.687 414.76 373.537 415.06 373.537 415.06L374.097 414.27C374.287 414.02 374.487 413.7 374.767 413.35L375.767 412.18C376.179 411.694 376.616 411.23 377.077 410.79C377.557 410.29 378.077 409.79 378.697 409.23C379.317 408.67 379.917 408.11 380.617 407.54C381.317 406.97 382.017 406.35 382.807 405.74C383.597 405.13 384.397 404.5 385.257 403.87C386.117 403.24 386.997 402.57 387.917 401.92C389.757 400.59 391.757 399.27 393.807 397.92C395.857 396.57 398.057 395.19 400.237 393.78C402.417 392.37 404.697 391 406.967 389.64C409.237 388.28 411.507 386.89 413.757 385.58L420.367 381.7L432.147 374.87C439.067 370.9 443.657 368.16 443.657 368.16Z" fill="#2A2A37"/>
</g>
<path opacity="0.3" d="M262.887 407.78C264.827 404.87 266.177 401.68 267.887 398.78C273.717 388.9 303.197 351.93 337.467 372.87C345.967 378.07 351.897 386.87 360.557 392.63C417.557 430.63 493.937 416.31 531.127 360.56C568.317 304.81 552.237 228.78 495.227 190.75C438.217 152.72 350.227 149.47 326.397 220.35C320.327 238.35 318.847 270.28 308.487 292.43C292.267 327.08 249.027 315.19 230.967 308.13C201.057 296.42 167.967 301.55 149.967 328.54C130.027 358.44 140.827 404.61 171.397 425C201.967 445.39 242.937 437.67 262.887 407.78Z" fill="#2A2A37"/>
<g opacity="0.4">
<path d="M509.057 139.93C467.007 78.39 437.847 68.77 425.927 69.46C421.027 69.74 417.507 74.72 418.657 81.13C424.287 112.35 486.917 146.75 486.917 146.75L509.057 139.93Z" fill="#2A2A37"/>
<path d="M438.157 88.33C438.157 88.33 439.347 89.04 441.377 90.33C443.407 91.62 446.277 93.5499 449.637 95.9599C451.317 97.1599 453.137 98.4699 455.027 99.8999C456.917 101.33 458.917 102.83 460.937 104.45C462.957 106.07 465.047 107.72 467.117 109.45C469.187 111.18 471.277 113.01 473.347 114.84C475.417 116.67 477.417 118.58 479.347 120.46C481.277 122.34 483.177 124.27 484.967 126.15C486.757 128.03 488.427 129.91 489.967 131.74C490.727 132.66 491.477 133.54 492.157 134.44C492.837 135.34 493.497 136.2 494.097 137.05C494.697 137.9 495.287 138.71 495.797 139.52C496.307 140.33 496.797 141.08 497.197 141.83C497.611 142.506 497.989 143.203 498.327 143.92C498.637 144.59 498.967 145.17 499.177 145.76C499.387 146.35 499.587 146.83 499.757 147.27C499.927 147.71 499.997 148.12 500.077 148.43L500.337 149.38L499.927 148.48C499.787 148.19 499.637 147.83 499.417 147.42C499.197 147.01 498.917 146.55 498.617 146.03C498.317 145.51 497.947 144.97 497.557 144.37C497.167 143.77 496.717 143.14 496.207 142.48C495.697 141.82 495.207 141.11 494.577 140.4C493.947 139.69 493.387 138.91 492.697 138.15C492.007 137.39 491.327 136.58 490.567 135.78C489.807 134.98 489.057 134.13 488.237 133.29C486.627 131.59 484.857 129.87 483.027 128.07C481.197 126.27 479.247 124.49 477.297 122.64C475.347 120.79 473.297 118.96 471.297 117.15C469.297 115.34 467.217 113.49 465.177 111.72L459.177 106.52L448.597 97.36C442.287 91.99 438.157 88.33 438.157 88.33Z" fill="#000011"/>
<path d="M486.498 145.67C451.758 108.88 424.388 105.36 412.748 106.99C407.958 107.66 404.058 111.32 404.548 115.47C406.918 135.69 464.327 152.39 464.327 152.39L486.498 145.67Z" fill="#5A5A74"/>
<path d="M432.357 123.09C432.357 123.09 433.637 123.59 435.847 124.56C438.057 125.53 441.207 126.95 444.907 128.78C446.767 129.7 448.767 130.69 450.907 131.78C453.047 132.87 455.217 134.05 457.467 135.32C459.717 136.59 462.057 137.89 464.377 139.32C466.697 140.75 469.057 142.16 471.377 143.63C473.697 145.1 475.987 146.63 478.237 148.21C480.487 149.79 482.627 151.35 484.697 152.92C486.767 154.49 488.697 156.08 490.517 157.64C491.427 158.42 492.307 159.17 493.117 159.95C493.927 160.73 494.727 161.46 495.457 162.21C496.187 162.96 496.897 163.66 497.527 164.38C498.157 165.1 498.757 165.76 499.287 166.38C499.817 167 500.287 167.65 500.737 168.26C501.187 168.87 501.567 169.4 501.867 169.94L502.687 171.34C502.907 171.76 503.057 172.13 503.187 172.43L503.597 173.33L503.047 172.51C502.857 172.24 502.657 171.91 502.377 171.51L501.377 170.27C501.017 169.79 500.537 169.33 500.057 168.8C499.577 168.27 499.057 167.72 498.427 167.15C497.797 166.58 497.187 165.96 496.477 165.36C495.767 164.76 495.057 164.09 494.267 163.44C493.477 162.79 492.657 162.11 491.777 161.44C490.897 160.77 490.017 160.05 489.077 159.35C487.217 157.94 485.187 156.52 483.077 155.04C480.967 153.56 478.767 152.11 476.547 150.6C474.327 149.09 472.007 147.6 469.697 146.15C467.387 144.7 465.087 143.2 462.787 141.78L456.047 137.67L444.047 130.31C437.017 126.04 432.357 123.09 432.357 123.09Z" fill="#000011"/>
</g>
<path d="M24.5973 1C24.5973 1 -15.5927 18.12 8.92734 46C25.9273 65.34 115.177 36.14 154.267 81.34C164.927 93.67 156.927 111.17 156.927 111.17" stroke="#B0B0B0" stroke-miterlimit="10" stroke-dasharray="7 7"/>
<path d="M399.177 136.67C399.177 127.07 384.427 116.92 391.677 100.17C401.487 77.5 423.987 92.97 434.927 91.67C466.427 87.92 461.927 49.67 461.927 49.67" stroke="#B0B0B0" stroke-miterlimit="10" stroke-dasharray="7 7"/>
<path d="M125.678 307.42C101.808 312.55 95.5976 334.67 82.7676 337C56.9276 341.67 49.1776 327.17 52.4276 319.67C55.5276 312.52 65.6376 307.93 81.7676 311C94.4276 313.42 105.138 324.68 107.678 337.42C119.268 395.34 45.2676 396 45.2676 396" stroke="#B0B0B0" stroke-miterlimit="10" stroke-dasharray="7 7"/>
<path d="M171.178 200.75L238.468 120.46L328.918 172.89L171.178 200.75Z" fill="#000011" stroke="#B0B0B0" stroke-linecap="round" stroke-linejoin="round"/>
<path d="M328.922 172.648L171.077 200.537L184.969 279.16L342.814 251.27L328.922 172.648Z" fill="#000011"/>
<path d="M312.218 144.119L176.411 168.114L192.277 257.913L328.084 233.918L312.218 144.119Z" fill="#000011" stroke="#B0B0B0" stroke-linecap="round" stroke-linejoin="round"/>
<path d="M254.978 284.31L187.968 296.15L171.138 200.85L248.108 241.92L254.978 284.31Z" fill="#000011"/>
<path d="M254.978 284.31L187.968 296.15L171.138 200.85L248.108 241.92L254.978 284.31Z" stroke="#B0B0B0" stroke-linecap="round" stroke-linejoin="round"/>
<path d="M278.807 280.1L345.817 268.27L328.977 172.96L270.737 237.92L278.807 280.1Z" fill="#000011"/>
<path d="M278.807 280.1L345.817 268.27L328.977 172.96L270.737 237.92L278.807 280.1Z" stroke="#B0B0B0" stroke-linecap="round" stroke-linejoin="round"/>
<path d="M188.147 296.27L254.147 209.21L345.987 268.38L188.147 296.27Z" fill="#000011" stroke="#B0B0B0" stroke-linecap="round" stroke-linejoin="round"/>
<path d="M288.72 173.605L202.191 188.894C201.206 189.067 200.549 190.006 200.723 190.991L201.778 196.958C201.951 197.943 202.89 198.6 203.875 198.426L290.405 183.137C291.389 182.963 292.046 182.024 291.872 181.04L290.818 175.072C290.644 174.088 289.705 173.431 288.72 173.605Z" fill="#000011"/>
<path d="M293.14 173.872L206.611 189.16C205.626 189.334 204.969 190.273 205.143 191.258L206.197 197.225C206.371 198.21 207.31 198.867 208.295 198.693L294.824 183.404C295.809 183.23 296.466 182.291 296.292 181.307L295.238 175.339C295.064 174.355 294.125 173.698 293.14 173.872Z" fill="#454545" stroke="#B0B0B0" stroke-miterlimit="10"/>
<path d="M287.457 161.219L201.344 176.157C200.364 176.326 199.708 177.258 199.878 178.238L200.908 184.177C201.078 185.156 202.01 185.813 202.99 185.643L289.102 170.705C290.082 170.535 290.738 169.603 290.568 168.624L289.538 162.685C289.368 161.705 288.436 161.049 287.457 161.219Z" fill="#454545" stroke="#B0B0B0" stroke-width="0.994636" stroke-miterlimit="10"/>
<path d="M295.711 187.556L209.181 202.844C208.196 203.018 207.539 203.957 207.713 204.942L208.768 210.909C208.942 211.894 209.881 212.551 210.865 212.377L297.395 197.088C298.379 196.914 299.036 195.975 298.862 194.991L297.808 189.023C297.634 188.039 296.695 187.382 295.711 187.556Z" fill="#454545" stroke="#B0B0B0" stroke-miterlimit="10"/>
<path d="M391.197 336.86C390.756 338.336 390.029 339.711 389.056 340.905C388.083 342.1 386.885 343.091 385.529 343.822C384.173 344.553 382.686 345.009 381.153 345.165C379.621 345.321 378.073 345.173 376.597 344.73L309.337 325.73C306.334 324.93 303.771 322.97 302.212 320.281C300.654 317.592 300.228 314.394 301.027 311.39L347.897 145.58C348.332 144.102 349.054 142.725 350.022 141.527C350.99 140.329 352.186 139.334 353.539 138.599C354.893 137.864 356.379 137.404 357.911 137.244C359.443 137.085 360.991 137.23 362.467 137.67L429.737 156.67C431.224 157.066 432.619 157.751 433.841 158.686C435.063 159.621 436.088 160.788 436.859 162.12C437.63 163.452 438.131 164.922 438.333 166.448C438.535 167.973 438.435 169.523 438.037 171.01L391.197 336.86Z" fill="#000011" stroke="#B0B0B0" stroke-linecap="round" stroke-linejoin="round"/>
<path d="M375.887 151.06C375.814 151.362 375.651 151.636 375.421 151.845C375.191 152.054 374.904 152.19 374.596 152.235C374.288 152.279 373.974 152.231 373.694 152.096C373.414 151.961 373.18 151.745 373.024 151.476C372.867 151.208 372.794 150.898 372.815 150.588C372.835 150.278 372.948 149.981 373.139 149.735C373.33 149.489 373.589 149.306 373.885 149.209C374.18 149.112 374.498 149.105 374.797 149.19C375.188 149.296 375.522 149.551 375.726 149.901C375.93 150.251 375.988 150.668 375.887 151.06V151.06Z" fill="#000011" stroke="#B0B0B0" stroke-miterlimit="10"/>
<path d="M414.827 162.07C414.75 162.368 414.586 162.637 414.355 162.841C414.125 163.046 413.839 163.177 413.534 163.218C413.228 163.259 412.918 163.208 412.642 163.072C412.365 162.936 412.136 162.721 411.982 162.454C411.829 162.187 411.759 161.88 411.78 161.573C411.802 161.266 411.915 160.972 412.104 160.729C412.293 160.486 412.551 160.305 412.843 160.209C413.136 160.113 413.451 160.106 413.747 160.19C413.942 160.242 414.124 160.332 414.284 160.455C414.443 160.578 414.577 160.731 414.677 160.906C414.778 161.08 414.843 161.273 414.868 161.473C414.894 161.673 414.88 161.876 414.827 162.07V162.07Z" fill="#000011" stroke="#B0B0B0" stroke-miterlimit="10"/>
<path d="M406.958 159.77C406.928 159.871 406.879 159.965 406.812 160.046C406.745 160.127 406.662 160.194 406.568 160.241C406.474 160.289 406.372 160.317 406.267 160.324C406.162 160.331 406.057 160.316 405.958 160.28L382.128 153.55C382.03 153.525 381.938 153.48 381.858 153.419C381.778 153.357 381.711 153.281 381.661 153.193C381.61 153.106 381.578 153.009 381.565 152.909C381.553 152.809 381.56 152.707 381.588 152.61V152.61C381.616 152.508 381.665 152.413 381.731 152.331C381.798 152.25 381.881 152.182 381.975 152.134C382.069 152.086 382.172 152.059 382.278 152.053C382.383 152.047 382.489 152.063 382.588 152.1L406.418 158.83C406.515 158.856 406.607 158.9 406.688 158.961C406.768 159.022 406.836 159.099 406.887 159.186C406.938 159.273 406.972 159.37 406.986 159.47C406.999 159.57 406.993 159.672 406.968 159.77H406.958Z" fill="#000011" stroke="#B0B0B0" stroke-miterlimit="10"/>
<path d="M385.917 328.99C385.777 329.5 385.44 329.933 384.981 330.196C384.522 330.458 383.977 330.528 383.467 330.39L310.857 309.88C310.605 309.806 310.37 309.684 310.165 309.52C309.96 309.355 309.79 309.152 309.663 308.922C309.537 308.691 309.457 308.438 309.429 308.177C309.4 307.916 309.423 307.652 309.497 307.4L352.777 154.2C352.915 153.688 353.251 153.252 353.71 152.988C354.17 152.724 354.715 152.652 355.227 152.79L427.847 173.31C428.354 173.461 428.781 173.806 429.034 174.271C429.287 174.736 429.346 175.282 429.197 175.79L385.917 328.99Z" fill="#000011"/>
<path d="M331.598 161.34L438.268 192.67" stroke="#B0B0B0" stroke-miterlimit="10"/>
<path d="M304.018 282.09L410.678 313.42" stroke="#B0B0B0" stroke-miterlimit="10"/>
<path d="M385.917 328.99C385.777 329.5 385.44 329.933 384.981 330.196C384.522 330.458 383.977 330.528 383.467 330.39L310.857 309.88C310.605 309.806 310.37 309.684 310.165 309.52C309.96 309.355 309.79 309.152 309.663 308.922C309.537 308.691 309.457 308.438 309.429 308.177C309.4 307.916 309.423 307.652 309.497 307.4L352.777 154.2C352.915 153.688 353.251 153.252 353.71 152.988C354.17 152.724 354.715 152.652 355.227 152.79L427.847 173.31C428.354 173.461 428.781 173.806 429.034 174.271C429.287 174.736 429.346 175.282 429.197 175.79L385.917 328.99Z" stroke="#B0B0B0" stroke-miterlimit="10"/>
<path d="M346.097 327.67C345.989 328.078 345.763 328.445 345.446 328.724C345.13 329.002 344.737 329.181 344.319 329.237C343.901 329.292 343.476 329.223 343.097 329.036C342.719 328.85 342.404 328.555 342.193 328.19C341.982 327.824 341.885 327.404 341.913 326.984C341.941 326.563 342.094 326.159 342.351 325.825C342.609 325.491 342.96 325.241 343.36 325.106C343.759 324.972 344.19 324.959 344.597 325.07C344.868 325.14 345.122 325.263 345.345 325.432C345.568 325.601 345.754 325.812 345.894 326.055C346.034 326.297 346.124 326.564 346.159 326.842C346.194 327.119 346.173 327.401 346.097 327.67V327.67Z" stroke="#B0B0B0" stroke-miterlimit="10"/>
<path d="M324.267 322.67C324.077 323.32 323.527 323.45 323.037 322.96L321.387 321.31C320.897 320.82 321.047 320.31 321.727 320.12L323.988 319.58C324.668 319.42 325.067 319.82 324.887 320.48L324.267 322.67Z" stroke="#B0B0B0" stroke-linecap="round" stroke-linejoin="round"/>
<path d="M365.327 334.74C365.312 334.793 365.287 334.843 365.252 334.886C365.218 334.929 365.175 334.964 365.126 334.991C365.078 335.017 365.025 335.033 364.97 335.038C364.915 335.043 364.859 335.037 364.807 335.02L361.947 334.22C361.894 334.205 361.844 334.18 361.8 334.145C361.757 334.111 361.721 334.069 361.694 334.02C361.667 333.972 361.65 333.919 361.643 333.864C361.637 333.809 361.642 333.753 361.657 333.7L362.527 330.6C362.559 330.494 362.632 330.406 362.729 330.353C362.827 330.301 362.941 330.289 363.047 330.32L365.907 331.12C366.015 331.15 366.107 331.222 366.163 331.319C366.219 331.416 366.235 331.531 366.207 331.64L365.327 334.74Z" stroke="#B0B0B0" stroke-linecap="round" stroke-linejoin="round"/>
<path d="M410.078 200L358.268 185.32C358.094 185.271 357.913 185.257 357.734 185.279C357.556 185.3 357.383 185.356 357.226 185.445C357.069 185.533 356.931 185.651 356.82 185.793C356.708 185.934 356.626 186.097 356.578 186.27L353.088 198.56C353.04 198.737 353.028 198.921 353.052 199.103C353.077 199.284 353.138 199.459 353.231 199.616C353.324 199.774 353.448 199.911 353.595 200.02C353.742 200.129 353.91 200.207 354.088 200.25L358.918 201.62L360.448 202.06L362.778 205.56L363.528 202.93L405.898 214.93C406.07 214.98 406.251 214.996 406.43 214.976C406.609 214.956 406.782 214.9 406.939 214.813C407.096 214.725 407.234 214.608 407.346 214.466C407.457 214.325 407.539 214.163 407.588 213.99L411.068 201.69C411.116 201.514 411.128 201.33 411.104 201.149C411.08 200.968 411.02 200.794 410.928 200.637C410.836 200.479 410.713 200.342 410.567 200.233C410.421 200.123 410.255 200.044 410.078 200V200Z" fill="#454545" stroke="#B0B0B0" stroke-miterlimit="10"/>
<path d="M404.128 222.98C403.983 222.864 403.816 222.779 403.638 222.73L364.448 211.67C364.266 211.63 364.079 211.63 363.898 211.67C363.63 211.705 363.378 211.818 363.175 211.996C362.972 212.174 362.827 212.409 362.758 212.67L359.268 224.99C359.166 225.341 359.207 225.719 359.384 226.04C359.56 226.36 359.856 226.598 360.208 226.7L394.598 236.35L396.008 239.06L396.618 236.92L399.418 237.71C399.594 237.758 399.779 237.77 399.96 237.745C400.142 237.721 400.316 237.66 400.474 237.567C400.631 237.474 400.769 237.35 400.877 237.203C400.986 237.055 401.065 236.888 401.108 236.71L404.598 224.43C404.67 224.169 404.665 223.892 404.581 223.634C404.497 223.376 404.34 223.149 404.128 222.98Z" fill="#454545" stroke="#B0B0B0" stroke-miterlimit="10"/>
<path d="M344.597 233.41L396.417 248.08C396.591 248.13 396.753 248.213 396.894 248.325C397.035 248.438 397.153 248.577 397.241 248.735C397.328 248.893 397.383 249.066 397.403 249.246C397.423 249.425 397.408 249.607 397.357 249.78L393.877 262.07C393.829 262.243 393.747 262.405 393.635 262.546C393.524 262.688 393.385 262.805 393.228 262.893C393.071 262.98 392.898 263.036 392.719 263.056C392.541 263.076 392.36 263.06 392.187 263.01L387.397 261.67L385.857 261.23L382.037 262.99L382.787 260.36L340.407 248.36C340.058 248.258 339.763 248.022 339.587 247.703C339.411 247.385 339.368 247.01 339.467 246.66L342.947 234.37C343.043 234.027 343.269 233.735 343.577 233.555C343.885 233.376 344.251 233.324 344.597 233.41Z" fill="#454545" stroke="#B0B0B0" stroke-miterlimit="10"/>
<path d="M390.508 271.07C390.366 270.947 390.199 270.858 390.018 270.81L350.828 259.67C350.647 259.626 350.458 259.626 350.278 259.67C350.01 259.706 349.759 259.82 349.557 259.998C349.354 260.176 349.208 260.41 349.138 260.67L345.648 273C345.555 273.347 345.603 273.717 345.781 274.03C345.958 274.342 346.252 274.572 346.598 274.67L380.958 284.41L382.378 287.12L382.988 284.98L385.788 285.77C385.964 285.818 386.149 285.83 386.33 285.805C386.512 285.781 386.686 285.72 386.844 285.627C387.001 285.534 387.138 285.41 387.247 285.263C387.356 285.115 387.435 284.948 387.478 284.77L390.968 272.45C391.029 272.2 391.019 271.938 390.938 271.693C390.856 271.449 390.707 271.233 390.508 271.07V271.07Z" fill="#454545" stroke="#B0B0B0" stroke-miterlimit="10"/>
<path d="M360.489 192.615L359.805 195.03L403.495 207.409L404.179 204.994L360.489 192.615Z" fill="#000011"/>
<path d="M346.68 241.349L345.996 243.764L389.686 256.144L390.37 253.729L346.68 241.349Z" fill="#000011"/>
<path d="M367.234 219.895L366.55 222.31L396.847 230.895L397.531 228.48L367.234 219.895Z" fill="#000011"/>
<path d="M353.668 267.749L352.983 270.164L383.281 278.749L383.965 276.334L353.668 267.749Z" fill="#000011"/>
<path d="M381.008 315.6C380.824 316.25 380.515 316.858 380.096 317.388C379.677 317.918 379.158 318.36 378.568 318.689C377.978 319.018 377.329 319.227 376.658 319.304C375.987 319.382 375.307 319.326 374.658 319.14L324.178 304.84C323.528 304.657 322.92 304.347 322.39 303.928C321.86 303.51 321.418 302.99 321.089 302.4C320.76 301.81 320.551 301.161 320.473 300.49C320.396 299.819 320.452 299.139 320.638 298.49V298.49C320.821 297.84 321.131 297.232 321.549 296.702C321.968 296.172 322.487 295.73 323.077 295.401C323.667 295.072 324.316 294.863 324.988 294.785C325.659 294.708 326.338 294.764 326.988 294.95L377.468 309.25C378.117 309.434 378.724 309.745 379.253 310.164C379.783 310.583 380.224 311.102 380.553 311.692C380.882 312.281 381.091 312.93 381.169 313.601C381.247 314.271 381.192 314.951 381.008 315.6V315.6Z" fill="#000011" stroke="#B0B0B0" stroke-miterlimit="10"/>
<path d="M327.938 300.87C327.827 301.269 327.6 301.626 327.286 301.895C326.972 302.165 326.584 302.335 326.173 302.385C325.762 302.434 325.346 302.36 324.977 302.173C324.608 301.985 324.303 301.692 324.101 301.331C323.898 300.97 323.808 300.557 323.841 300.144C323.873 299.732 324.028 299.338 324.284 299.013C324.541 298.689 324.889 298.448 325.283 298.321C325.677 298.194 326.099 298.186 326.498 298.3C326.761 298.374 327.007 298.499 327.222 298.668C327.438 298.837 327.617 299.047 327.751 299.286C327.885 299.525 327.97 299.788 328.002 300.059C328.034 300.331 328.012 300.607 327.938 300.87V300.87Z" stroke="#B0B0B0" stroke-miterlimit="10"/>
<path d="M105.347 218.18C100.347 226.62 95.7573 240.43 95.1973 248.37C95.3246 250.877 95.8512 253.349 96.7573 255.69C102.707 268.04 117.647 287.26 126.197 297.15C140.435 312.929 156.002 327.456 172.727 340.57C188.571 352.543 205.413 363.135 223.067 372.23C234.747 378.02 257.067 387.65 270.427 390.29C272.907 390.575 275.416 390.456 277.857 389.94C285.357 387.37 297.457 379.4 304.297 372.37C308.418 367.795 312.173 362.904 315.527 357.74C315.787 357.33 316.377 356.24 315.067 355.87C301.067 351.87 258.397 345.15 258.397 345.15C258.397 345.15 253.837 344.23 252.397 344.69C248.677 345.89 244.827 351.05 237.907 350.59C232.197 350.22 224.757 344.99 224.757 344.99L195.757 322.45L192.597 319.95L190.057 317.95L151.957 288.51C151.957 288.51 145.037 282.61 143.227 277.15C141.027 270.53 144.997 265.48 145.227 261.56C145.307 260.05 143.227 255.86 143.227 255.86C143.227 255.86 125.847 216.07 118.477 203.47C117.787 202.29 116.887 203.14 116.557 203.47C112.441 208.072 108.693 212.99 105.347 218.18V218.18Z" fill="#000011"/>
<path opacity="0.2" d="M139.308 264.41C139.178 268.41 135.198 273.41 137.588 280.2C139.588 285.78 146.768 291.91 146.768 291.91L186.428 322.55L189.078 324.61L192.428 327.2L222.598 350.67C222.598 350.67 230.328 356.13 236.198 356.62C243.298 357.22 247.148 352.06 250.938 350.92C252.388 350.48 257.078 351.5 257.078 351.5C257.078 351.5 295.908 358.33 312.538 362.71C314.038 360.71 315.378 358.71 316.298 357.28C316.558 356.88 317.148 355.78 315.828 355.41C301.828 351.41 258.998 344.57 258.998 344.57C258.998 344.57 254.428 343.64 252.998 344.09C249.268 345.29 245.428 350.44 238.488 349.98C232.758 349.59 225.298 344.34 225.298 344.34L196.198 321.67L192.968 319.17L190.418 317.17L152.168 287.67C152.168 287.67 145.228 281.74 143.388 276.27C141.178 269.64 148.298 266.49 148.498 262.56C148.568 261.05 143.368 254.95 143.368 254.95C143.368 254.95 125.868 215.07 118.448 202.43C117.758 201.25 116.858 202.1 116.528 202.43C115.368 203.7 113.838 205.49 112.268 207.43C120.718 222.49 137.178 258.52 137.178 258.52C137.178 258.52 139.358 262.88 139.308 264.41Z" fill="#000011"/>
<path d="M103.418 238.73C103.418 238.73 102.158 247.42 102.488 250.49C102.784 252.749 103.507 254.931 104.618 256.92C106.258 259.2 111.758 265.33 111.758 265.33L103.418 238.73Z" fill="#000011"/>
<path d="M105.347 218.18C100.347 226.62 95.7573 240.43 95.1973 248.37C95.3246 250.877 95.8512 253.349 96.7573 255.69C102.707 268.04 117.647 287.26 126.197 297.15C140.435 312.929 156.002 327.456 172.727 340.57C188.571 352.543 205.413 363.135 223.067 372.23C234.747 378.02 257.067 387.65 270.427 390.29C272.907 390.575 275.416 390.456 277.857 389.94C285.357 387.37 297.457 379.4 304.297 372.37C308.418 367.795 312.173 362.904 315.527 357.74C315.787 357.33 316.377 356.24 315.067 355.87C301.067 351.87 258.397 345.15 258.397 345.15C258.397 345.15 253.837 344.23 252.397 344.69C248.677 345.89 244.827 351.05 237.907 350.59C232.197 350.22 224.757 344.99 224.757 344.99L195.757 322.45L192.597 319.95L190.057 317.95L151.957 288.51C151.957 288.51 145.037 282.61 143.227 277.15C141.027 270.53 144.997 265.48 145.227 261.56C145.307 260.05 143.227 255.86 143.227 255.86C143.227 255.86 125.847 216.07 118.477 203.47C117.787 202.29 116.887 203.14 116.557 203.47C112.441 208.072 108.693 212.99 105.347 218.18V218.18Z" stroke="#B0B0B0" stroke-miterlimit="10"/>
<path d="M252.488 326.67C252.558 326.175 252.724 325.7 252.978 325.269C253.232 324.839 253.569 324.464 253.968 324.164C254.367 323.864 254.822 323.645 255.306 323.521C255.79 323.397 256.293 323.369 256.788 323.44L319.078 335.22C320.06 335.453 320.911 336.066 321.443 336.924C321.975 337.782 322.146 338.816 321.918 339.8L319.368 353.45C319.224 354.448 318.691 355.348 317.885 355.953C317.079 356.559 316.066 356.82 315.068 356.68L252.778 344.9C251.795 344.667 250.945 344.054 250.412 343.196C249.88 342.338 249.709 341.304 249.938 340.32L252.488 326.67Z" fill="#000011"/>
<path d="M243.097 329L340.267 346.67L339.037 352.6L241.857 334.78L243.097 329Z" fill="#454545" stroke="#B0B0B0" stroke-miterlimit="10"/>
<path d="M252.488 326.67C252.558 326.175 252.724 325.7 252.978 325.269C253.232 324.839 253.569 324.464 253.968 324.164C254.367 323.864 254.822 323.645 255.306 323.521C255.79 323.397 256.293 323.369 256.788 323.44L319.078 335.22C320.06 335.453 320.911 336.066 321.443 336.924C321.975 337.782 322.146 338.816 321.918 339.8L319.368 353.45C319.224 354.448 318.691 355.348 317.885 355.953C317.079 356.559 316.066 356.82 315.068 356.68L252.778 344.9C251.795 344.667 250.945 344.054 250.412 343.196C249.88 342.338 249.709 341.304 249.938 340.32L252.488 326.67Z" stroke="#B0B0B0" stroke-miterlimit="10"/>
<path d="M162.887 257.18C163.81 256.776 164.537 256.025 164.911 255.089C165.285 254.154 165.277 253.109 164.887 252.18L137.677 194.6C137.447 194.158 137.131 193.767 136.749 193.447C136.366 193.128 135.925 192.887 135.449 192.738C134.974 192.59 134.473 192.536 133.977 192.581C133.481 192.626 132.999 192.768 132.557 193L120.077 199C119.153 199.402 118.425 200.153 118.05 201.089C117.676 202.025 117.686 203.071 118.077 204L145.277 261.58C145.747 262.471 146.552 263.138 147.513 263.437C148.475 263.735 149.516 263.639 150.407 263.17L162.887 257.18Z" fill="#000011"/>
<path d="M162.808 267.17L120.808 176.3L115.808 178.67L157.428 269.67L162.808 267.17Z" fill="#454545" stroke="#B0B0B0" stroke-miterlimit="10"/>
<path d="M162.887 257.18C163.81 256.776 164.537 256.025 164.911 255.089C165.285 254.154 165.277 253.109 164.887 252.18L137.677 194.6C137.447 194.158 137.131 193.767 136.749 193.447C136.366 193.128 135.925 192.887 135.449 192.738C134.974 192.59 134.473 192.536 133.977 192.581C133.481 192.626 132.999 192.768 132.557 193L120.077 199C119.153 199.402 118.425 200.153 118.05 201.089C117.676 202.025 117.686 203.071 118.077 204L145.277 261.58C145.747 262.471 146.552 263.138 147.513 263.437C148.475 263.735 149.516 263.639 150.407 263.17L162.887 257.18Z" stroke="#B0B0B0" stroke-miterlimit="10"/>
<path d="M335.728 85.17H267.728C266.136 85.17 264.61 85.8021 263.485 86.9273C262.36 88.0526 261.728 89.5787 261.728 91.17V110.17C261.728 111.761 262.36 113.287 263.485 114.413C264.61 115.538 266.136 116.17 267.728 116.17H295.508L295.638 135.5L305.048 116.17H335.728C337.319 116.17 338.845 115.538 339.97 114.413C341.095 113.287 341.728 111.761 341.728 110.17V91.17C341.728 89.5787 341.095 88.0526 339.97 86.9273C338.845 85.8021 337.319 85.17 335.728 85.17V85.17Z" stroke="#B0B0B0" stroke-linecap="round" stroke-linejoin="round"/>
<path d="M120.999 136.231L113.808 144.198L111.721 143.478L114.284 140.757L113.818 133.754L115.985 134.502L116.083 138.966L118.9 135.507L120.999 136.231ZM122.367 143.888C121.747 143.674 121.233 143.348 120.825 142.912C120.425 142.477 120.166 141.965 120.048 141.374C119.938 140.786 119.996 140.163 120.223 139.505C120.447 138.855 120.788 138.333 121.245 137.941C121.704 137.541 122.229 137.295 122.82 137.202C123.41 137.109 124.016 137.17 124.636 137.384C125.256 137.598 125.77 137.923 126.178 138.36C126.586 138.797 126.847 139.315 126.962 139.913C127.08 140.504 127.027 141.124 126.803 141.775C126.578 142.425 126.232 142.949 125.765 143.346C125.308 143.739 124.781 143.98 124.183 144.07C123.593 144.162 122.987 144.102 122.367 143.888ZM122.946 142.209C123.317 142.337 123.678 142.309 124.029 142.125C124.387 141.944 124.654 141.6 124.829 141.094C125.003 140.587 125.009 140.153 124.846 139.792C124.69 139.434 124.427 139.191 124.057 139.063C123.678 138.933 123.318 138.96 122.974 139.147C122.633 139.325 122.374 139.672 122.197 140.186C122.022 140.693 122.009 141.124 122.157 141.48C122.312 141.838 122.576 142.081 122.946 142.209ZM135.174 141.12L132.991 147.45L131.051 146.781L131.348 145.919C131.055 146.131 130.708 146.265 130.308 146.322C129.918 146.374 129.519 146.329 129.11 146.188C128.626 146.021 128.235 145.768 127.938 145.428C127.643 145.081 127.464 144.668 127.4 144.189C127.337 143.711 127.401 143.195 127.591 142.643L128.867 138.945L130.795 139.61L129.61 143.047C129.463 143.471 129.46 143.838 129.598 144.148C129.737 144.458 129.991 144.677 130.362 144.805C130.74 144.935 131.079 144.921 131.379 144.762C131.679 144.603 131.902 144.312 132.049 143.889L133.234 140.451L135.174 141.12ZM139.609 140.327C140.418 140.606 140.992 141.041 141.33 141.631C141.675 142.225 141.715 142.907 141.449 143.678C141.204 144.389 140.777 144.864 140.17 145.103C139.573 145.337 138.892 145.326 138.125 145.071L137.775 145.902L136.073 145.315L136.744 143.185L137.425 143.42C138.007 143.621 138.475 143.702 138.827 143.662C139.186 143.626 139.431 143.418 139.562 143.04C139.653 142.775 139.653 142.543 139.561 142.342C139.47 142.141 139.296 141.996 139.038 141.907C138.766 141.814 138.527 141.82 138.321 141.927C138.118 142.026 137.97 142.208 137.879 142.472L136.053 141.842C136.197 141.376 136.435 140.992 136.767 140.692C137.106 140.395 137.517 140.21 137.998 140.14C138.49 140.064 139.027 140.126 139.609 140.327ZM135.93 148.566C135.589 148.448 135.343 148.253 135.192 147.981C135.05 147.704 135.031 147.418 135.132 147.123C135.237 146.82 135.43 146.604 135.712 146.472C136.002 146.344 136.317 146.338 136.657 146.456C136.99 146.57 137.227 146.766 137.368 147.044C137.517 147.323 137.54 147.615 137.435 147.917C137.334 148.212 137.138 148.424 136.848 148.552C136.568 148.676 136.262 148.68 135.93 148.566Z" fill="#E9EAFF"/>
<path d="M197.427 131.67L119.598 104.83C118.095 104.313 116.449 104.414 115.02 105.109C113.592 105.805 112.498 107.039 111.978 108.54L99.7975 143.84C99.2815 145.344 99.3834 146.991 100.081 148.42C100.778 149.848 102.014 150.942 103.518 151.46L131.048 160.96L132.048 183.17L138.798 163.67L181.338 178.34C182.083 178.597 182.871 178.705 183.658 178.657C184.445 178.609 185.215 178.406 185.923 178.061C186.632 177.716 187.266 177.234 187.788 176.643C188.31 176.053 188.711 175.365 188.968 174.62L201.138 139.33C201.399 138.584 201.511 137.793 201.466 137.003C201.421 136.213 201.221 135.44 200.876 134.728C200.531 134.016 200.049 133.38 199.457 132.855C198.865 132.33 198.175 131.927 197.427 131.67V131.67Z" fill="#000011" stroke="#B0B0B0" stroke-linecap="round" stroke-linejoin="round"/>
<path d="M225.428 67.34H199.428C197.836 67.34 196.31 67.9721 195.185 69.0973C194.06 70.2225 193.428 71.7487 193.428 73.34V98.67C193.428 100.261 194.06 101.787 195.185 102.913C196.31 104.038 197.836 104.67 199.428 104.67H213.868L220.928 115.92L220.718 104.67H225.428C227.019 104.67 228.545 104.038 229.67 102.913C230.796 101.787 231.428 100.261 231.428 98.67V73.34C231.428 71.7487 230.796 70.2225 229.67 69.0973C228.545 67.9721 227.019 67.34 225.428 67.34V67.34Z" fill="#000011" stroke="#B0B0B0" stroke-linecap="round" stroke-linejoin="round"/>
</svg>
