<svg width="40" height="40" viewBox="0 0 40 40" fill="none" xmlns="http://www.w3.org/2000/svg">
<path d="M34.4333 11.6335C32.9789 9.11304 30.8858 7.02051 28.3649 5.56683C25.8099 4.0785 23.0216 3.3335 19.9999 3.3335C16.9783 3.3335 14.1899 4.0785 11.6333 5.56683C9.07825 7.05516 7.05492 9.0785 5.56659 11.6335C4.07825 14.1885 3.33325 16.9785 3.33325 20.0002C3.33325 23.0218 4.07659 25.8118 5.56659 28.3668C7.02046 30.8877 9.11368 32.9803 11.6349 34.4335C14.1899 35.9218 16.9783 36.6668 19.9999 36.6668C23.0216 36.6668 25.8099 35.9218 28.3666 34.4335C30.8874 32.9798 32.9805 30.8873 34.4349 28.3668C35.9233 25.8118 36.6666 23.0218 36.6666 20.0002C36.6666 16.9785 35.9233 14.1885 34.4333 11.6335ZM19.9999 6.10016C23.3333 6.10016 26.2866 7.16683 28.8666 9.2985C27.3333 11.2552 25.0566 12.8652 22.0333 14.1318C20.3633 11.1102 18.5533 8.58683 16.5983 6.56516C17.7063 6.2588 18.8503 6.10241 19.9999 6.10016V6.10016ZM9.18325 11.3335C10.402 9.78587 11.944 8.52311 13.7016 7.6335C15.7216 9.63516 17.5766 12.1335 19.2683 15.1335C15.9349 16.1335 12.4116 16.6335 8.69992 16.6335C7.74492 16.6335 7.02325 16.6118 6.53325 16.5668C7.04404 14.6575 7.9465 12.8753 9.18325 11.3335V11.3335ZM6.09992 20.0002C6.09992 19.9102 6.10492 19.8002 6.11659 19.6668C6.12825 19.5335 6.13325 19.4235 6.13325 19.3335C6.55659 19.3568 7.20159 19.3668 8.06825 19.3668C12.5116 19.3668 16.6449 18.7552 20.4666 17.5335C20.7783 18.1552 21.1016 18.8552 21.4333 19.6335C19.2333 20.1218 16.9766 21.3102 14.6649 23.2002C12.3533 25.0902 10.6666 27.0785 9.59992 29.1668C7.26659 26.5218 6.09992 23.4668 6.09992 20.0002V20.0002ZM19.9999 33.9002C16.8433 33.9002 14.0099 32.9218 11.4983 30.9685C12.4999 28.9902 14.0383 27.0985 16.1166 25.3002C18.1933 23.5002 20.2549 22.3785 22.2999 21.9335C23.5899 25.4985 24.4624 29.201 24.8999 32.9668C23.338 33.5772 21.6768 33.8936 19.9999 33.9002V33.9002ZM31.7999 27.3002C30.709 29.0577 29.2401 30.55 27.4999 31.6685C27.0999 28.2018 26.3333 24.8235 25.2016 21.5335C26.7549 21.4235 28.1433 21.3668 29.3683 21.3668C30.6999 21.3668 32.1783 21.4235 33.7999 21.5335C33.5823 23.5832 32.8982 25.5559 31.7999 27.3002ZM29.7333 18.9668C27.7999 18.9668 26.0116 19.0452 24.3666 19.2002C24.0181 18.2881 23.6402 17.3877 23.2333 16.5002C26.6766 14.9902 29.1199 13.1568 30.5649 11.0002C32.5649 13.3568 33.6549 16.0452 33.8316 19.0668C32.4783 19.0002 31.1116 18.9668 29.7333 18.9668V18.9668Z" fill="white"/>
</svg>
