<svg width="64" height="64" viewBox="0 0 64 64" fill="none" xmlns="http://www.w3.org/2000/svg">
<path d="M32.0747 32C32.0747 26.109 36.8503 21.3334 42.7413 21.3334C48.6323 21.3334 53.408 26.1091 53.408 32C53.408 37.8911 48.6322 42.6666 42.7413 42.6666C36.8502 42.6666 32.0747 37.891 32.0747 32V32Z" fill="#00BCFF"/>
<path d="M10.7417 53.3334C10.7417 47.4424 15.5173 42.6668 21.4083 42.6668L27.0927 39.6656L32.0749 42.6668V53.3334C32.0749 59.2245 27.2993 64 21.4083 64C15.5173 64 10.7417 59.2244 10.7417 53.3334V53.3334Z" fill="#00CF7F"/>
<path d="M32.0748 0L26.2705 10.0837L32.0748 21.3333H42.5918C48.4829 21.3333 53.2584 16.5576 53.2584 10.6666C53.2584 4.77563 48.4828 0 42.5918 0H32.0748Z" fill="#FF7361"/>
<path d="M10.5918 10.6666C10.5918 16.5576 15.3674 21.3333 21.2584 21.3333L26.9168 23.5187L32.0747 21.3333V0H21.2583C15.3674 0 10.5918 4.77563 10.5918 10.6666V10.6666Z" fill="#FF4D12"/>
<path d="M10.7417 32C10.7417 37.8911 15.5173 42.6666 21.4083 42.6666H32.0749V21.3333H21.4083C15.5173 21.3333 10.7417 26.109 10.7417 32V32Z" fill="#B659FF"/>
</svg>
