<svg width="40" height="40" viewBox="0 0 40 40" fill="none" xmlns="http://www.w3.org/2000/svg">
<path d="M19.9983 12.2949C17.9544 12.2949 15.9941 13.1069 14.5489 14.5522C13.1036 15.9974 12.2916 17.9577 12.2916 20.0016C12.2916 22.0455 13.1036 24.0057 14.5489 25.451C15.9941 26.8963 17.9544 27.7083 19.9983 27.7083C22.0422 27.7083 24.0024 26.8963 25.4477 25.451C26.893 24.0057 27.705 22.0455 27.705 20.0016C27.705 17.9577 26.893 15.9974 25.4477 14.5522C24.0024 13.1069 22.0422 12.2949 19.9983 12.2949V12.2949ZM19.9983 25.0066C18.6704 25.0066 17.397 24.4791 16.458 23.5402C15.5191 22.6012 14.9916 21.3278 14.9916 19.9999C14.9916 18.6721 15.5191 17.3986 16.458 16.4597C17.397 15.5207 18.6704 14.9933 19.9983 14.9933C21.3261 14.9933 22.5996 15.5207 23.5385 16.4597C24.4775 17.3986 25.005 18.6721 25.005 19.9999C25.005 21.3278 24.4775 22.6012 23.5385 23.5402C22.5996 24.4791 21.3261 25.0066 19.9983 25.0066V25.0066Z" fill="white"/>
<path d="M28.01 13.8082C29.0023 13.8082 29.8067 13.0038 29.8067 12.0115C29.8067 11.0192 29.0023 10.2148 28.01 10.2148C27.0178 10.2148 26.2134 11.0192 26.2134 12.0115C26.2134 13.0038 27.0178 13.8082 28.01 13.8082Z" fill="white"/>
<path d="M34.2216 10.185C33.8358 9.1886 33.2462 8.28377 32.4905 7.5284C31.7349 6.77303 30.8298 6.18375 29.8333 5.7983C28.6672 5.36056 27.4353 5.12387 26.19 5.0983C24.585 5.0283 24.0766 5.0083 20.0066 5.0083C15.9366 5.0083 15.415 5.0083 13.8233 5.0983C12.5789 5.12256 11.3479 5.3593 10.1833 5.7983C9.18652 6.1833 8.28124 6.77242 7.52552 7.52785C6.7698 8.28328 6.18034 9.18834 5.79496 10.185C5.35714 11.351 5.12099 12.583 5.09663 13.8283C5.02496 15.4316 5.0033 15.94 5.0033 20.0116C5.0033 24.0816 5.0033 24.6 5.09663 26.195C5.12163 27.4416 5.35663 28.6716 5.79496 29.84C6.18143 30.8362 6.77146 31.7409 7.52736 32.4963C8.28326 33.2516 9.1884 33.8409 10.185 34.2266C11.3474 34.682 12.5789 34.9356 13.8266 34.9766C15.4316 35.0466 15.94 35.0683 20.01 35.0683C24.08 35.0683 24.6016 35.0683 26.1933 34.9766C27.4385 34.9513 28.6703 34.7152 29.8366 34.2783C30.8329 33.8919 31.7377 33.3022 32.4932 32.5466C33.2488 31.791 33.8386 30.8862 34.225 29.89C34.6633 28.7233 34.8983 27.4933 34.9233 26.2466C34.995 24.6433 35.0166 24.135 35.0166 20.0633C35.0166 15.9916 35.0166 15.475 34.9233 13.88C34.9039 12.6171 34.6665 11.367 34.2216 10.185V10.185ZM32.1916 26.0716C32.1809 27.0321 32.0056 27.9837 31.6733 28.885C31.423 29.5331 31.0398 30.1216 30.5484 30.6128C30.057 31.1039 29.4682 31.4867 28.82 31.7366C27.9287 32.0674 26.9872 32.2427 26.0366 32.255C24.4533 32.3283 24.0066 32.3466 19.9466 32.3466C15.8833 32.3466 15.4683 32.3466 13.855 32.255C12.9048 32.2433 11.9638 32.068 11.0733 31.7366C10.4228 31.4883 9.83163 31.1061 9.33811 30.6149C8.84459 30.1237 8.45969 29.5343 8.2083 28.885C7.88071 27.9934 7.70548 27.053 7.68996 26.1033C7.6183 24.52 7.60163 24.0733 7.60163 20.0133C7.60163 15.9516 7.60163 15.5366 7.68996 13.9216C7.70074 12.9617 7.87605 12.0107 8.2083 11.11C8.71663 9.79497 9.7583 8.75997 11.0733 8.25663C11.9643 7.92687 12.905 7.75157 13.855 7.7383C15.44 7.66663 15.885 7.64663 19.9466 7.64663C24.0083 7.64663 24.425 7.64663 26.0366 7.7383C26.9873 7.74974 27.9289 7.92509 28.82 8.25663C29.4682 8.50709 30.0569 8.8903 30.5482 9.38168C31.0396 9.87306 31.4228 10.4618 31.6733 11.11C32.0009 12.0015 32.1761 12.9419 32.1916 13.8916C32.2633 15.4766 32.2816 15.9216 32.2816 19.9833C32.2816 24.0433 32.2816 24.48 32.21 26.0733H32.1916V26.0716Z" fill="white"/>
</svg>
