<svg width="359" height="98" viewBox="0 0 359 98" fill="none" xmlns="http://www.w3.org/2000/svg">
<path d="M42.5262 98L78 62.4652L42.5262 26.9303L33.737 35.7346L60.4216 62.4652L33.737 89.1957L42.5262 98Z" fill="url(#paint0_linear_301_2)"/>
<path d="M35.4738 71.0697L0 35.5348L35.4738 0L44.263 8.80432L17.5784 35.5348L44.263 62.2653L35.4738 71.0697Z" fill="url(#paint1_linear_301_2)"/>
<path d="M112.2 61.44C109.88 61.44 107.88 61.0667 106.2 60.32C104.547 59.5467 103.027 58.3867 101.64 56.84L105.72 52.8C106.627 53.84 107.627 54.6533 108.72 55.24C109.84 55.8 111.133 56.08 112.6 56.08C113.933 56.08 114.96 55.84 115.68 55.36C116.427 54.88 116.8 54.2133 116.8 53.36C116.8 52.5867 116.56 51.96 116.08 51.48C115.6 51 114.96 50.5867 114.16 50.24C113.387 49.8933 112.52 49.56 111.56 49.24C110.627 48.92 109.693 48.56 108.76 48.16C107.827 47.7333 106.96 47.2133 106.16 46.6C105.387 45.96 104.76 45.1733 104.28 44.24C103.8 43.28 103.56 42.08 103.56 40.64C103.56 38.9067 103.973 37.4133 104.8 36.16C105.653 34.9067 106.827 33.96 108.32 33.32C109.813 32.6533 111.533 32.32 113.48 32.32C115.453 32.32 117.253 32.6667 118.88 33.36C120.533 34.0533 121.893 35 122.96 36.2L118.88 40.24C118.027 39.36 117.16 38.7067 116.28 38.28C115.427 37.8533 114.453 37.64 113.36 37.64C112.267 37.64 111.4 37.8533 110.76 38.28C110.12 38.68 109.8 39.2667 109.8 40.04C109.8 40.76 110.04 41.3467 110.52 41.8C111 42.2267 111.627 42.6 112.4 42.92C113.2 43.24 114.067 43.56 115 43.88C115.96 44.2 116.907 44.5733 117.84 45C118.773 45.4267 119.627 45.9733 120.4 46.64C121.2 47.28 121.84 48.1067 122.32 49.12C122.8 50.1067 123.04 51.3333 123.04 52.8C123.04 55.4933 122.08 57.6133 120.16 59.16C118.24 60.68 115.587 61.44 112.2 61.44ZM134.483 61.4C132.696 61.4 131.096 60.96 129.683 60.08C128.296 59.2 127.19 58 126.363 56.48C125.563 54.96 125.163 53.2267 125.163 51.28C125.163 49.3333 125.563 47.6 126.363 46.08C127.19 44.56 128.296 43.36 129.683 42.48C131.096 41.6 132.696 41.16 134.483 41.16C135.79 41.16 136.963 41.4133 138.003 41.92C139.07 42.4267 139.936 43.1333 140.603 44.04C141.27 44.92 141.643 45.9333 141.723 47.08V55.48C141.643 56.6267 141.27 57.6533 140.603 58.56C139.963 59.44 139.11 60.1333 138.043 60.64C136.976 61.1467 135.79 61.4 134.483 61.4ZM135.723 55.88C137.03 55.88 138.083 55.4533 138.883 54.6C139.683 53.72 140.083 52.6133 140.083 51.28C140.083 50.3733 139.896 49.5733 139.523 48.88C139.176 48.1867 138.67 47.6533 138.003 47.28C137.363 46.88 136.616 46.68 135.763 46.68C134.91 46.68 134.15 46.88 133.483 47.28C132.843 47.6533 132.323 48.1867 131.923 48.88C131.55 49.5733 131.363 50.3733 131.363 51.28C131.363 52.16 131.55 52.9467 131.923 53.64C132.296 54.3333 132.816 54.88 133.483 55.28C134.15 55.68 134.896 55.88 135.723 55.88ZM139.843 61V55.76L140.763 51.04L139.843 46.32V41.56H145.843V61H139.843ZM158.392 69.72C156.259 69.72 154.379 69.3467 152.752 68.6C151.152 67.88 149.886 66.8533 148.952 65.52L152.712 61.76C153.406 62.5867 154.179 63.2133 155.032 63.64C155.912 64.0667 156.966 64.28 158.192 64.28C159.712 64.28 160.899 63.9067 161.752 63.16C162.632 62.4133 163.072 61.36 163.072 60V55.04L164.112 50.8L163.192 46.56V41.56H169.192V59.84C169.192 61.84 168.726 63.5733 167.792 65.04C166.859 66.5067 165.579 67.6533 163.952 68.48C162.326 69.3067 160.472 69.72 158.392 69.72ZM158.112 60.4C156.326 60.4 154.739 59.9733 153.352 59.12C151.966 58.2667 150.872 57.1067 150.072 55.64C149.272 54.1733 148.872 52.5467 148.872 50.76C148.872 48.9467 149.272 47.32 150.072 45.88C150.872 44.4133 151.966 43.2667 153.352 42.44C154.739 41.5867 156.326 41.16 158.112 41.16C159.446 41.16 160.632 41.4133 161.672 41.92C162.739 42.4 163.592 43.0933 164.232 44C164.899 44.88 165.272 45.9067 165.352 47.08V54.48C165.272 55.6267 164.899 56.6533 164.232 57.56C163.592 58.44 162.739 59.1333 161.672 59.64C160.606 60.1467 159.419 60.4 158.112 60.4ZM159.272 54.96C160.126 54.96 160.859 54.7733 161.472 54.4C162.112 54.0267 162.592 53.5333 162.912 52.92C163.259 52.28 163.432 51.56 163.432 50.76C163.432 49.96 163.259 49.24 162.912 48.6C162.592 47.96 162.112 47.4533 161.472 47.08C160.859 46.7067 160.126 46.52 159.272 46.52C158.446 46.52 157.712 46.7067 157.072 47.08C156.432 47.4533 155.939 47.96 155.592 48.6C155.246 49.24 155.072 49.96 155.072 50.76C155.072 51.5067 155.246 52.2133 155.592 52.88C155.939 53.52 156.419 54.0267 157.032 54.4C157.672 54.7733 158.419 54.96 159.272 54.96ZM181.632 61.4C179.845 61.4 178.245 60.96 176.832 60.08C175.445 59.2 174.338 58 173.512 56.48C172.712 54.96 172.312 53.2267 172.312 51.28C172.312 49.3333 172.712 47.6 173.512 46.08C174.338 44.56 175.445 43.36 176.832 42.48C178.245 41.6 179.845 41.16 181.632 41.16C182.938 41.16 184.112 41.4133 185.152 41.92C186.218 42.4267 187.085 43.1333 187.752 44.04C188.418 44.92 188.792 45.9333 188.872 47.08V55.48C188.792 56.6267 188.418 57.6533 187.752 58.56C187.112 59.44 186.258 60.1333 185.192 60.64C184.125 61.1467 182.938 61.4 181.632 61.4ZM182.872 55.88C184.178 55.88 185.232 55.4533 186.032 54.6C186.832 53.72 187.232 52.6133 187.232 51.28C187.232 50.3733 187.045 49.5733 186.672 48.88C186.325 48.1867 185.818 47.6533 185.152 47.28C184.512 46.88 183.765 46.68 182.912 46.68C182.058 46.68 181.298 46.88 180.632 47.28C179.992 47.6533 179.472 48.1867 179.072 48.88C178.698 49.5733 178.512 50.3733 178.512 51.28C178.512 52.16 178.698 52.9467 179.072 53.64C179.445 54.3333 179.965 54.88 180.632 55.28C181.298 55.68 182.045 55.88 182.872 55.88ZM186.992 61V55.76L187.912 51.04L186.992 46.32V41.56H192.992V61H186.992ZM197.301 61V41.56H203.421V61H197.301ZM203.421 50.32L200.861 48.32C201.367 46.0533 202.221 44.2933 203.421 43.04C204.621 41.7867 206.287 41.16 208.421 41.16C209.354 41.16 210.167 41.3067 210.861 41.6C211.581 41.8667 212.207 42.2933 212.741 42.88L209.101 47.48C208.834 47.1867 208.501 46.96 208.101 46.8C207.701 46.64 207.247 46.56 206.741 46.56C205.727 46.56 204.914 46.88 204.301 47.52C203.714 48.1333 203.421 49.0667 203.421 50.32ZM219.874 61V55.48H226.874C228.581 55.48 230.074 55.1467 231.354 54.48C232.634 53.7867 233.621 52.7867 234.314 51.48C235.007 50.1733 235.354 48.6267 235.354 46.84C235.354 45.0533 234.994 43.52 234.274 42.24C233.581 40.96 232.594 39.9733 231.314 39.28C230.061 38.5867 228.581 38.24 226.874 38.24H219.674V32.76H226.954C229.087 32.76 231.047 33.1067 232.834 33.8C234.647 34.4667 236.221 35.44 237.554 36.72C238.914 37.9733 239.954 39.4667 240.674 41.2C241.421 42.9067 241.794 44.8 241.794 46.88C241.794 48.9333 241.421 50.8267 240.674 52.56C239.954 54.2933 238.927 55.7867 237.594 57.04C236.261 58.2933 234.687 59.2667 232.874 59.96C231.087 60.6533 229.141 61 227.034 61H219.874ZM215.634 61V32.76H221.914V61H215.634ZM254.83 61.44C252.724 61.44 250.844 61.0133 249.19 60.16C247.564 59.28 246.284 58.0667 245.35 56.52C244.417 54.9733 243.95 53.2267 243.95 51.28C243.95 49.3333 244.404 47.6 245.31 46.08C246.244 44.5333 247.497 43.32 249.07 42.44C250.644 41.56 252.417 41.12 254.39 41.12C256.31 41.12 258.004 41.5333 259.47 42.36C260.937 43.1867 262.084 44.3333 262.91 45.8C263.764 47.2667 264.19 48.9467 264.19 50.84C264.19 51.1867 264.164 51.56 264.11 51.96C264.084 52.3333 264.017 52.7733 263.91 53.28L247.15 53.32V49.12L261.31 49.08L258.67 50.84C258.644 49.72 258.47 48.8 258.15 48.08C257.83 47.3333 257.35 46.7733 256.71 46.4C256.097 46 255.337 45.8 254.43 45.8C253.47 45.8 252.63 46.0267 251.91 46.48C251.217 46.9067 250.67 47.52 250.27 48.32C249.897 49.12 249.71 50.0933 249.71 51.24C249.71 52.3867 249.91 53.3733 250.31 54.2C250.737 55 251.324 55.6267 252.07 56.08C252.844 56.5067 253.75 56.72 254.79 56.72C255.75 56.72 256.617 56.56 257.39 56.24C258.164 55.8933 258.844 55.3867 259.43 54.72L262.79 58.08C261.83 59.2 260.67 60.04 259.31 60.6C257.95 61.16 256.457 61.44 254.83 61.44ZM274.224 61.48C273.078 61.48 271.944 61.3333 270.824 61.04C269.731 60.7467 268.704 60.3333 267.744 59.8C266.811 59.24 266.011 58.6 265.344 57.88L268.824 54.36C269.464 55.0533 270.224 55.6 271.104 56C271.984 56.3733 272.944 56.56 273.984 56.56C274.704 56.56 275.251 56.4533 275.624 56.24C276.024 56.0267 276.224 55.7333 276.224 55.36C276.224 54.88 275.984 54.52 275.504 54.28C275.051 54.0133 274.464 53.7867 273.744 53.6C273.024 53.3867 272.264 53.16 271.464 52.92C270.664 52.68 269.904 52.3467 269.184 51.92C268.464 51.4933 267.878 50.9067 267.424 50.16C266.971 49.3867 266.744 48.4133 266.744 47.24C266.744 45.9867 267.064 44.9067 267.704 44C268.344 43.0667 269.251 42.3333 270.424 41.8C271.598 41.2667 272.971 41 274.544 41C276.198 41 277.718 41.2933 279.104 41.88C280.518 42.44 281.664 43.28 282.544 44.4L279.064 47.92C278.451 47.2 277.758 46.6933 276.984 46.4C276.238 46.1067 275.504 45.96 274.784 45.96C274.091 45.96 273.571 46.0667 273.224 46.28C272.878 46.4667 272.704 46.7467 272.704 47.12C272.704 47.52 272.931 47.84 273.384 48.08C273.838 48.32 274.424 48.5333 275.144 48.72C275.864 48.9067 276.624 49.1333 277.424 49.4C278.224 49.6667 278.984 50.0267 279.704 50.48C280.424 50.9333 281.011 51.5467 281.464 52.32C281.918 53.0667 282.144 54.0533 282.144 55.28C282.144 57.1733 281.424 58.68 279.984 59.8C278.571 60.92 276.651 61.48 274.224 61.48ZM285.465 61V41.56H291.585V61H285.465ZM288.545 38.88C287.585 38.88 286.785 38.56 286.145 37.92C285.531 37.2533 285.225 36.4533 285.225 35.52C285.225 34.56 285.531 33.76 286.145 33.12C286.785 32.48 287.585 32.16 288.545 32.16C289.505 32.16 290.291 32.48 290.905 33.12C291.518 33.76 291.825 34.56 291.825 35.52C291.825 36.4533 291.518 37.2533 290.905 37.92C290.291 38.56 289.505 38.88 288.545 38.88ZM304.134 69.72C302.001 69.72 300.121 69.3467 298.494 68.6C296.894 67.88 295.628 66.8533 294.694 65.52L298.454 61.76C299.148 62.5867 299.921 63.2133 300.774 63.64C301.654 64.0667 302.708 64.28 303.934 64.28C305.454 64.28 306.641 63.9067 307.494 63.16C308.374 62.4133 308.814 61.36 308.814 60V55.04L309.854 50.8L308.934 46.56V41.56H314.934V59.84C314.934 61.84 314.468 63.5733 313.534 65.04C312.601 66.5067 311.321 67.6533 309.694 68.48C308.068 69.3067 306.214 69.72 304.134 69.72ZM303.854 60.4C302.068 60.4 300.481 59.9733 299.094 59.12C297.708 58.2667 296.614 57.1067 295.814 55.64C295.014 54.1733 294.614 52.5467 294.614 50.76C294.614 48.9467 295.014 47.32 295.814 45.88C296.614 44.4133 297.708 43.2667 299.094 42.44C300.481 41.5867 302.068 41.16 303.854 41.16C305.188 41.16 306.374 41.4133 307.414 41.92C308.481 42.4 309.334 43.0933 309.974 44C310.641 44.88 311.014 45.9067 311.094 47.08V54.48C311.014 55.6267 310.641 56.6533 309.974 57.56C309.334 58.44 308.481 59.1333 307.414 59.64C306.348 60.1467 305.161 60.4 303.854 60.4ZM305.014 54.96C305.868 54.96 306.601 54.7733 307.214 54.4C307.854 54.0267 308.334 53.5333 308.654 52.92C309.001 52.28 309.174 51.56 309.174 50.76C309.174 49.96 309.001 49.24 308.654 48.6C308.334 47.96 307.854 47.4533 307.214 47.08C306.601 46.7067 305.868 46.52 305.014 46.52C304.188 46.52 303.454 46.7067 302.814 47.08C302.174 47.4533 301.681 47.96 301.334 48.6C300.988 49.24 300.814 49.96 300.814 50.76C300.814 51.5067 300.988 52.2133 301.334 52.88C301.681 53.52 302.161 54.0267 302.774 54.4C303.414 54.7733 304.161 54.96 305.014 54.96ZM332.094 61V49.92C332.094 48.9067 331.774 48.0933 331.134 47.48C330.52 46.84 329.734 46.52 328.774 46.52C328.107 46.52 327.52 46.6667 327.014 46.96C326.507 47.2267 326.107 47.6267 325.814 48.16C325.52 48.6667 325.374 49.2533 325.374 49.92L323.014 48.76C323.014 47.24 323.347 45.9067 324.014 44.76C324.68 43.6133 325.6 42.7333 326.774 42.12C327.974 41.48 329.32 41.16 330.814 41.16C332.254 41.16 333.52 41.5067 334.614 42.2C335.734 42.8667 336.614 43.76 337.254 44.88C337.894 46 338.214 47.2267 338.214 48.56V61H332.094ZM319.254 61V41.56H325.374V61H319.254ZM349.224 61.48C348.078 61.48 346.944 61.3333 345.824 61.04C344.731 60.7467 343.704 60.3333 342.744 59.8C341.811 59.24 341.011 58.6 340.344 57.88L343.824 54.36C344.464 55.0533 345.224 55.6 346.104 56C346.984 56.3733 347.944 56.56 348.984 56.56C349.704 56.56 350.251 56.4533 350.624 56.24C351.024 56.0267 351.224 55.7333 351.224 55.36C351.224 54.88 350.984 54.52 350.504 54.28C350.051 54.0133 349.464 53.7867 348.744 53.6C348.024 53.3867 347.264 53.16 346.464 52.92C345.664 52.68 344.904 52.3467 344.184 51.92C343.464 51.4933 342.878 50.9067 342.424 50.16C341.971 49.3867 341.744 48.4133 341.744 47.24C341.744 45.9867 342.064 44.9067 342.704 44C343.344 43.0667 344.251 42.3333 345.424 41.8C346.598 41.2667 347.971 41 349.544 41C351.198 41 352.718 41.2933 354.104 41.88C355.518 42.44 356.664 43.28 357.544 44.4L354.064 47.92C353.451 47.2 352.758 46.6933 351.984 46.4C351.238 46.1067 350.504 45.96 349.784 45.96C349.091 45.96 348.571 46.0667 348.224 46.28C347.878 46.4667 347.704 46.7467 347.704 47.12C347.704 47.52 347.931 47.84 348.384 48.08C348.838 48.32 349.424 48.5333 350.144 48.72C350.864 48.9067 351.624 49.1333 352.424 49.4C353.224 49.6667 353.984 50.0267 354.704 50.48C355.424 50.9333 356.011 51.5467 356.464 52.32C356.918 53.0667 357.144 54.0533 357.144 55.28C357.144 57.1733 356.424 58.68 354.984 59.8C353.571 60.92 351.651 61.48 349.224 61.48Z" fill="white"/>
<defs>
<linearGradient id="paint0_linear_301_2" x1="-1.59593e-07" y1="3.43229" x2="97.9366" y2="92.5044" gradientUnits="userSpaceOnUse">
<stop stop-color="#190BBC"/>
<stop offset="1" stop-color="#4484FF"/>
</linearGradient>
<linearGradient id="paint1_linear_301_2" x1="-1.59593e-07" y1="3.43229" x2="97.9366" y2="92.5044" gradientUnits="userSpaceOnUse">
<stop stop-color="#190BBC"/>
<stop offset="1" stop-color="#4484FF"/>
</linearGradient>
</defs>
</svg>
