<svg width="31" height="31" viewBox="0 0 31 31" fill="none" xmlns="http://www.w3.org/2000/svg">
<g clip-path="url(#clip0_24_13444)">
<path d="M25.8418 5.15835L20.0969 10.9033C18.9203 9.72672 17.2951 8.99888 15.5002 8.99888V0.874756C19.5386 0.874756 23.1954 2.51131 25.8418 5.15835Z" fill="url(#paint0_linear_24_13444)"/>
<path d="M10.9035 10.9034C9.72696 12.0799 8.99913 13.7051 8.99913 15.5H0.875C0.875 11.4616 2.51156 7.80481 5.15859 5.15845L10.9035 10.9034Z" fill="url(#paint1_linear_24_13444)"/>
<path d="M15.5002 0.874756V8.99888C13.7054 8.99888 12.0801 9.72672 10.9036 10.9033L5.15869 5.15835C7.80506 2.51131 11.4618 0.874756 15.5002 0.874756Z" fill="url(#paint2_linear_24_13444)"/>
<path d="M30.1252 15.5H22.0011C22.0011 13.7051 21.2732 12.0799 20.0967 10.9034L25.8416 5.15845C28.4886 7.80481 30.1252 11.4616 30.1252 15.5Z" fill="url(#paint3_linear_24_13444)"/>
<path d="M30.1252 15.5C30.1252 19.5384 28.4886 23.1952 25.8416 25.8415L20.0967 20.0966C21.2732 18.9201 22.0011 17.2948 22.0011 15.5H30.1252Z" fill="url(#paint4_linear_24_13444)"/>
<path d="M10.9035 20.0966L5.15859 25.8415C2.51156 23.1952 0.875 19.5384 0.875 15.5H8.99913C8.99913 17.2948 9.72696 18.9201 10.9035 20.0966Z" fill="url(#paint5_linear_24_13444)"/>
<path d="M25.8418 25.8413C23.1954 28.4884 19.5386 30.1249 15.5002 30.1249V22.0008C17.2951 22.0008 18.9203 21.273 20.0969 20.0964L25.8418 25.8413Z" fill="url(#paint6_linear_24_13444)"/>
<path d="M15.5002 22.0008V30.1249C11.4618 30.1249 7.80506 28.4884 5.15869 25.8413L10.9036 20.0964C12.0801 21.273 13.7054 22.0008 15.5002 22.0008Z" fill="url(#paint7_linear_24_13444)"/>
<path d="M23.345 7.65487L20.0966 10.9032C18.9201 9.7267 17.2948 8.99887 15.5 8.99887V4.40576C18.564 4.40576 21.3368 5.64734 23.345 7.65487Z" fill="url(#paint8_linear_24_13444)"/>
<path d="M10.9035 10.9032C9.72694 12.0797 8.99911 13.705 8.99911 15.4998H4.40601C4.40601 12.4358 5.64753 9.66304 7.65511 7.65479L10.9035 10.9032Z" fill="url(#paint9_linear_24_13444)"/>
<path d="M15.5 4.40576V8.99887C13.7052 8.99887 12.0799 9.7267 10.9034 10.9032L7.65503 7.65487C9.66328 5.64734 12.4361 4.40576 15.5 4.40576Z" fill="url(#paint10_linear_24_13444)"/>
<path d="M26.5942 15.4998H22.0011C22.0011 13.705 21.2732 12.0797 20.0967 10.9032L23.3451 7.65479C25.3526 9.66304 26.5942 12.4358 26.5942 15.4998Z" fill="url(#paint11_linear_24_13444)"/>
<path d="M26.5942 15.4998C26.5942 18.5637 25.3526 21.3365 23.3451 23.3448L20.0967 20.0964C21.2732 18.9198 22.0011 17.2946 22.0011 15.4998H26.5942Z" fill="url(#paint12_linear_24_13444)"/>
<path d="M10.9035 20.0964L7.65511 23.3448C5.64759 21.3365 4.40601 18.5637 4.40601 15.4998H8.99911C8.99911 17.2946 9.72694 18.9198 10.9035 20.0964Z" fill="url(#paint13_linear_24_13444)"/>
<path d="M23.345 23.3448C21.3368 25.3523 18.564 26.5939 15.5 26.5939V22.0008C17.2948 22.0008 18.9201 21.273 20.0966 20.0964L23.345 23.3448Z" fill="url(#paint14_linear_24_13444)"/>
<path d="M15.5 22.0008V26.5939C12.4361 26.5939 9.66328 25.3523 7.65503 23.3448L10.9034 20.0964C12.0799 21.273 13.7052 22.0008 15.5 22.0008Z" fill="url(#paint15_linear_24_13444)"/>
<path d="M27.5305 7.18262L21.563 13.1502C21.8457 13.879 22.0012 14.6713 22.0012 15.4999C22.0012 17.2948 21.2733 18.92 20.0968 20.0965C18.9203 21.2731 17.295 22.0009 15.5002 22.0009C14.6716 22.0009 13.8792 21.8455 13.1504 21.5627L7.18286 27.5303C9.54433 29.1661 12.4103 30.1251 15.5002 30.1251C19.5386 30.1251 23.1954 28.4885 25.8418 25.8415C28.4888 23.1952 30.1254 19.5383 30.1254 15.4999C30.1253 12.41 29.1663 9.54409 27.5305 7.18262Z" fill="url(#paint16_linear_24_13444)"/>
<path d="M3.15558 21.5506L0.0321137 30.2881C-0.118996 30.7108 0.289231 31.1191 0.711986 30.968L9.44943 27.8445C11.1927 26.1013 4.89875 19.8075 3.15558 21.5506Z" fill="url(#paint17_linear_24_13444)"/>
<path d="M19.9971 17.2977L9.44919 27.8445C9.27686 27.5459 9.01501 27.2816 8.67954 27.0944C8.22122 26.8406 7.50445 26.9795 7.00821 27.13C6.9002 27.1622 6.80142 27.1059 6.76124 27.0198C6.73596 26.9681 6.7314 26.9049 6.75893 26.8429C6.76009 26.8429 6.76009 26.8417 6.76009 26.8417C6.78768 26.7786 6.81182 26.7142 6.83248 26.6499C6.84166 26.6189 6.85084 26.5879 6.86008 26.5568C6.86123 26.5545 6.86123 26.5534 6.86123 26.5511C6.88767 26.4512 6.90603 26.3513 6.91637 26.249C6.91983 26.2157 6.92214 26.1812 6.92439 26.1479C6.92725 26.0924 6.92779 26.0369 6.92597 25.9814C6.91339 25.5931 6.78653 25.2074 6.54528 24.8798C6.48668 24.7994 6.42122 24.7236 6.34888 24.6512C6.27649 24.5788 6.20069 24.5133 6.12027 24.4547C5.74578 24.1791 5.29549 24.0527 4.85213 24.0757C4.81882 24.078 4.78436 24.0803 4.75105 24.0837C4.64881 24.094 4.54772 24.1124 4.44895 24.1388C4.44664 24.1388 4.44548 24.1388 4.44317 24.14C4.41217 24.1492 4.38111 24.1583 4.35011 24.1676C4.3168 24.1779 4.28465 24.1894 4.25249 24.202C4.22149 24.2135 4.19043 24.2262 4.15943 24.24C4.15828 24.24 4.15828 24.24 4.15712 24.2411C4.09506 24.2687 4.03191 24.2641 3.98024 24.2388C3.89411 24.1986 3.83782 24.0998 3.86998 23.9919C4.02048 23.4956 4.15943 22.78 3.9056 22.3217C3.71832 21.9851 3.45531 21.7232 3.15552 21.5509L13.7023 11.003C14.1778 10.5286 14.9475 10.5286 15.4219 11.003L16.319 11.9001L19.1 14.6811L19.9971 15.5782C20.4715 16.0525 20.4715 16.8221 19.9971 17.2977Z" fill="url(#paint18_linear_24_13444)"/>
<path d="M19.1002 14.6809L6.76147 27.0196C6.73619 26.968 6.73163 26.9048 6.75916 26.8428C6.76032 26.8428 6.76032 26.8416 6.76032 26.8416C6.78791 26.7784 6.90736 26.35 6.91653 26.2489C6.92115 26.2144 6.9234 26.1811 6.92456 26.1478C6.94753 25.7044 6.82116 25.2542 6.54551 24.8797C6.48691 24.7992 6.42145 24.7234 6.34911 24.6511C6.27672 24.5787 6.20092 24.5132 6.1205 24.4546C5.74601 24.1789 5.29572 24.0526 4.85236 24.0755C4.81905 24.0767 4.78574 24.079 4.75127 24.0836C4.65019 24.0927 4.54911 24.1112 4.44918 24.1387C4.44687 24.1387 4.44571 24.1387 4.4434 24.1399C4.4124 24.1479 4.19072 24.226 4.15966 24.2398C4.15851 24.2398 4.15851 24.2398 4.15735 24.2409C4.09529 24.2685 4.03214 24.2639 3.98047 24.2386L16.3192 11.8999L19.1002 14.6809Z" fill="url(#paint19_linear_24_13444)"/>
<path d="M1.79577 29.2043C1.4651 28.8736 1.09554 28.6083 0.704631 28.4067L0.0321137 30.2881C-0.118996 30.7108 0.289231 31.1191 0.711986 30.9679L2.59332 30.2954C2.39176 29.9045 2.12644 29.5349 1.79577 29.2043Z" fill="url(#paint20_linear_24_13444)"/>
<path d="M30.0162 0.983899L17.2797 13.7203L15.4166 11.8572C15.0105 11.4511 15.0105 10.7927 15.4166 10.3866L16.5309 9.27227C17.0119 8.79128 17.2821 8.13894 17.2821 7.45877V6.07015C17.2821 4.97767 17.9741 4.00512 19.0063 3.6471L29.4214 0.0344481C29.998 -0.165593 30.4477 0.552331 30.0162 0.983899Z" fill="url(#paint21_linear_24_13444)"/>
<path d="M30.0162 0.983817L17.2798 13.7203L19.1429 15.5834C19.549 15.9895 20.2075 15.9895 20.6136 15.5834L21.7279 14.4691C22.2088 13.9881 22.8612 13.7179 23.5414 13.7179H24.9299C26.0224 13.7179 26.9949 13.0259 27.353 11.9937L30.9656 1.57853C31.1657 1.00199 30.4477 0.552248 30.0162 0.983817Z" fill="url(#paint22_linear_24_13444)"/>
<path d="M24.0155 7.58268L30.413 1.18526C30.5722 1.026 30.5911 0.766756 30.4425 0.597532C30.2796 0.412079 29.9969 0.405271 29.8251 0.576987L23.4324 6.96974C23.0139 7.3883 22.4339 7.61745 21.8442 7.56536C21.2988 7.51722 20.7352 7.7237 20.3464 8.18506C19.7954 8.83879 19.8041 9.8139 20.3656 10.4587C21.0397 11.2328 22.2152 11.2632 22.9287 10.5498C23.3023 10.1761 23.4718 9.67579 23.4374 9.18715C23.3953 8.59176 23.5935 8.00471 24.0155 7.58268Z" fill="url(#paint23_linear_24_13444)"/>
<path d="M17.174 8.19458C17.0532 8.59788 16.834 8.96915 16.5309 9.27229L15.4166 10.3866C15.0105 10.7927 15.0105 11.4512 15.4166 11.8573L17.2797 13.7204L19.1428 15.5835C19.5489 15.9896 20.2074 15.9896 20.6135 15.5835L21.7278 14.4692C22.0309 14.166 22.4022 13.9468 22.8055 13.8261L17.174 8.19458Z" fill="url(#paint24_linear_24_13444)"/>
<path d="M18.4373 18.8573L12.1426 12.5625L14.6512 10.0538C14.9418 9.7633 15.4128 9.7633 15.7033 10.0538L20.946 15.2966C21.2365 15.5871 21.2365 16.0581 20.946 16.3486L18.4373 18.8573Z" fill="url(#paint25_linear_24_13444)"/>
</g>
<defs>
<linearGradient id="paint0_linear_24_13444" x1="13.9172" y1="0.324779" x2="23.5861" y2="9.99374" gradientUnits="userSpaceOnUse">
<stop stop-color="#FFF5D9"/>
<stop offset="1" stop-color="#FFCE47"/>
</linearGradient>
<linearGradient id="paint1_linear_24_13444" x1="2.73895" y1="10.0513" x2="7.06686" y2="14.3792" gradientUnits="userSpaceOnUse">
<stop stop-color="#6FA953"/>
<stop offset="1" stop-color="#43765A"/>
</linearGradient>
<linearGradient id="paint2_linear_24_13444" x1="9.79726" y1="2.48432" x2="15.4849" y2="8.17197" gradientUnits="userSpaceOnUse">
<stop stop-color="#E4E08E"/>
<stop offset="1" stop-color="#6FA953"/>
</linearGradient>
<linearGradient id="paint3_linear_24_13444" x1="20.1702" y1="6.57813" x2="29.4014" y2="15.8094" gradientUnits="userSpaceOnUse">
<stop stop-color="#FFCE47"/>
<stop offset="1" stop-color="#FF9356"/>
</linearGradient>
<linearGradient id="paint4_linear_24_13444" x1="22.221" y1="14.9083" x2="27.5725" y2="20.2599" gradientUnits="userSpaceOnUse">
<stop stop-color="#FF9356"/>
<stop offset="1" stop-color="#FF755C"/>
</linearGradient>
<linearGradient id="paint5_linear_24_13444" x1="1.96784" y1="15.5598" x2="8.26491" y2="21.8568" gradientUnits="userSpaceOnUse">
<stop stop-color="#7ACBFF"/>
<stop offset="1" stop-color="#45A2E0"/>
</linearGradient>
<linearGradient id="paint6_linear_24_13444" x1="15.49" y1="22.8021" x2="20.7727" y2="28.0848" gradientUnits="userSpaceOnUse">
<stop stop-color="#FF755C"/>
<stop offset="1" stop-color="#FF4181"/>
</linearGradient>
<linearGradient id="paint7_linear_24_13444" x1="6.47242" y1="20.064" x2="19.2466" y2="32.8382" gradientUnits="userSpaceOnUse">
<stop stop-color="#FF4181"/>
<stop offset="1" stop-color="#843561"/>
</linearGradient>
<linearGradient id="paint8_linear_24_13444" x1="21.3397" y1="10.2441" x2="15.3889" y2="4.29325" gradientUnits="userSpaceOnUse">
<stop stop-color="#FFF5D9"/>
<stop offset="1" stop-color="#FFCE47"/>
</linearGradient>
<linearGradient id="paint9_linear_24_13444" x1="9.58209" y1="15.1288" x2="2.20653" y2="7.75326" gradientUnits="userSpaceOnUse">
<stop stop-color="#6FA953"/>
<stop offset="1" stop-color="#43765A"/>
</linearGradient>
<linearGradient id="paint10_linear_24_13444" x1="14.7404" y1="9.1932" x2="8.17656" y2="2.62934" gradientUnits="userSpaceOnUse">
<stop stop-color="#E4E08E"/>
<stop offset="1" stop-color="#6FA953"/>
</linearGradient>
<linearGradient id="paint11_linear_24_13444" x1="26.5242" y1="15.4284" x2="19.5949" y2="8.49914" gradientUnits="userSpaceOnUse">
<stop stop-color="#FFCE47"/>
<stop offset="1" stop-color="#FF9356"/>
</linearGradient>
<linearGradient id="paint12_linear_24_13444" x1="26.0465" y1="20.4991" x2="21.4172" y2="15.8698" gradientUnits="userSpaceOnUse">
<stop stop-color="#FF9356"/>
<stop offset="1" stop-color="#FF755C"/>
</linearGradient>
<linearGradient id="paint13_linear_24_13444" x1="11.4009" y1="22.4961" x2="2.85382" y2="13.949" gradientUnits="userSpaceOnUse">
<stop stop-color="#7ACBFF"/>
<stop offset="1" stop-color="#45A2E0"/>
</linearGradient>
<linearGradient id="paint14_linear_24_13444" x1="20.7467" y1="26.2936" x2="14.5169" y2="20.0638" gradientUnits="userSpaceOnUse">
<stop stop-color="#FF755C"/>
<stop offset="1" stop-color="#FF4181"/>
</linearGradient>
<linearGradient id="paint15_linear_24_13444" x1="15.6406" y1="26.7359" x2="8.03773" y2="19.133" gradientUnits="userSpaceOnUse">
<stop stop-color="#FF4181"/>
<stop offset="1" stop-color="#843561"/>
</linearGradient>
<linearGradient id="paint16_linear_24_13444" x1="21.7794" y1="21.7792" x2="17.3609" y2="17.3607" gradientUnits="userSpaceOnUse">
<stop stop-color="#843561" stop-opacity="0"/>
<stop offset="1" stop-color="#3A2F4D"/>
</linearGradient>
<linearGradient id="paint17_linear_24_13444" x1="0.744237" y1="23.9602" x2="7.03721" y2="30.2532" gradientUnits="userSpaceOnUse">
<stop stop-color="#FFE0EA"/>
<stop offset="1" stop-color="#FFC0D5"/>
</linearGradient>
<linearGradient id="paint18_linear_24_13444" x1="3.15552" y1="19.2458" x2="20.3529" y2="19.2458" gradientUnits="userSpaceOnUse">
<stop stop-color="#FFCE47"/>
<stop offset="1" stop-color="#FF9356"/>
</linearGradient>
<linearGradient id="paint19_linear_24_13444" x1="14.1518" y1="22.0713" x2="7.79809" y2="15.7176" gradientUnits="userSpaceOnUse">
<stop stop-color="#FFCE47"/>
<stop offset="1" stop-color="#FF9356"/>
</linearGradient>
<linearGradient id="paint20_linear_24_13444" x1="0.79407" y1="29.8233" x2="2.39977" y2="31.429" gradientUnits="userSpaceOnUse">
<stop stop-color="#2F73A0"/>
<stop offset="1" stop-color="#174461"/>
</linearGradient>
<linearGradient id="paint21_linear_24_13444" x1="22.3654" y1="5.44075" x2="23.194" y2="6.80214" gradientUnits="userSpaceOnUse">
<stop stop-color="#EDF5FF"/>
<stop offset="1" stop-color="#C7E9FF"/>
</linearGradient>
<linearGradient id="paint22_linear_24_13444" x1="24.47" y1="8.06022" x2="25.5946" y2="10.0727" gradientUnits="userSpaceOnUse">
<stop stop-color="#EDF5FF"/>
<stop offset="1" stop-color="#C7E9FF"/>
</linearGradient>
<linearGradient id="paint23_linear_24_13444" x1="26.5948" y1="6.71432" x2="24.6636" y2="4.78313" gradientUnits="userSpaceOnUse">
<stop stop-color="#2F73A0"/>
<stop offset="1" stop-color="#174461"/>
</linearGradient>
<linearGradient id="paint24_linear_24_13444" x1="19.2778" y1="11.7213" x2="18.2227" y2="12.7763" gradientUnits="userSpaceOnUse">
<stop stop-color="#7ACBFF" stop-opacity="0"/>
<stop offset="1" stop-color="#2F73A0"/>
</linearGradient>
<linearGradient id="paint25_linear_24_13444" x1="17.3004" y1="13.2612" x2="15.658" y2="15.899" gradientUnits="userSpaceOnUse">
<stop stop-color="#2F73A0"/>
<stop offset="1" stop-color="#174461"/>
</linearGradient>
<clipPath id="clip0_24_13444">
<rect width="31" height="31" fill="white"/>
</clipPath>
</defs>
</svg>
