<svg width="40" height="40" viewBox="0 0 40 40" fill="none" xmlns="http://www.w3.org/2000/svg">
<path d="M33.3333 6.6665H6.66659C4.82825 6.6665 3.33325 8.1615 3.33325 9.99984V29.9998C3.33325 31.8382 4.82825 33.3332 6.66659 33.3332H33.3333C35.1716 33.3332 36.6666 31.8382 36.6666 29.9998V9.99984C36.6666 8.1615 35.1716 6.6665 33.3333 6.6665ZM33.3333 9.99984V10.8515L19.9999 21.2232L6.66659 10.8532V9.99984H33.3333ZM6.66659 29.9998V15.0732L18.9766 24.6482C19.2684 24.8774 19.6288 25.002 19.9999 25.002C20.371 25.002 20.7314 24.8774 21.0233 24.6482L33.3333 15.0732L33.3366 29.9998H6.66659Z" fill="white"/>
</svg>
