<svg width="64" height="64" viewBox="0 0 64 64" fill="none" xmlns="http://www.w3.org/2000/svg">
<g clip-path="url(#clip0_32_120)">
<path d="M11.3334 0.800049H52.6668C58.9334 0.800049 64 5.86667 64 12.1334V51.8668C64 58.1334 58.9334 63.2002 52.6666 63.2002H11.3334C5.06663 63.2001 0 58.1334 0 51.8667V12.1334C0 5.86667 5.06663 0.800049 11.3334 0.800049V0.800049Z" fill="#001834"/>
<path d="M14.3999 44.56V17.12C14.3999 16.9334 14.4799 16.8266 14.6665 16.8266C15.1199 16.8266 15.5465 16.8266 16.1599 16.8C16.7999 16.7734 17.4665 16.7734 18.1865 16.7466C18.9065 16.7199 19.6799 16.72 20.5065 16.6933C21.3332 16.6666 22.1332 16.6666 22.9332 16.6666C25.1198 16.6666 26.9332 16.9333 28.4265 17.4933C29.7599 17.9466 30.9865 18.6933 31.9999 19.6799C32.8533 20.5333 33.5199 21.5733 33.9465 22.7199C34.3465 23.8399 34.5599 24.9865 34.5599 26.1865C34.5599 28.4799 34.0265 30.3731 32.9599 31.8665C31.8933 33.3599 30.3999 34.4799 28.6665 35.1199C26.8532 35.7865 24.8532 36.0265 22.6665 36.0265C22.0265 36.0265 21.5999 36.0265 21.3332 35.9999C21.0665 35.9733 20.6932 35.9733 20.1865 35.9733V44.5333C20.2132 44.7199 20.0799 44.8799 19.8932 44.9066C19.8665 44.9066 19.8398 44.9066 19.7865 44.9066H14.7199C14.5065 44.9066 14.3999 44.8 14.3999 44.56V44.56ZM20.2133 21.9734V30.9334C20.5867 30.96 20.9333 30.9868 21.2533 30.9868H22.6667C24.508 30.9868 26.6347 30.554 27.9199 29.0935C29.026 27.8365 29.0292 25.3438 28.1333 23.9735C27.0698 22.3469 24.943 21.8756 23.1199 21.9201C22.4265 21.9201 21.8133 21.9201 21.3065 21.9468C20.7733 21.92 20.3999 21.9466 20.2133 21.9734V21.9734Z" fill="#00A9FF"/>
<path d="M51.1997 29.3067C50.3997 28.88 49.5463 28.5867 48.6397 28.4C47.6531 28.1867 46.6663 28.0534 45.6531 28.0534C45.1197 28.0268 44.5597 28.1068 44.0531 28.24C43.7064 28.32 43.4131 28.5067 43.2264 28.7734C43.0931 28.9868 43.0131 29.2534 43.0131 29.4934C43.0131 29.7334 43.1197 29.9734 43.2797 30.1868C43.5197 30.4802 43.8397 30.7202 44.1863 30.9068C44.7997 31.2268 45.4397 31.5202 46.0797 31.7868C47.5197 32.2668 48.9063 32.9334 50.1863 33.7334C51.0663 34.2934 51.7863 35.04 52.2929 35.9468C52.7196 36.8002 52.9329 37.7334 52.9063 38.6934C52.9329 39.9468 52.5597 41.2 51.8663 42.24C51.1197 43.3067 50.0797 44.1334 48.8797 44.6134C47.5731 45.1734 45.9731 45.4668 44.0531 45.4668C42.8264 45.4668 41.6264 45.3602 40.4264 45.1202C39.4931 44.9602 38.5598 44.6668 37.7064 44.2668C37.5198 44.1602 37.3864 43.9734 37.4131 43.7602V39.1202C37.4131 39.0402 37.4397 38.9335 37.5197 38.8802C37.5997 38.8268 37.6797 38.8535 37.7597 38.9068C38.7997 39.5202 39.8931 39.9468 41.0663 40.2134C42.0797 40.48 43.1463 40.6134 44.2129 40.6134C45.2263 40.6134 45.9463 40.48 46.4263 40.24C46.8529 40.0534 47.1463 39.6 47.1463 39.12C47.1463 38.7467 46.9329 38.4 46.5063 38.0534C46.0797 37.7068 45.1997 37.3068 43.8929 36.8C42.5329 36.32 41.2796 35.68 40.1063 34.88C39.2797 34.2934 38.5863 33.52 38.0797 32.6134C37.6531 31.76 37.4397 30.8268 37.4663 29.8934C37.4663 28.7468 37.7863 27.6534 38.3729 26.6668C39.0396 25.6002 40.0263 24.7468 41.1729 24.2134C42.4263 23.5734 43.9996 23.28 45.8929 23.28C46.9863 23.28 48.1063 23.36 49.1996 23.52C49.9996 23.6267 50.7729 23.84 51.4929 24.1334C51.5996 24.16 51.7063 24.2668 51.7596 24.3734C51.7862 24.48 51.8129 24.5868 51.8129 24.6934V29.04C51.8129 29.1467 51.7596 29.2534 51.6796 29.3067C51.4397 29.36 51.3063 29.36 51.1997 29.3067V29.3067Z" fill="#00A9FF"/>
</g>
<defs>
<clipPath id="clip0_32_120">
<rect width="64" height="64" fill="white"/>
</clipPath>
</defs>
</svg>
