<svg width="64" height="64" viewBox="0 0 64 64" fill="none" xmlns="http://www.w3.org/2000/svg">
<path d="M9.86537 41.2708L6.51752 42.494L6.33936 52.4524L17.9279 48.2191C13.9498 46.8868 11.0487 44.5388 9.86537 41.2708" fill="#FDBD39"/>
<path d="M11.6177 30.7379L0 34.9819L6.51753 42.4966L9.86538 41.2734C8.68473 38.016 9.41333 34.3384 11.6177 30.7379Z" fill="#F69833"/>
<path d="M31.1652 16.3653C16.3725 21.7686 6.83416 32.921 9.86557 41.2707L63.4338 21.7022C60.4024 13.3525 45.958 10.9619 31.1652 16.3653" fill="#FECF33"/>
<path d="M42.1314 46.6103C56.9241 41.2069 66.4784 30.105 63.431 21.7048L9.86279 41.2707C12.9102 49.6736 27.3386 52.0136 42.1314 46.6103Z" fill="#EE6723"/>
<path d="M63.4308 21.7021L9.86523 41.2707C10.9129 44.1638 14.9149 45.5891 20.5257 45.5891C25.9982 45.5891 33.0023 44.2356 40.3043 41.5685C55.0971 36.1652 65.5023 27.414 63.4308 21.7021" fill="#F69833"/>
<path d="M52.7704 17.3864C47.3006 17.3864 40.2938 18.7399 32.9918 21.407C18.199 26.8103 7.79384 35.5589 9.8653 41.2707L63.4335 21.7021C62.3832 18.809 58.3838 17.3864 52.7704 17.3864" fill="#FDBD39"/>
<path d="M49.811 52.9816C48.2342 52.9816 45.9101 51.5589 42.9 48.7509C39.3394 45.4296 35.2629 40.5634 31.4152 35.0511C27.5701 29.5387 24.411 24.029 22.5177 19.5324C20.4569 14.6342 20.1617 11.6241 21.6429 10.5817C21.9859 10.3477 22.3927 10.2281 22.8076 10.2387C24.0121 10.2387 26.3628 11.1348 30.7052 15.4107L30.8009 15.5038L30.7876 15.6367C30.7584 15.9452 30.7318 16.2536 30.7078 16.5594L30.66 17.1631L30.2345 16.735C25.5544 12.0203 23.4963 11.5124 22.8262 11.5124C22.6347 11.5124 22.4831 11.5496 22.3741 11.6268C21.7306 12.0788 21.6881 14.2912 23.6877 19.0378C25.5465 23.4519 28.6603 28.8792 32.4549 34.3198C36.2521 39.763 40.2674 44.5548 43.7668 47.8175C47.5375 51.3356 49.2367 51.7158 49.7924 51.7158C49.9839 51.7158 50.1381 51.676 50.2551 51.5935C50.9332 51.1175 50.9332 48.7482 48.7048 43.6374L48.6011 43.4034L48.8245 43.2811C49.0479 43.1587 49.2659 43.0391 49.468 42.9221L49.7366 42.7705L49.8616 43.0524C51.4411 46.6741 52.9196 51.2771 50.9811 52.6386C50.638 52.8726 50.2285 52.9922 49.811 52.9816ZM49.811 52.4232V52.7024V52.4232Z" fill="#EE6723"/>
<path d="M42.4906 46.456L42.4693 46.7326C42.0944 51.3595 41.1105 56.9224 38.5418 57.1484C38.4886 57.1537 38.4354 57.1537 38.3849 57.1537C36.6405 57.1537 34.9892 54.6541 33.4814 49.7267C32.0508 45.0626 30.942 38.803 30.3596 32.0994C29.7746 25.3957 29.7826 19.0377 30.3835 14.1954C31.0377 8.9197 32.2822 6.16484 34.0851 6.00529C34.1382 5.99997 34.1941 5.99731 34.2473 5.99731C35.513 5.99731 37.4196 7.43059 39.3714 14.105L38.0977 14.3496C37.4462 12.1213 36.7362 10.3078 36.0315 9.05798C35.3801 7.90657 34.7445 7.27104 34.2473 7.27104C34.2313 7.27104 34.2154 7.27104 34.1967 7.2737C33.415 7.34284 32.2768 9.23614 31.644 14.3523C31.0536 19.1068 31.0457 25.3718 31.6227 31.9877C32.1997 38.6063 33.29 44.7728 34.694 49.3518C35.3216 51.402 36.0103 53.0932 36.6883 54.2393C37.3106 55.2976 37.9142 55.88 38.3849 55.88C38.4008 55.88 38.4168 55.88 38.4327 55.8773C39.18 55.8135 40.5893 53.8404 41.1823 46.9027L42.4906 46.456Z" fill="#EE6723"/>
</svg>
