<svg width="31" height="31" viewBox="0 0 31 31" fill="none" xmlns="http://www.w3.org/2000/svg">
<path fill-rule="evenodd" clip-rule="evenodd" d="M27.5625 2.56238H3.43755C2.52613 2.5634 1.65233 2.92594 1.00788 3.57043C0.363432 4.21493 0.000961532 5.08875 0 6.00017L0 10.4998H31V6.00017C30.9988 5.08883 30.6363 4.21516 29.9919 3.57075C29.3475 2.92633 28.4738 2.56379 27.5625 2.56262V2.56238ZM0 12.1247V24.9998C0.00110558 25.9111 0.36363 26.7848 1.00806 27.4293C1.65248 28.0737 2.52619 28.4362 3.43755 28.4373H27.5625C28.4738 28.4361 29.3474 28.0735 29.9918 27.4291C30.6362 26.7847 30.9988 25.9111 31 24.9998V12.1247H0ZM22.272 15.2812V23.6564C22.272 23.8719 22.1864 24.0786 22.034 24.231C21.8817 24.3834 21.675 24.469 21.4594 24.469C21.2439 24.469 21.0372 24.3834 20.8849 24.231C20.7325 24.0786 20.6468 23.8719 20.6468 23.6564V15.2812C20.6468 15.0656 20.7325 14.859 20.8849 14.7066C21.0372 14.5542 21.2439 14.4686 21.4594 14.4686C21.675 14.4686 21.8817 14.5542 22.034 14.7066C22.1864 14.859 22.272 15.0656 22.272 15.2812ZM17.5843 15.2937V20.0279C17.5865 20.6107 17.4735 21.1883 17.252 21.7275C17.0304 22.2666 16.7046 22.7567 16.2931 23.1697C15.8817 23.5826 15.3928 23.9102 14.8545 24.1338C14.3162 24.3574 13.739 24.4724 13.1561 24.4724C12.5732 24.4724 11.9961 24.3574 11.4578 24.1338C10.9194 23.9102 10.4305 23.5826 10.0191 23.1697C9.60772 22.7567 9.28189 22.2666 9.06032 21.7275C8.83875 21.1883 8.7258 20.6107 8.72795 20.0279V15.2937C8.72795 15.0782 8.81357 14.8715 8.96596 14.7191C9.11835 14.5667 9.32504 14.4811 9.54055 14.4811C9.75607 14.4811 9.96276 14.5667 10.1151 14.7191C10.2675 14.8715 10.3532 15.0782 10.3532 15.2937V20.0279C10.3532 20.7713 10.6485 21.4844 11.1742 22.0101C11.7 22.5358 12.413 22.8312 13.1565 22.8312C13.9 22.8312 14.613 22.5358 15.1387 22.0101C15.6644 21.4844 15.9598 20.7713 15.9598 20.0279V15.2937C15.9598 15.0782 16.0454 14.8716 16.1977 14.7193C16.3501 14.5669 16.5567 14.4813 16.7722 14.4813C16.9876 14.4813 17.1942 14.5669 17.3466 14.7193C17.4989 14.8716 17.5845 15.0782 17.5845 15.2937H17.5843ZM17.3045 7.34389C17.3045 7.23718 17.3254 7.13151 17.3662 7.03291C17.407 6.93431 17.4668 6.84472 17.5423 6.76927C17.6177 6.69382 17.7073 6.63398 17.8059 6.59319C17.9045 6.55239 18.0102 6.53144 18.1169 6.53153H26.0576C26.2731 6.53153 26.4797 6.61712 26.632 6.76946C26.7844 6.92181 26.87 7.12844 26.87 7.34389C26.87 7.55934 26.7844 7.76596 26.632 7.91831C26.4797 8.07066 26.2731 8.15624 26.0576 8.15624H18.1169C18.0102 8.15632 17.9044 8.13536 17.8058 8.09454C17.7072 8.05373 17.6176 7.99387 17.5421 7.9184C17.4666 7.84292 17.4068 7.7533 17.366 7.65466C17.3252 7.55603 17.3042 7.45032 17.3043 7.34358L17.3045 7.34389ZM4.13045 7.34389C4.13031 7.2372 4.15122 7.13154 4.19197 7.03295C4.23272 6.93435 4.29251 6.84477 4.36793 6.76931C4.44335 6.69385 4.5329 6.63401 4.63147 6.59321C4.73005 6.55241 4.8357 6.53145 4.94238 6.53153H4.94371C5.10434 6.53171 5.26131 6.5795 5.39479 6.66888C5.52826 6.75825 5.63224 6.88518 5.69359 7.03364C5.75493 7.18209 5.77089 7.3454 5.73944 7.50292C5.70799 7.66045 5.63055 7.80511 5.51691 7.91863C5.40326 8.03215 5.25851 8.10943 5.10095 8.1407C4.9434 8.17197 4.78011 8.15583 4.63172 8.09432C4.48333 8.03281 4.35651 7.92869 4.26729 7.79511C4.17807 7.66154 4.13045 7.50452 4.13045 7.34389ZM7.64822 7.34389C7.64809 7.2372 7.66899 7.13154 7.70974 7.03295C7.75049 6.93435 7.81029 6.84477 7.8857 6.76931C7.96112 6.69385 8.05068 6.63401 8.14925 6.59321C8.24782 6.55241 8.35347 6.53145 8.46015 6.53153H8.46106C8.62171 6.53162 8.77872 6.57935 8.91225 6.66867C9.04578 6.75799 9.14983 6.8849 9.21124 7.03335C9.27265 7.18179 9.28867 7.34512 9.25727 7.50267C9.22587 7.66022 9.14846 7.80492 9.03483 7.91848C8.9212 8.03204 8.77645 8.10936 8.61888 8.14067C8.46131 8.17198 8.298 8.15586 8.14959 8.09436C8.00118 8.03286 7.87434 7.92874 7.78509 7.79516C7.69585 7.66158 7.64822 7.50453 7.64822 7.34389ZM11.1647 7.34389C11.1647 7.23722 11.1856 7.13159 11.2264 7.03302C11.2671 6.93446 11.3269 6.8449 11.4023 6.76945C11.4778 6.69401 11.5673 6.63417 11.6658 6.59334C11.7644 6.55252 11.87 6.53151 11.9767 6.53153H11.978C12.1386 6.53168 12.2956 6.57947 12.4291 6.66884C12.5626 6.75821 12.6666 6.88516 12.728 7.03363C12.7893 7.1821 12.8053 7.34542 12.7738 7.50296C12.7424 7.6605 12.6649 7.80517 12.5512 7.91869C12.4376 8.03221 12.2928 8.10948 12.1352 8.14073C11.9776 8.17198 11.8143 8.1558 11.6659 8.09424C11.5175 8.03269 11.3907 7.92852 11.3015 7.79491C11.2124 7.66129 11.1648 7.50423 11.1648 7.34358L11.1647 7.34389Z" fill="url(#paint0_linear_24_13417)"/>
<defs>
<linearGradient id="paint0_linear_24_13417" x1="15.5" y1="28.4376" x2="15.5" y2="2.56238" gradientUnits="userSpaceOnUse">
<stop stop-color="#1439FF"/>
<stop offset="1" stop-color="#0CD9FF"/>
</linearGradient>
</defs>
</svg>
