<svg width="31" height="31" viewBox="0 0 31 31" fill="none" xmlns="http://www.w3.org/2000/svg">
<g clip-path="url(#clip0_24_13422)">
<path d="M19.4468 9.26338C18.4213 8.20972 17.041 7.62956 15.5605 7.62956C12.5041 7.62956 10.0152 10.0966 9.99774 13.136V13.1686C10.0067 15.328 10.8991 16.5496 11.6169 17.5323C12.1732 18.2936 12.5405 18.7964 12.5405 19.6443V21.1417C12.5405 22.4373 13.5889 23.4914 14.8777 23.4914H16.2431C17.5399 23.4914 18.5947 22.4373 18.5947 21.1417V19.6443C18.5947 18.7811 18.9658 18.2477 19.4792 17.5096C20.1606 16.5302 21.0078 15.3129 21.0163 13.1686V13.136H21.0161C21.0081 11.6696 20.4515 10.2955 19.4468 9.26338ZM14.9621 21.0698V19.8591H16.1731V21.0698H14.9621ZM17.4916 16.1265C17.2144 16.5247 16.9211 16.9467 16.6816 17.4372H14.4347C14.1807 16.9367 13.8678 16.508 13.5724 16.1038C12.9565 15.2606 12.4241 14.5319 12.4194 13.1545C12.4272 11.4421 13.8332 10.0512 15.5605 10.0512C17.2572 10.0512 18.5876 11.413 18.5947 13.1545C18.5902 14.547 18.0808 15.2795 17.4916 16.1265ZM29.772 15.5614C30.1381 14.6251 30.4273 13.6835 30.6338 12.7467C31.0697 10.7685 31.1165 8.90908 30.7731 7.22015C30.4046 5.40706 29.6045 3.8747 28.3952 2.66542C27.1857 1.4559 25.6534 0.655786 23.8403 0.287301C22.1516 -0.0561131 20.2921 -0.00928396 18.3137 0.426606C17.3769 0.633081 16.4353 0.922334 15.499 1.28845C14.5631 0.922807 13.6223 0.633081 12.6862 0.426606C10.708 -0.00928396 8.84853 -0.0561131 7.15937 0.287301C5.34651 0.655786 3.81416 1.4559 2.60464 2.66542C1.39536 3.8747 0.595239 5.40706 0.226754 7.22015C-0.11666 8.90908 -0.0698308 10.7685 0.366059 12.7467C0.572297 13.6828 0.86226 14.6237 1.22767 15.5595C0.861787 16.4959 0.572534 17.4374 0.366059 18.3743C-0.0698308 20.3524 -0.11666 22.2119 0.226754 23.9008C0.595239 25.7139 1.39536 27.2463 2.60464 28.4556C3.81416 29.6651 5.34651 30.465 7.15937 30.8337C7.90296 30.9848 8.67943 31.0605 9.48475 31.0605C10.5086 31.0605 11.5788 30.9382 12.6859 30.6941C13.6228 30.4877 14.5643 30.1986 15.5009 29.8325C16.4368 30.1982 17.3776 30.4879 18.3137 30.6941C19.4211 30.9382 20.491 31.0605 21.5149 31.0605C22.32 31.0605 23.0969 30.9848 23.8403 30.8337C25.6534 30.465 27.1857 29.6648 28.395 28.4558C29.6045 27.2463 30.4044 25.7139 30.7731 23.9008C31.1165 22.2119 31.0697 20.3524 30.6336 18.3743C30.4273 17.4382 30.1376 16.4973 29.772 15.5614ZM18.8347 2.79172C19.7791 2.58359 20.6807 2.48071 21.5279 2.48071C23.6499 2.48071 25.4308 3.12567 26.6827 4.37776C28.4347 6.1296 28.9979 8.91665 28.2687 12.2254C28.2564 12.2817 28.2434 12.3378 28.2302 12.3941C27.1219 10.5001 25.7108 8.67659 24.0472 7.01321C22.3838 5.34959 20.5603 3.93856 18.6664 2.83027C18.7226 2.81703 18.7787 2.80402 18.8347 2.79172ZM12.1649 28.3295C11.2205 28.5376 10.3192 28.6403 9.47174 28.6403C7.35 28.6403 5.56907 27.9953 4.31698 26.7432C2.56514 24.9914 2.00177 22.2043 2.73094 18.8955C2.74323 18.8392 2.75648 18.7832 2.76949 18.7269C3.87778 20.6209 5.2888 22.4444 6.95242 24.1078C8.61604 25.7714 10.4395 27.1824 12.3333 28.2909C12.2772 28.3039 12.2212 28.317 12.1649 28.3295ZM26.6827 26.7432C24.9308 28.4953 22.1435 29.0587 18.8347 28.3295C18.7789 28.317 18.7229 28.3035 18.6668 28.2905C19.6152 27.7354 20.5459 27.1046 21.4477 26.4041C20.7134 26.0169 20.1268 25.3863 19.7969 24.6196C18.4147 25.6758 16.9661 26.5479 15.4995 27.2082C13.1027 26.1295 10.7534 24.4841 8.66477 22.3954C6.57637 20.307 4.93096 17.9578 3.85223 15.561C4.51849 14.0809 5.40067 12.619 6.46994 11.2252C5.69253 10.9216 5.04496 10.3575 4.63438 9.64061C3.94235 10.5337 3.31914 11.4549 2.76996 12.3934C2.75695 12.3373 2.74323 12.2815 2.73094 12.2254C2.00177 8.91665 2.56514 6.1296 4.31698 4.37776C5.56907 3.12567 7.34976 2.48071 9.47174 2.48071C10.3189 2.48071 11.2207 2.58359 12.1649 2.79172C12.2207 2.80378 12.2768 2.8175 12.3326 2.83051C11.3972 3.37803 10.4786 3.99911 9.58834 4.68854C10.305 5.09936 10.8688 5.74716 11.1723 6.52481C12.5637 5.45815 14.0229 4.57785 15.5002 3.91278C17.8972 4.99175 20.2462 6.63715 22.3349 8.72555C24.4235 10.8142 26.0687 13.1632 27.1476 15.5603C26.4885 17.024 25.6184 18.47 24.5647 19.8499C25.3317 20.1796 25.9625 20.7659 26.3499 21.5002C27.0481 20.601 27.6765 19.6729 28.2297 18.7276C28.2427 18.7837 28.2564 18.8397 28.2687 18.8955C28.9979 22.2043 28.4347 24.9914 26.6827 26.7432ZM24.3462 23.1887C24.3462 23.8575 23.8041 24.3996 23.1352 24.3996C22.4666 24.3996 21.9245 23.8575 21.9245 23.1887C21.9245 22.5201 22.4666 21.978 23.1352 21.978C23.8041 21.978 24.3462 22.5201 24.3462 23.1887ZM8.96845 7.87174C8.96845 8.54036 8.42636 9.08244 7.75774 9.08244C7.08889 9.08244 6.54681 8.54036 6.54681 7.87174C6.54681 7.20289 7.08889 6.66081 7.75774 6.66081C8.42636 6.66081 8.96845 7.20289 8.96845 7.87174Z" fill="url(#paint0_linear_24_13422)"/>
</g>
<defs>
<linearGradient id="paint0_linear_24_13422" x1="15.4999" y1="0.0605082" x2="15.4999" y2="31.0605" gradientUnits="userSpaceOnUse">
<stop stop-color="#2AF598"/>
<stop offset="1" stop-color="#009EFD"/>
</linearGradient>
<clipPath id="clip0_24_13422">
<rect width="31" height="31" fill="white"/>
</clipPath>
</defs>
</svg>
