<svg width="31" height="31" viewBox="0 0 31 31" fill="none" xmlns="http://www.w3.org/2000/svg">
<g clip-path="url(#clip0_24_13427)">
<path d="M15.5 31C24.0604 31 31 24.0604 31 15.5C31 6.93959 24.0604 0 15.5 0C6.93959 0 0 6.93959 0 15.5C0 24.0604 6.93959 31 15.5 31Z" fill="#00C7FF"/>
<path d="M31 15.5C31 15.4978 30.9999 15.4956 30.9999 15.4933L23.7421 8.23547L6.08496 22.7645L14.272 30.9516C14.6772 30.9834 15.0866 31 15.5 31C24.0604 31 31 24.0604 31 15.5Z" fill="#0093C4"/>
<path d="M23.7421 8.23547H15.5L14.7639 21.1547L23.7421 20.4186V8.23547Z" fill="#9ABADB"/>
<path d="M7.25806 8.23547V20.4186L15.5001 21.1547V8.23547H7.25806Z" fill="#D1E8FF"/>
<path d="M24.9151 20.4186H15.5L14.7639 21.5916L15.5 22.7645H24.9151V20.4186Z" fill="#D1E8FF"/>
<path d="M15.5 20.4188H6.08496V22.7648H15.5V20.4188Z" fill="#F5F5FF"/>
<path d="M22.6388 9.33875H15.5L14.7639 14.327L15.5 19.3152H22.6388V9.33875Z" fill="#294B6E"/>
<path d="M15.5 9.33875H8.36157V19.3151H15.5V9.33875Z" fill="#6283A3"/>
<path d="M12.6619 17.2499L9.73901 14.327L12.6619 11.4042L13.442 12.1843L11.2993 14.327L13.442 16.4697L12.6619 17.2499Z" fill="#F5F5FF"/>
<path d="M18.338 17.2499L17.5579 16.4697L19.7006 14.327L17.5579 12.1843L18.338 11.4042L21.2608 14.327L18.338 17.2499Z" fill="#D1E8FF"/>
<path d="M14.2784 17.6401L15.3606 17.8553L16.7212 11.0153L15.639 10.8001L14.2784 17.6401Z" fill="#D1E8FF"/>
</g>
<defs>
<clipPath id="clip0_24_13427">
<rect width="31" height="31" fill="white"/>
</clipPath>
</defs>
</svg>
