<svg width="64" height="64" viewBox="0 0 64 64" fill="none" xmlns="http://www.w3.org/2000/svg">
<g clip-path="url(#clip0_32_108)">
<path d="M11.3333 0.800049H52.6667C58.9259 0.800049 64 5.87416 64 12.1334V51.8668C64 58.126 58.9259 63.2001 52.6667 63.2001H11.3333C5.07411 63.2001 0 58.126 0 51.8668V12.1334C0 5.87416 5.07411 0.800049 11.3333 0.800049V0.800049Z" fill="#470137"/>
<path d="M33.6447 17.2104L25.6591 30.3909L34.2029 44.3871C34.2576 44.485 34.273 44.6002 34.2459 44.7091C34.217 44.8097 34.1171 44.7464 33.9454 44.7746H27.8489C27.4194 44.7746 27.1189 44.7595 26.9472 44.473C26.3743 43.3568 25.8018 42.2477 25.2298 41.1457C24.657 40.0441 24.0488 38.9207 23.4053 37.7754C22.7613 36.6311 22.1244 35.4719 21.4947 34.2978H21.4517C20.8788 35.4429 20.2849 36.5878 19.6699 37.7324C19.0541 38.8775 18.4459 40.0152 17.8453 41.1456C17.2442 42.2766 16.6288 43.4 15.9992 44.5159C15.8845 44.7735 15.6839 44.8 15.398 44.8H9.51615C9.40203 44.8 9.33766 44.8451 9.32291 44.7305C9.30678 44.6257 9.32966 44.5189 9.38741 44.43L17.6734 30.8201L9.60203 17.1674C9.51615 17.0534 9.5019 16.9604 9.55903 16.8884C9.62328 16.8141 9.71877 16.7744 9.81677 16.781H15.8702C16.0022 16.7738 16.1342 16.7958 16.2567 16.8455C16.3593 16.9036 16.4475 16.9844 16.5143 17.0816C17.0296 18.2267 17.6021 19.3716 18.2317 20.5163C18.861 21.6614 19.4978 22.792 20.1422 23.9081C20.7862 25.0243 21.3802 26.1549 21.9241 27.2998H21.9671C22.5392 26.1265 23.1188 24.9817 23.7059 23.8652C24.2922 22.749 24.8932 21.6255 25.509 20.4949C26.1242 19.3646 26.7182 18.2411 27.2908 17.1246C27.3237 17.0186 27.3828 16.9228 27.4625 16.8456C27.5685 16.7919 27.6877 16.7695 27.806 16.7811H33.4302C33.5621 16.7486 33.6955 16.8291 33.7281 16.961C33.7506 17.0531 33.7182 17.1502 33.6447 17.2104V17.2104Z" fill="#FF61F6"/>
<path d="M45.9661 45.3317C43.99 45.3617 42.0319 44.9511 40.2345 44.1295C38.56 43.3545 37.1602 42.0894 36.2203 40.5016C35.2469 38.8848 34.7604 36.8598 34.7606 34.4265C34.7445 32.456 35.248 30.5161 36.2203 28.8021C37.2219 27.0564 38.695 25.628 40.4707 24.6805C42.3309 23.6501 44.5777 23.1349 47.2113 23.1349C47.3542 23.1349 47.5402 23.142 47.7694 23.1564C47.9981 23.1712 48.2701 23.1925 48.5851 23.2208V14.7629C48.5851 14.563 48.6711 14.4624 48.8429 14.4624H54.2523C54.3768 14.4446 54.4922 14.5311 54.51 14.6556C54.513 14.677 54.513 14.6986 54.51 14.72V40.0937C54.51 40.5807 54.5315 41.1103 54.5743 41.6823C54.6173 42.2551 54.6531 42.7704 54.6817 43.2279C54.6925 43.4103 54.5902 43.5808 54.424 43.6572C53.0284 44.2392 51.5748 44.6711 50.0878 44.9452C48.7281 45.1962 47.3488 45.3254 45.9661 45.3317V45.3317ZM48.585 40.0079V28.2871C48.353 28.2243 48.116 28.1811 47.8766 28.1583C47.5842 28.1289 47.2904 28.1145 46.9964 28.1154C45.9546 28.105 44.925 28.3404 43.9911 28.8022C43.0815 29.2544 42.3049 29.9348 41.7372 30.7772C41.1502 31.6358 40.8568 32.7664 40.857 34.169C40.8361 35.1048 40.989 36.0366 41.3077 36.9167C41.5672 37.6259 41.9773 38.2704 42.5099 38.8057C43.0198 39.2983 43.637 39.6657 44.313 39.8791C45.0271 40.1103 45.7735 40.2262 46.5241 40.2224C46.9245 40.2224 47.2967 40.2081 47.6403 40.1796C47.9605 40.1556 48.277 40.0979 48.585 40.0079V40.0079Z" fill="#FF61F6"/>
</g>
<defs>
<clipPath id="clip0_32_108">
<rect width="64" height="64" fill="white"/>
</clipPath>
</defs>
</svg>
